<?xml version="1.0" encoding="utf-8"?>
<!-- Generated by IcoMoon.io -->
<!DOCTYPE svg PUBLIC "-//W3C//DTD SVG 1.1//EN" "http://www.w3.org/Graphics/SVG/1.1/DTD/svg11.dtd">
<svg version="1.1" xmlns="http://www.w3.org/2000/svg" xmlns:xlink="http://www.w3.org/1999/xlink" width="35" height="36" viewBox="0 0 35 36">
<g>
</g>
	<path d="M27.9 16.773h-20.864l10.473-6.464z" fill="#000000" />
	<path d="M7.036 16.855v9.9h8.427l0.082-6.791h4.582v6.791h7.773v-9.982z" fill="#000000" />
	<path d="M6.419 15.512l11.071-6.987 0.48 0.761-11.071 6.987-0.48-0.761z" fill="#000000" />
	<path d="M27.999 16.276l-11.071-6.987 0.48-0.761 11.071 6.987-0.48 0.761z" fill="#000000" />
	<path d="M8.264 14.891c0.164 0.245 0.082 0.491-0.164 0.573l-2.127 1.309c-0.245 0.164-0.491 0.082-0.573-0.164v0c-0.164-0.245-0.082-0.491 0.164-0.573l2.127-1.309c0.164-0.082 0.491-0.082 0.573 0.164v0z" fill="#000000" />
	<path d="M26.673 14.891c-0.164 0.245-0.082 0.491 0.164 0.573l2.127 1.309c0.164 0.164 0.491 0.082 0.573-0.164v0c0.164-0.164 0.082-0.491-0.164-0.573l-2.127-1.309c-0.164-0.082-0.409-0.082-0.573 0.164v0z" fill="#000000" />
	<path d="M7.036 16.773h20.864v0.982h-20.864v-0.982z" fill="#000000" />
	<path d="M7.691 16.773h20.291v0.9h-20.291v-0.9z" fill="#000000" />
</svg>
