<?xml version="1.0" encoding="utf-8"?>
<!-- Generated by IcoMoon.io -->
<!DOCTYPE svg PUBLIC "-//W3C//DTD SVG 1.1//EN" "http://www.w3.org/Graphics/SVG/1.1/DTD/svg11.dtd">
<svg version="1.1" xmlns="http://www.w3.org/2000/svg" xmlns:xlink="http://www.w3.org/1999/xlink" width="37" height="36" viewBox="0 0 37 36">
<g>
</g>
	<path d="M4.629 18.45v13.95h27.9v-28.157h-27.9v14.143c0 0 0 0 0 0.064 0 0 0 0 0 0zM24.814 20.379c0 0.771-0.45 1.414-1.029 1.671l0.257 1.029c0.064 0.129 0 0.193-0.129 0.129l-1.736-1.029h-4.371c-0.771 0-1.414-0.771-1.414-1.671h3.407c0.771 0 1.414-0.771 1.414-1.736v-2.507c0 0 0 0 0 0h2.25c0.771 0 1.414 0.771 1.414 1.736v2.379zM20.571 15.364v2.507c0 0.964-0.643 1.736-1.414 1.736h-4.371l-1.736 1.029c-0.129 0.064-0.193 0-0.129-0.129l0.257-1.029c-0.579-0.193-1.029-0.836-1.029-1.671v-2.507c0-0.964 0.643-1.736 1.414-1.736h5.657c0.707 0.129 1.35 0.836 1.35 1.8z" fill="#000000" />
</svg>
