<?xml version="1.0" encoding="utf-8"?>
<!-- Generated by IcoMoon.io -->
<!DOCTYPE svg PUBLIC "-//W3C//DTD SVG 1.1//EN" "http://www.w3.org/Graphics/SVG/1.1/DTD/svg11.dtd">
<svg version="1.1" xmlns="http://www.w3.org/2000/svg" xmlns:xlink="http://www.w3.org/1999/xlink" width="37" height="36" viewBox="0 0 37 36">
<g>
</g>
	<path d="M21.6 16.457h0.771v6.621h-0.771v-6.621z" fill="#000000" />
	<path d="M17.164 16.457h0.771v6.621h-0.771v-6.621z" fill="#000000" />
	<path d="M19.35 16.457h0.771v6.621h-0.771v-6.621z" fill="#000000" />
	<path d="M5.979 4.243v13.821c0 0.064 0 0.193 0 0.257s0 0.193 0 0.257v13.821h27.9v-28.157h-27.9zM23.85 24.75h-8.229v-9.643h8.229v9.643zM23.593 14.529h-7.714c-0.45 0-0.771-0.321-0.771-0.771 0-0.45 0.321-0.771 0.771-0.771h2.443v-0.514c0-0.321 0.257-0.514 0.514-0.514h1.993c0.321 0 0.514 0.257 0.514 0.514v0.514h2.25c0.45 0 0.771 0.321 0.771 0.771 0.064 0.45-0.321 0.771-0.771 0.771z" fill="#000000" />
	<path d="M18.707 12.407h2.057v0.579h-2.057v-0.579z" fill="#000000" />
</svg>
