<?xml version="1.0" encoding="utf-8"?>
<!-- Generated by IcoMoon.io -->
<!DOCTYPE svg PUBLIC "-//W3C//DTD SVG 1.1//EN" "http://www.w3.org/Graphics/SVG/1.1/DTD/svg11.dtd">
<svg version="1.1" xmlns="http://www.w3.org/2000/svg" xmlns:xlink="http://www.w3.org/1999/xlink" width="35" height="36" viewBox="0 0 35 36">
<g>
</g>
	<path d="M23.811 17.874h-3.6v-4.674c0-0.442-0.379-0.821-0.821-0.821s-0.821 0.379-0.821 0.821v5.495c0 0.442 0.379 0.821 0.821 0.821v0c0 0 0 0 0 0h4.421c0.442 0 0.821-0.379 0.821-0.821s-0.379-0.821-0.821-0.821z" fill="#000000" />
	<path d="M5.684 4.674v27.663h27.411v-27.663h-27.411zM19.389 26.463c-4.295 0-7.768-3.474-7.768-7.768s3.474-7.768 7.768-7.768c4.295 0 7.768 3.474 7.768 7.768 0 4.295-3.474 7.768-7.768 7.768z" fill="#000000" />
</svg>
