<?xml version="1.0" encoding="utf-8"?>
<!-- Generated by IcoMoon.io -->
<!DOCTYPE svg PUBLIC "-//W3C//DTD SVG 1.1//EN" "http://www.w3.org/Graphics/SVG/1.1/DTD/svg11.dtd">
<svg version="1.1" xmlns="http://www.w3.org/2000/svg" xmlns:xlink="http://www.w3.org/1999/xlink" width="35" height="36" viewBox="0 0 35 36">
<g>
</g>
	<path d="M21.347 10.168c-2.147 0-3.916 1.768-3.916 3.916s1.768 3.916 3.916 3.916c2.147 0 3.916-1.768 3.916-3.916 0.063-2.147-1.705-3.916-3.916-3.916zM22.926 14.526h-1.137v1.137c0 0.253-0.189 0.442-0.442 0.442s-0.379-0.189-0.379-0.442v-1.137h-1.137c-0.253 0-0.442-0.189-0.442-0.442s0.189-0.442 0.442-0.442h1.137v-1.137c0-0.253 0.189-0.442 0.442-0.442s0.442 0.189 0.442 0.442v1.137h1.137c0.253 0 0.442 0.189 0.442 0.442-0.126 0.253-0.316 0.442-0.505 0.442z" fill="#000000" />
	<path d="M5.179 4.168v27.663h27.411v-27.663h-27.411zM21.347 19.326c-1.2 0-2.337-0.442-3.221-1.074-1.516 1.579-6.253 6.253-6.253 6.253-0.253 0.253-0.695 0.253-0.947 0-0.253-0.253-0.253-0.695 0-0.947 0 0 4.674-4.674 6.253-6.253 0 0 0 0 0 0-0.189-0.253-0.316-0.442-0.505-0.695-0.442-0.758-0.632-1.642-0.632-2.589 0-2.905 2.337-5.242 5.242-5.242 2.905 0 5.242 2.337 5.242 5.242 0.063 2.968-2.274 5.305-5.179 5.305z" fill="#000000" />
</svg>
