<?xml version="1.0" encoding="utf-8"?>
<!-- Generated by IcoMoon.io -->
<!DOCTYPE svg PUBLIC "-//W3C//DTD SVG 1.1//EN" "http://www.w3.org/Graphics/SVG/1.1/DTD/svg11.dtd">
<svg version="1.1" xmlns="http://www.w3.org/2000/svg" xmlns:xlink="http://www.w3.org/1999/xlink" width="36" height="36" viewBox="0 0 36 36">
<g>
</g>
	<path d="M33.537 4.421h-27.411v27.663h27.411v-27.663zM26.021 15.474c-0.758 4.168-4.8 7.642-6.063 8.463-1.2 0.821-2.337-0.316-2.779-1.2-0.442-0.947-1.895-6.189-2.211-6.632-0.379-0.442-1.453 0.442-1.453 0.442l-0.505-0.695c0 0 2.211-2.653 3.916-3.032 1.832-0.379 1.832 2.779 2.211 4.484 0.442 1.642 0.695 2.653 1.074 2.653 0.379 0 1.074-0.947 1.832-2.4 0.758-1.453-0.063-2.716-1.516-1.768 0.568-3.6 6.253-4.484 5.495-0.316z" fill="#000000" />
</svg>
