<?xml version="1.0" encoding="utf-8"?>
<!-- Generated by IcoMoon.io -->
<!DOCTYPE svg PUBLIC "-//W3C//DTD SVG 1.1//EN" "http://www.w3.org/Graphics/SVG/1.1/DTD/svg11.dtd">
<svg version="1.1" xmlns="http://www.w3.org/2000/svg" xmlns:xlink="http://www.w3.org/1999/xlink" width="35" height="36" viewBox="0 0 35 36">
<g>
</g>
	<path d="M5.368 4.674v27.6h12.821c0.316 0 0.568 0.063 0.884 0.063s0.568 0 0.884-0.063h12.821v-27.6h-27.411zM24.126 16.611c0 1.705-1.453 3.347-2.4 5.053-0.063 0.189-0.316 0.379-0.379 0.505-0.126 0.253-0.316 0.568-0.505 0.821-0.568 0.947-1.137 1.958-1.768 2.968-0.947-1.516-1.895-3.032-2.842-4.611-0.884-1.453-2.021-2.968-2.211-4.421 0-0.126 0-0.379 0-0.379v-0.632c0.316-3.032 2.779-4.547 4.989-4.547 1.642 0 3.663 0.821 4.611 3.032 0.063 0.189 0.189 0.379 0.253 0.568 0 0.063 0.253 0.695 0.253 0.884v0.758z" fill="#000000" />
	<path d="M20.968 16.295c0 1.046-0.848 1.895-1.895 1.895-1.046 0-1.895-0.848-1.895-1.895 0-1.046 0.848-1.895 1.895-1.895 1.046 0 1.895 0.848 1.895 1.895z" fill="#000000" />
</svg>
