<?xml version="1.0" encoding="utf-8"?>
<!-- Generated by IcoMoon.io -->
<!DOCTYPE svg PUBLIC "-//W3C//DTD SVG 1.1//EN" "http://www.w3.org/Graphics/SVG/1.1/DTD/svg11.dtd">
<svg version="1.1" xmlns="http://www.w3.org/2000/svg" xmlns:xlink="http://www.w3.org/1999/xlink" width="37" height="36" viewBox="0 0 37 36">
<g>
</g>
	<path d="M23.442 6.195h-10.13c-1.005 0-1.842 0.837-1.842 1.842v19.926c0 1.005 0.837 1.842 1.842 1.842h10.13c1.005 0 1.842-0.837 1.842-1.842v-19.926c0-1.005-0.754-1.842-1.842-1.842zM18.419 28.884c-0.67 0-1.172-0.502-1.172-1.172 0-0.67 0.502-1.172 1.172-1.172 0.67 0 1.172 0.502 1.172 1.172 0 0.586-0.502 1.172-1.172 1.172zM23.442 25.535h-10.298v-17.581h10.298v17.581z" fill="#000000" />
</svg>
