<?xml version="1.0" encoding="utf-8"?>
<!-- Generated by IcoMoon.io -->
<!DOCTYPE svg PUBLIC "-//W3C//DTD SVG 1.1//EN" "http://www.w3.org/Graphics/SVG/1.1/DTD/svg11.dtd">
<svg version="1.1" xmlns="http://www.w3.org/2000/svg" xmlns:xlink="http://www.w3.org/1999/xlink" width="35" height="36" viewBox="0 0 35 36">
<g>
</g>
	<path d="M20.084 18.189c0 1.291-1.046 2.337-2.337 2.337s-2.337-1.046-2.337-2.337c0-1.291 1.046-2.337 2.337-2.337 1.291 0 2.337 1.046 2.337 2.337z" fill="#000000" />
	<path d="M4.105 4.358v27.663h27.411v-27.663h-27.411zM24.568 21.032c0 0.568-0.505 1.074-1.074 1.074h-11.495c-0.568 0-1.074-0.505-1.074-1.074v-5.811c0-0.568 0.505-1.074 1.074-1.074h9.6v-0.758h1.642v0.758h0.189c0.568 0 1.074 0.505 1.074 1.074v5.811z" fill="#000000" />
</svg>
