<?xml version="1.0" encoding="utf-8"?>
<!-- Generated by IcoMoon.io -->
<!DOCTYPE svg PUBLIC "-//W3C//DTD SVG 1.1//EN" "http://www.w3.org/Graphics/SVG/1.1/DTD/svg11.dtd">
<svg version="1.1" xmlns="http://www.w3.org/2000/svg" xmlns:xlink="http://www.w3.org/1999/xlink" width="36" height="36" viewBox="0 0 36 36">
<g>
</g>
	<path d="M18.064 4.243c0 0 0 0 0 0h-13.886v28.157h27.9v-28.157h-14.014c0 0 0 0 0 0zM18.064 22.436c2.507 0 4.5-2.057 4.5-4.5 0-1.736-0.964-3.214-2.379-3.986 0-0.643-0.064-1.286-0.064-1.929 2.443 0.836 4.179 3.214 4.179 5.914 0 3.471-2.829 6.3-6.3 6.3-3.471 0-6.3-2.829-6.3-6.3 0-2.7 1.671-4.95 4.050-5.85 0 0.643 0 1.286 0.064 1.929-1.414 0.771-2.314 2.25-2.314 3.986 0 2.379 2.057 4.436 4.564 4.436zM17.229 14.721v-3.536c0-0.386 0.386-0.771 0.836-0.771s0.836 0.321 0.836 0.771v3.536c0 0.386-0.386 0.771-0.836 0.771s-0.836-0.386-0.836-0.771z" fill="#000000" />
</svg>
