<?xml version="1.0" encoding="utf-8"?>
<!-- Generated by IcoMoon.io -->
<!DOCTYPE svg PUBLIC "-//W3C//DTD SVG 1.1//EN" "http://www.w3.org/Graphics/SVG/1.1/DTD/svg11.dtd">
<svg version="1.1" xmlns="http://www.w3.org/2000/svg" xmlns:xlink="http://www.w3.org/1999/xlink" width="36" height="36" viewBox="0 0 36 36">
<g>
</g>
	<path d="M6.126 31.895h27.411v-27.663h-27.411v27.663zM19.453 16.042c0.632-0.568 1.516-0.947 2.463-0.947 1.958 0 3.537 1.453 3.726 3.284 0.253-0.126 0.505-0.189 0.821-0.189 1.2 0 2.084 0.947 2.084 2.084 0 1.137-0.632 2.021-2.147 2.084v0h-6.947v-6.316zM19.137 16.421v6.063h-1.074v-5.937c0.253 0.063 0.505 0.189 0.758 0.316 0.063-0.189 0.189-0.316 0.316-0.442zM17.621 16.421v6.063h-0.758v-6.063c0.063 0 0.189 0 0.253 0 0.253 0 0.379 0 0.505 0zM16.168 16.547v5.937h-0.758v-5.558c0.253-0.126 0.505-0.253 0.758-0.379zM14.716 17.621v4.863h-0.758v-3.663c0.063 0 0.126 0.063 0.126 0.063 0.126-0.442 0.379-0.884 0.632-1.263zM13.263 18.632v3.853h-0.189c-0.189 0-0.379 0-0.568-0.063v-3.726c0.189-0.063 0.379-0.063 0.568-0.063 0.063 0 0.126 0 0.189 0zM11.811 19.074v2.968c-0.442-0.379-0.695-0.884-0.695-1.453 0-0.632 0.253-1.2 0.695-1.516z" fill="#000000" />
</svg>
