<?xml version="1.0" encoding="utf-8"?>
<!-- Generated by IcoMoon.io -->
<!DOCTYPE svg PUBLIC "-//W3C//DTD SVG 1.1//EN" "http://www.w3.org/Graphics/SVG/1.1/DTD/svg11.dtd">
<svg version="1.1" xmlns="http://www.w3.org/2000/svg" xmlns:xlink="http://www.w3.org/1999/xlink" width="36" height="36" viewBox="0 0 36 36">
<g>
</g>
	<path d="M33.537 32.337v-27.663h-27.411v13.832c0 0 0 0 0 0s0 0 0 0v13.832h27.411zM22.863 16.421v1.768h-2.4v2.211c0 0.568 0 0.884 0.063 1.011 0.063 0.126 0.189 0.316 0.379 0.442 0.189 0.126 0.442 0.189 0.695 0.189 0.505 0 0.758-0.063 1.263-0.379v1.453c-0.442 0.189-0.758 0.316-1.074 0.379-0.316 0.063-0.695 0.126-1.074 0.126-0.442 0-0.695-0.063-1.011-0.189-0.316-0.126-0.632-0.253-0.884-0.505-0.253-0.189-0.379-0.442-0.505-0.632-0.063-0.253-0.126-0.568-0.126-1.011v-3.347h-1.263v-1.326c0.379-0.126 0.821-0.316 1.074-0.505 0.253-0.253 0.505-0.505 0.632-0.821 0.189-0.316 0.253-0.695 0.316-1.2h1.516v2.4h2.4z" fill="#000000" />
</svg>
