<?xml version="1.0" encoding="utf-8"?>
<!-- Generated by IcoMoon.io -->
<!DOCTYPE svg PUBLIC "-//W3C//DTD SVG 1.1//EN" "http://www.w3.org/Graphics/SVG/1.1/DTD/svg11.dtd">
<svg version="1.1" xmlns="http://www.w3.org/2000/svg" xmlns:xlink="http://www.w3.org/1999/xlink" width="36" height="36" viewBox="0 0 36 36">
<g>
</g>
	<path d="M25.579 23.684v0c0 0 0 0 0 0v0z" fill="#000000" />
	<path d="M23.684 21.853v0c0 0 0.063 0 0 0v0z" fill="#000000" />
	<path d="M18.505 18.632c0-0.189 0.063-0.379 0.126-0.505l-3.537 5.242 5.242-3.537c-0.126 0.063-0.316 0.126-0.505 0.126-0.695 0-1.326-0.632-1.326-1.326z" fill="#000000" />
	<path d="M19.832 17.305c0.758 0 1.326 0.568 1.326 1.326 0 0.189-0.063 0.316-0.063 0.505l3.537-5.558-5.432 3.916c0.189-0.126 0.379-0.189 0.632-0.189z" fill="#000000" />
	<path d="M6.126 4.674v27.6h27.411v-27.6h-27.411zM19.832 26.274c-4.295 0-7.768-3.474-7.768-7.768s3.474-7.768 7.768-7.768c4.295 0 7.768 3.474 7.768 7.768s-3.474 7.768-7.768 7.768z" fill="#000000" />
</svg>
