<?xml version="1.0" encoding="utf-8"?>
<!-- Generated by IcoMoon.io -->
<!DOCTYPE svg PUBLIC "-//W3C//DTD SVG 1.1//EN" "http://www.w3.org/Graphics/SVG/1.1/DTD/svg11.dtd">
<svg version="1.1" xmlns="http://www.w3.org/2000/svg" xmlns:xlink="http://www.w3.org/1999/xlink" width="36" height="36" viewBox="0 0 36 36">
<g>
</g>
	<path d="M19.088 17.33v4.437c0 1.088 0 1.758 0.084 2.093s0.419 0.67 0.754 0.837c0.419 0.251 0.921 0.419 1.423 0.419 1.005 0 1.591-0.084 2.512-0.754v2.93c-0.837 0.419-1.591 0.586-2.177 0.754-0.67 0.167-1.423 0.251-2.177 0.251-0.921 0-1.423-0.084-2.093-0.335-0.67-0.251-1.256-0.502-1.758-0.921-0.502-0.419-0.837-0.837-1.005-1.34-0.167-0.502-0.251-1.172-0.251-2.009v-6.781h-2.595v-2.846c0.754-0.251 1.591-0.586 2.177-1.088 0.502-0.502 1.005-1.005 1.256-1.674 0.335-0.67 0.586-1.423 0.67-2.428h3.098v4.856h4.856v3.6h-4.772z" fill="#000000" />
</svg>
