<?xml version="1.0" encoding="utf-8"?>
<!-- Generated by IcoMoon.io -->
<!DOCTYPE svg PUBLIC "-//W3C//DTD SVG 1.1//EN" "http://www.w3.org/Graphics/SVG/1.1/DTD/svg11.dtd">
<svg version="1.1" xmlns="http://www.w3.org/2000/svg" xmlns:xlink="http://www.w3.org/1999/xlink" width="37" height="36" viewBox="0 0 37 36">
<g>
</g>
	<path d="M24.043 22.693c0 0.71-0.576 1.286-1.286 1.286s-1.286-0.576-1.286-1.286c0-0.71 0.576-1.286 1.286-1.286 0.71 0 1.286 0.576 1.286 1.286z" fill="#000000" />
	<path d="M18.386 16.393c0 1.101-0.892 1.993-1.993 1.993s-1.993-0.892-1.993-1.993c0-1.101 0.892-1.993 1.993-1.993 1.101 0 1.993 0.892 1.993 1.993z" fill="#000000" />
	<path d="M4.629 4.050v28.157h27.9v-28.157h-27.9zM17.486 21.536l-0.643-0.964h-0.9l-0.643 0.964c-0.643-0.129-1.286-0.386-1.864-0.771l0.064-0.064 0.257-1.157-0.643-0.643-1.157 0.257-0.064 0.064c-0.321-0.514-0.579-1.157-0.771-1.8h0.064l0.964-0.643v-0.9l-0.964-0.643h-0.064c0.129-0.707 0.386-1.35 0.771-1.929l0.064 0.064 1.157 0.257 0.643-0.643-0.257-1.029c0.579-0.386 1.157-0.643 1.864-0.771v0.129l0.643 0.964h0.9l0.643-0.964v-0.129c0.643 0.129 1.286 0.386 1.864 0.771h-0.129l-0.257 1.157 0.643 0.643 1.157-0.257 0.064-0.064c0.386 0.579 0.643 1.221 0.771 1.929h-0.064l-0.964 0.643v0.9l0.964 0.643h0.064c-0.129 0.643-0.386 1.221-0.771 1.8l-0.064-0.064-1.157-0.257-0.643 0.643 0.257 1.157 0.064 0.064c-0.579 0.257-1.221 0.514-1.864 0.643zM26.1 23.336v0l-0.771 0.129-0.193 0.514 0.45 0.643c-0.257 0.386-0.579 0.707-0.964 0.9v-0.064l-0.643-0.45-0.514 0.193-0.129 0.771c-0.45 0.064-0.836 0.064-1.221 0v0l-0.129-0.771-0.514-0.193-0.643 0.45c-0.321-0.257-0.643-0.579-0.9-0.9l0.45-0.643-0.193-0.514-0.707-0.129c-0.064-0.45-0.064-0.9 0-1.286v0l0.771-0.129 0.193-0.514-0.45-0.643c0.257-0.321 0.514-0.643 0.9-0.9v0l0.643 0.45 0.514-0.193 0.129-0.771v-0.064c0.45-0.064 0.9-0.064 1.35 0v0l0.129 0.771 0.514 0.193 0.643-0.45c0.321 0.257 0.643 0.579 0.9 0.9h-0.064l-0.45 0.643 0.193 0.514 0.771 0.129h0.064c0 0.579 0 1.029-0.129 1.414z" fill="#000000" />
</svg>
