<?xml version="1.0" encoding="utf-8"?>
<!-- Generated by IcoMoon.io -->
<!DOCTYPE svg PUBLIC "-//W3C//DTD SVG 1.1//EN" "http://www.w3.org/Graphics/SVG/1.1/DTD/svg11.dtd">
<svg version="1.1" xmlns="http://www.w3.org/2000/svg" xmlns:xlink="http://www.w3.org/1999/xlink" width="35" height="36" viewBox="0 0 35 36">
<g>
</g>
	<path d="M32.4 4.358h-27.411v27.663h27.411v-27.663zM23.937 20.463h-6.568c-0.316 0-0.505-0.189-0.568-0.442-0.063-0.063-0.063-0.063-0.063-0.126l-2.842-5.747h-1.326c-0.316 0-0.632-0.253-0.632-0.632 0-0.316 0.253-0.632 0.632-0.632h1.516c0.253 0 0.505 0.189 0.568 0.442 0 0 0 0 0 0l2.905 5.874h6.379c0.379 0 0.632 0.253 0.632 0.632s-0.253 0.632-0.632 0.632zM24.568 22.042c0 0.505-0.379 0.884-0.884 0.884s-0.884-0.379-0.884-0.884c0-0.505 0.379-0.884 0.884-0.884 0.505 0 0.884 0.379 0.884 0.884zM17.937 22.989c-0.505 0-0.947-0.442-0.947-0.947 0-0.505 0.442-0.947 0.947-0.947s0.947 0.442 0.947 0.947c0 0.568-0.442 0.947-0.947 0.947zM24.253 18.568h-6.253l-1.705-3.916h9.032l-1.074 3.916z" fill="#000000" />
</svg>
