<?xml version="1.0" encoding="utf-8"?>
<!-- Generated by IcoMoon.io -->
<!DOCTYPE svg PUBLIC "-//W3C//DTD SVG 1.1//EN" "http://www.w3.org/Graphics/SVG/1.1/DTD/svg11.dtd">
<svg version="1.1" xmlns="http://www.w3.org/2000/svg" xmlns:xlink="http://www.w3.org/1999/xlink" width="36" height="36" viewBox="0 0 36 36">
<g>
</g>
	<path d="M6.126 32.021h27.411v-27.663h-27.411v27.663zM19.074 16.232c0.379 0.379 0.379 0.947 0 1.326s-0.947 0.379-1.326 0l-3.158-3.158-1.768 1.768v-4.863h4.863l-1.768 1.768 3.158 3.158zM17.684 25.074h-4.863v-4.863l1.768 1.768 3.158-3.158c0.379-0.379 0.947-0.379 1.326 0 0.379 0.379 0.379 0.947 0 1.326l-3.158 3.158 1.768 1.768zM21.789 11.242h4.863v4.863l-1.768-1.768-3.158 3.158c-0.379 0.379-0.947 0.379-1.326 0-0.379-0.379-0.379-0.947 0-1.326l3.158-3.158-1.768-1.768zM20.4 18.821c0.379-0.379 0.947-0.379 1.326 0l3.158 3.158 1.768-1.768v4.863h-4.863l1.768-1.768-3.158-3.158c-0.379-0.379-0.379-0.947 0-1.326z" fill="#000000" />
</svg>
