<?xml version="1.0" encoding="utf-8"?>
<!-- Generated by IcoMoon.io -->
<!DOCTYPE svg PUBLIC "-//W3C//DTD SVG 1.1//EN" "http://www.w3.org/Graphics/SVG/1.1/DTD/svg11.dtd">
<svg version="1.1" xmlns="http://www.w3.org/2000/svg" xmlns:xlink="http://www.w3.org/1999/xlink" width="36" height="36" viewBox="0 0 36 36">
<g>
</g>
	<path d="M32.484 10.716c-0.084-1.172-1.172-2.177-2.512-2.177h-23.526c-1.34 0-2.428 1.005-2.512 2.177l14.316 6.112 14.233-6.112z" fill="#000000" />
	<path d="M18.084 17.916v0 0 0 0l-14.316-6.112v12.977c0 1.34 1.172 2.344 2.595 2.344h19.34l-4.688-4.688h3.265v-3.684c0-0.754 0.67-1.423 1.423-1.423s1.423 0.67 1.423 1.423c0 0 0 0.084 0 0.084v0 3.684h3.265l-4.688 4.688h4.186c1.423 0 2.595-1.088 2.595-2.344v-13.060l-14.4 6.112z" fill="#000000" />
</svg>
