<?xml version="1.0" encoding="utf-8"?>
<!-- Generated by IcoMoon.io -->
<!DOCTYPE svg PUBLIC "-//W3C//DTD SVG 1.1//EN" "http://www.w3.org/Graphics/SVG/1.1/DTD/svg11.dtd">
<svg version="1.1" xmlns="http://www.w3.org/2000/svg" xmlns:xlink="http://www.w3.org/1999/xlink" width="36" height="36" viewBox="0 0 36 36">
<g>
</g>
	<path d="M18.632 18.316c0.063 0 0.126-0.063 0.253-0.063-0.126-0.316-0.316-0.632-0.442-0.947-2.779 0.821-5.432 0.758-5.684 0.758v0.189c0 1.389 0.568 2.716 1.453 3.663 0.063-0.126 1.579-2.653 4.421-3.6z" fill="#000000" />
	<path d="M19.2 19.2c-3.095 1.074-4.232 3.221-4.295 3.411 0.947 0.758 2.084 1.137 3.411 1.137 0.758 0 1.516-0.126 2.147-0.442-0.126-0.442-0.442-2.084-1.263-4.105 0 0 0 0 0 0z" fill="#000000" />
	<path d="M17.937 16.484c-0.884-1.642-1.895-2.968-2.021-3.158-1.516 0.758-2.716 2.147-3.032 3.853 0.189 0 2.463 0 5.053-0.695z" fill="#000000" />
	<path d="M21.916 14.147c-0.947-0.884-2.274-1.389-3.663-1.389-0.442 0-0.884 0.063-1.326 0.126 0.126 0.189 1.137 1.579 2.084 3.221 1.958-0.695 2.779-1.768 2.905-1.958z" fill="#000000" />
	<path d="M19.453 16.989c0.126 0.253 0.253 0.505 0.379 0.821 0.063 0.063 0.063 0.189 0.126 0.253 1.832-0.253 3.663 0.126 3.853 0.189 0-1.326-0.442-2.526-1.263-3.411-0.126 0.126-1.074 1.326-3.095 2.147z" fill="#000000" />
	<path d="M20.274 18.947c0.695 1.958 1.011 3.6 1.074 3.916 1.263-0.821 2.147-2.147 2.4-3.726-0.253 0-1.768-0.442-3.474-0.189z" fill="#000000" />
	<path d="M4.547 4.484v27.663h27.411v-27.663h-27.411zM18.253 24.758c-3.537 0-6.442-2.905-6.442-6.442 0-3.537 2.905-6.442 6.442-6.442 3.537 0 6.442 2.905 6.442 6.442 0 3.537-2.905 6.442-6.442 6.442z" fill="#000000" />
</svg>
