<?xml version="1.0" encoding="utf-8"?>
<!-- Generated by IcoMoon.io -->
<!DOCTYPE svg PUBLIC "-//W3C//DTD SVG 1.1//EN" "http://www.w3.org/Graphics/SVG/1.1/DTD/svg11.dtd">
<svg version="1.1" xmlns="http://www.w3.org/2000/svg" xmlns:xlink="http://www.w3.org/1999/xlink" width="36" height="36" viewBox="0 0 36 36">
<g>
</g>
	<path d="M4.547 31.895h27.411v-27.6h-27.411v27.6zM12.695 19.389c0.189 0.063 0.379 0.063 0.505 0.063 0.253 0 0.505 0 0.758-0.063-1.263-0.253-2.274-1.389-2.274-2.779v0c0.379 0.189 0.821 0.316 1.263 0.316-0.758-0.505-1.263-1.389-1.263-2.337 0-0.505 0.126-1.011 0.379-1.453 1.389 1.705 3.474 2.842 5.811 2.968-0.063-0.189-0.063-0.442-0.063-0.632 0-1.579 1.263-2.842 2.842-2.842 0.821 0 1.516 0.316 2.084 0.884 0.632-0.126 1.263-0.379 1.768-0.695-0.189 0.695-0.632 1.2-1.263 1.579 0.568-0.063 1.137-0.253 1.642-0.442-0.379 0.568-0.884 1.074-1.389 1.453 0 0.126 0 0.253 0 0.379 0 3.726-2.842 8.021-8.021 8.021-1.579 0-3.095-0.442-4.358-1.263 0.253 0.063 0.442 0.063 0.695 0.063 1.326 0 2.526-0.442 3.537-1.2-1.263-0.126-2.274-0.947-2.653-2.021z" fill="#000000" />
</svg>
