<?xml version="1.0" encoding="utf-8"?>
<!-- Generated by IcoMoon.io -->
<!DOCTYPE svg PUBLIC "-//W3C//DTD SVG 1.1//EN" "http://www.w3.org/Graphics/SVG/1.1/DTD/svg11.dtd">
<svg version="1.1" xmlns="http://www.w3.org/2000/svg" xmlns:xlink="http://www.w3.org/1999/xlink" width="35" height="36" viewBox="0 0 35 36">
<g>
</g>
	<path d="M33.095 32.084v-27.663h-27.411v27.663h27.411zM14.968 15.474c-0.758 0-1.2-0.505-1.2-1.137s0.505-1.137 1.2-1.137c0.758 0 1.2 0.505 1.2 1.137 0.063 0.568-0.379 1.137-1.2 1.137zM16.168 16.358v7.389h-2.274v-7.389h2.274zM19.579 17.368v0c0.316-0.505 1.074-1.2 2.337-1.2 1.516 0 2.653 1.011 2.653 3.221v4.358h-2.274v-4.105c0-0.947-0.316-1.579-1.137-1.579-0.632 0-1.011 0.442-1.2 0.884-0.063 0.126-0.063 0.379-0.063 0.568v4.295h-2.274v-5.053c0-0.947 0-1.705-0.063-2.4h2.021v1.011z" fill="#000000" />
</svg>
