<?xml version="1.0" encoding="utf-8"?>
<!-- Generated by IcoMoon.io -->
<!DOCTYPE svg PUBLIC "-//W3C//DTD SVG 1.1//EN" "http://www.w3.org/Graphics/SVG/1.1/DTD/svg11.dtd">
<svg version="1.1" xmlns="http://www.w3.org/2000/svg" xmlns:xlink="http://www.w3.org/1999/xlink" width="35" height="36" viewBox="0 0 35 36">
<g>
</g>
	<path d="M21.032 18.063c-0.316-0.189-0.632-0.379-1.011-0.505-0.379-0.126-0.821-0.253-1.326-0.379-0.379-0.063-0.695-0.189-0.821-0.189-0.189-0.063-0.316-0.126-0.505-0.189-0.126-0.063-0.253-0.189-0.379-0.253-0.063-0.126-0.126-0.189-0.126-0.379 0-0.253 0.126-0.442 0.379-0.632 0.253-0.189 0.632-0.253 1.074-0.253 0.442 0 0.821 0.063 1.011 0.253 0.189 0.189 0.379 0.379 0.568 0.695 0.126 0.253 0.253 0.379 0.379 0.505 0.126 0.126 0.316 0.189 0.505 0.189 0.253 0 0.442-0.063 0.632-0.253 0.189-0.189 0.253-0.379 0.253-0.568 0-0.253-0.063-0.505-0.189-0.695-0.126-0.253-0.316-0.442-0.568-0.695-0.253-0.189-0.632-0.379-1.011-0.505-0.379-0.126-0.884-0.189-1.389-0.189-0.695 0-1.263 0.063-1.768 0.253-0.505 0.189-0.884 0.505-1.2 0.821-0.253 0.379-0.379 0.821-0.379 1.263 0 0.505 0.126 0.884 0.379 1.263 0.253 0.316 0.632 0.568 1.011 0.758 0.442 0.189 0.947 0.316 1.579 0.505 0.442 0.126 0.821 0.189 1.137 0.253 0.253 0.063 0.505 0.189 0.632 0.379 0.189 0.126 0.253 0.316 0.253 0.568 0 0.316-0.126 0.568-0.442 0.758-0.316 0.189-0.695 0.316-1.2 0.316-0.379 0-0.632-0.063-0.884-0.126-0.253-0.126-0.379-0.253-0.505-0.379-0.126-0.189-0.253-0.379-0.316-0.632-0.063-0.253-0.189-0.442-0.379-0.505-0.126-0.126-0.316-0.189-0.505-0.189-0.253 0-0.442 0.063-0.632 0.253-0.189 0.189-0.253 0.379-0.253 0.568 0 0.379 0.126 0.758 0.379 1.137 0.253 0.379 0.568 0.695 1.011 0.884 0.568 0.316 1.326 0.442 2.147 0.442 0.758 0 1.389-0.126 1.895-0.316 0.505-0.253 0.947-0.568 1.2-0.947 0.316-0.379 0.442-0.884 0.442-1.389 0-0.442-0.063-0.821-0.253-1.074-0.316-0.379-0.568-0.632-0.821-0.821z" fill="#000000" />
	<path d="M4.737 4.421v13.832c0 0 0 0 0 0s0 0 0 0v13.832h27.411v-27.663h-27.411zM21.158 24.884c-0.632 0-1.137-0.126-1.642-0.442-0.379 0.063-0.758 0.126-1.137 0.126-3.347 0-6.063-2.779-6.063-6.253 0-0.442 0.063-0.821 0.126-1.263-0.316-0.505-0.505-1.137-0.505-1.832 0-2.021 1.579-3.6 3.537-3.6 0.695 0 1.326 0.189 1.895 0.568 0.316-0.063 0.695-0.063 1.011-0.063 3.347 0 6.063 2.779 6.063 6.253 0 0.442-0.063 0.884-0.126 1.326 0.253 0.505 0.379 1.011 0.379 1.579 0 1.958-1.579 3.6-3.537 3.6z" fill="#000000" />
</svg>
