<?xml version="1.0" encoding="utf-8"?>
<!-- Generated by IcoMoon.io -->
<!DOCTYPE svg PUBLIC "-//W3C//DTD SVG 1.1//EN" "http://www.w3.org/Graphics/SVG/1.1/DTD/svg11.dtd">
<svg version="1.1" xmlns="http://www.w3.org/2000/svg" xmlns:xlink="http://www.w3.org/1999/xlink" width="35" height="36" viewBox="0 0 35 36">
<g>
</g>
	<path d="M21.221 17.937c-1.832-1.137-4.484-1.453-6.632-0.758-0.253 0.063-0.379 0.316-0.316 0.568 0.063 0.253 0.316 0.379 0.568 0.316 1.895-0.568 4.295-0.253 5.874 0.695 0.189 0.126 0.505 0.063 0.632-0.126 0.126-0.316 0.063-0.568-0.126-0.695z" fill="#000000" />
	<path d="M20.526 19.705c-1.579-0.947-3.474-1.137-5.684-0.632-0.189 0.063-0.316 0.253-0.253 0.442 0.063 0.189 0.253 0.316 0.442 0.253 2.021-0.442 3.789-0.253 5.179 0.568 0.189 0.126 0.379 0.063 0.505-0.126 0-0.126-0.063-0.379-0.189-0.505z" fill="#000000" />
	<path d="M14.274 15.032c-0.316 0.063-0.442 0.379-0.379 0.695s0.379 0.442 0.695 0.379c1.832-0.568 4.926-0.442 6.821 0.695 0.253 0.126 0.632 0.063 0.758-0.189 0.126-0.253 0.063-0.568-0.189-0.758-2.211-1.326-5.621-1.453-7.705-0.821z" fill="#000000" />
	<path d="M4.105 4.484v27.663h27.411v-27.663h-27.411zM17.684 24.063c-1.074 0-2.021-0.253-2.905-0.758 0.505-0.632 1.2-0.947 2.021-0.884 1.074 0.063 1.895 0.568 2.337 1.453-0.442 0.126-0.947 0.189-1.453 0.189zM21.095 22.989c-0.821-1.453-2.337-2.337-4.168-2.4-1.453-0.063-2.716 0.505-3.663 1.389-0.947-1.074-1.453-2.4-1.453-3.916 0-3.284 2.653-5.937 5.937-5.937 3.284 0 5.937 2.653 5.937 5.937 0 2.084-1.011 3.853-2.589 4.926z" fill="#000000" />
</svg>
