<?xml version="1.0" encoding="utf-8"?>
<!-- Generated by IcoMoon.io -->
<!DOCTYPE svg PUBLIC "-//W3C//DTD SVG 1.1//EN" "http://www.w3.org/Graphics/SVG/1.1/DTD/svg11.dtd">
<svg version="1.1" xmlns="http://www.w3.org/2000/svg" xmlns:xlink="http://www.w3.org/1999/xlink" width="37" height="36" viewBox="0 0 37 36">
<g>
</g>
	<path d="M9.126 14.986v3.6c2.344 0 4.521 0.921 6.195 2.595 1.674 1.674 2.595 3.851 2.595 6.195h3.6c-0.084-6.614-5.777-12.391-12.391-12.391z" fill="#000000" />
	<path d="M14.065 24.865c0 1.387-1.125 2.512-2.512 2.512s-2.512-1.125-2.512-2.512c0-1.387 1.125-2.512 2.512-2.512 1.387 0 2.512 1.125 2.512 2.512z" fill="#000000" />
	<path d="M9.126 8.623v3.6c8.205 0 15.070 6.781 15.070 15.154h3.6c-0.084-10.298-8.54-18.754-18.67-18.754z" fill="#000000" />
</svg>
