<?xml version="1.0" encoding="utf-8"?>
<!-- Generated by IcoMoon.io -->
<!DOCTYPE svg PUBLIC "-//W3C//DTD SVG 1.1//EN" "http://www.w3.org/Graphics/SVG/1.1/DTD/svg11.dtd">
<svg version="1.1" xmlns="http://www.w3.org/2000/svg" xmlns:xlink="http://www.w3.org/1999/xlink" width="35" height="36" viewBox="0 0 35 36">
<g>
</g>
	<path d="M15.055 27.982c0-0.327 0-1.064 0-2.045-3.436 0.736-4.091-1.636-4.091-1.636-0.573-1.391-1.391-1.8-1.391-1.8-1.145-0.736 0.082-0.736 0.082-0.736 1.227 0.082 1.882 1.227 1.882 1.227 1.064 1.882 2.864 1.309 3.6 0.982 0.082-0.818 0.409-1.309 0.736-1.636-2.7-0.327-5.564-1.391-5.564-6.055 0-1.309 0.491-2.455 1.227-3.273-0.164-0.327-0.573-1.555 0.082-3.273 0 0 1.064-0.327 3.355 1.227 0.982-0.245 2.045-0.409 3.027-0.409 1.064 0 2.045 0.164 3.027 0.409 2.373-1.555 3.355-1.227 3.355-1.227 0.655 1.718 0.245 2.945 0.082 3.273 0.818 0.818 1.227 1.964 1.227 3.273 0 4.664-2.864 5.727-5.564 6.055 0.409 0.409 0.818 1.145 0.818 2.291 0 1.636 0 2.945 0 3.355 0.164 0.327-5.891 0.327-5.891 0z" fill="#000000" />
</svg>
