<?xml version="1.0" encoding="utf-8"?>
<!-- Generated by IcoMoon.io -->
<!DOCTYPE svg PUBLIC "-//W3C//DTD SVG 1.1//EN" "http://www.w3.org/Graphics/SVG/1.1/DTD/svg11.dtd">
<svg version="1.1" xmlns="http://www.w3.org/2000/svg" xmlns:xlink="http://www.w3.org/1999/xlink" width="36" height="36" viewBox="0 0 36 36">
<g>
</g>
	<path d="M33.364 4.050h-27.9v28.157h27.9v-28.157zM17.679 23.657c0-0.964 0.771-1.8 1.8-1.8 0.964 0 1.8 0.771 1.8 1.8 0 0.964-0.771 1.8-1.8 1.8-1.029 0-1.8-0.836-1.8-1.8zM17.679 18.9v-8.164c0-0.964 0.771-1.8 1.8-1.8 0.964 0 1.8 0.771 1.8 1.8v8.164c0 0.964-0.771 1.8-1.8 1.8s-1.8-0.836-1.8-1.8z" fill="#000000" />
</svg>
