<?xml version="1.0" encoding="utf-8"?>
<!-- Generated by IcoMoon.io -->
<!DOCTYPE svg PUBLIC "-//W3C//DTD SVG 1.1//EN" "http://www.w3.org/Graphics/SVG/1.1/DTD/svg11.dtd">
<svg version="1.1" xmlns="http://www.w3.org/2000/svg" xmlns:xlink="http://www.w3.org/1999/xlink" width="35" height="36" viewBox="0 0 35 36">
<g>
</g>
	<path d="M17.937 32.084c0.063 0 0.063 0 0.126 0h13.705v-27.663h-27.474v27.663h13.453c0.063-0.063 0.126 0 0.189 0zM14.905 22.105v-1.263h-2.653v-2.905c0-0.063 0-0.063 0-0.126 0-0.947 0.758-1.705 1.705-1.705 0.632 0 1.2 0.379 1.516 0.884 0.379-0.442 0.947-0.695 1.516-0.695 0.821 0 1.516 0.505 1.895 1.2 0.505-0.442 1.137-0.758 1.895-0.758 1.579 0 2.842 1.263 2.842 2.842 0 0.063 0 0.126 0 0.189v0 4.863h-5.621v-2.526h-3.095zM12.758 14.653c0-0.695 0.568-1.263 1.263-1.263 0.695 0 1.263 0.568 1.263 1.263 0 0.695-0.568 1.263-1.263 1.263-0.695-0.063-1.263-0.632-1.263-1.263zM22.8 14.337c0 1.137-0.947 2.084-2.084 2.084s-2.084-0.947-2.084-2.084c0-1.137 0.947-2.084 2.084-2.084 1.137 0 2.084 0.947 2.084 2.084zM18.505 14.526c0 0.821-0.695 1.516-1.516 1.516-0.821 0-1.516-0.695-1.516-1.516 0-0.821 0.695-1.516 1.516-1.516 0.821 0 1.516 0.695 1.516 1.516z" fill="#000000" />
</svg>
