<?xml version="1.0" encoding="utf-8"?>
<!-- Generated by IcoMoon.io -->
<!DOCTYPE svg PUBLIC "-//W3C//DTD SVG 1.1//EN" "http://www.w3.org/Graphics/SVG/1.1/DTD/svg11.dtd">
<svg version="1.1" xmlns="http://www.w3.org/2000/svg" xmlns:xlink="http://www.w3.org/1999/xlink" width="36" height="36" viewBox="0 0 36 36">
<g>
</g>
	<path d="M8.791 17.916l9.209 9.293v-18.502z" fill="#000000" />
	<path d="M14.4 12.977h-6.195c-2.763 0-5.023 2.26-5.023 5.023s2.26 4.94 5.023 4.94h6.195v-9.963z" fill="#000000" />
	<path d="M32.567 18.502c0 4.354-1.507 8.288-4.019 11.47l-1.507-1.172c2.26-2.846 3.6-6.363 3.6-10.214s-1.34-7.451-3.6-10.298l1.507-1.172c2.428 3.098 4.019 7.033 4.019 11.386z" fill="#000000" />
	<path d="M25.535 9.377l-1.507 1.172c1.758 2.177 2.846 4.94 2.846 7.954 0 2.93-1.005 5.693-2.763 7.87l1.507 1.172c2.009-2.512 3.181-5.609 3.181-9.042-0.084-3.433-1.256-6.614-3.265-9.126z" fill="#000000" />
	<path d="M22.521 11.721l-1.507 1.172c1.256 1.507 2.009 3.516 2.009 5.609 0 2.009-0.67 3.935-1.926 5.442l1.507 1.172c1.423-1.842 2.344-4.102 2.344-6.614 0-2.595-0.921-4.94-2.428-6.781z" fill="#000000" />
	<path d="M25.619 9.963c0 0.509-0.412 0.921-0.921 0.921s-0.921-0.412-0.921-0.921c0-0.509 0.412-0.921 0.921-0.921 0.509 0 0.921 0.412 0.921 0.921z" fill="#000000" />
	<path d="M22.688 12.307c0 0.509-0.412 0.921-0.921 0.921-0.509 0-0.921-0.412-0.921-0.921 0-0.509 0.412-0.921 0.921-0.921 0.509 0 0.921 0.412 0.921 0.921z" fill="#000000" />
	<path d="M28.716 7.619c0 0.509-0.412 0.921-0.921 0.921-0.509 0-0.921-0.412-0.921-0.921 0-0.509 0.412-0.921 0.921-0.921 0.509 0 0.921 0.412 0.921 0.921z" fill="#000000" />
	<path d="M22.856 24.446c0 0.502-0.419 0.921-0.921 0.921s-0.921-0.419-0.921-0.921c0-0.502 0.419-0.921 0.921-0.921 0.502 0 0.921 0.419 0.921 0.921z" fill="#000000" />
	<path d="M25.619 27.042c0 0.509-0.412 0.921-0.921 0.921s-0.921-0.412-0.921-0.921c0-0.509 0.412-0.921 0.921-0.921 0.509 0 0.921 0.412 0.921 0.921z" fill="#000000" />
	<path d="M28.716 29.302c0 0.509-0.412 0.921-0.921 0.921-0.509 0-0.921-0.412-0.921-0.921 0-0.509 0.412-0.921 0.921-0.921 0.509 0 0.921 0.412 0.921 0.921z" fill="#000000" />
</svg>
