<?xml version="1.0" encoding="utf-8"?>
<!-- Generated by IcoMoon.io -->
<!DOCTYPE svg PUBLIC "-//W3C//DTD SVG 1.1//EN" "http://www.w3.org/Graphics/SVG/1.1/DTD/svg11.dtd">
<svg version="1.1" xmlns="http://www.w3.org/2000/svg" xmlns:xlink="http://www.w3.org/1999/xlink" width="36" height="36" viewBox="0 0 36 36">
<g>
</g>
	<path d="M4.821 32.271h27.9v-28.157h-27.9v28.157zM14.85 23.4h7.007c0.9 0 1.607-0.707 1.607-1.607v-2.7c0-0.257 0.257-0.514 0.514-0.514 0.257 0 0.514 0.257 0.514 0.514v3.214c0 1.221-0.964 2.186-2.186 2.186h-8.036c-1.221 0-2.186-0.964-2.186-2.186v-7.007c0-1.221 0.964-2.186 2.186-2.186h3.536c0.257 0 0.514 0.257 0.514 0.514s-0.257 0.514-0.514 0.514c-0.064 0-0.064 0-0.064 0h-2.957c-0.9 0-1.607 0.707-1.607 1.607v5.979c0.064 0.9 0.771 1.671 1.671 1.671zM19.993 13.307c-0.257-0.257-0.257-0.643 0-0.9 0.257-0.257 0.643-0.257 0.9 0l1.607 1.607 1.607-1.607c0.257-0.257 0.643-0.257 0.9 0s0.257 0.643 0 0.9l-1.607 1.607 1.607 1.607c0.257 0.257 0.257 0.643 0 0.9s-0.643 0.257-0.9 0l-1.607-1.607-1.607 1.607c-0.257 0.257-0.643 0.257-0.9 0-0.257-0.257-0.257-0.643 0-0.9l1.607-1.607-1.607-1.607z" fill="#000000" />
</svg>
