<?xml version="1.0" encoding="utf-8"?>
<!-- Generated by IcoMoon.io -->
<!DOCTYPE svg PUBLIC "-//W3C//DTD SVG 1.1//EN" "http://www.w3.org/Graphics/SVG/1.1/DTD/svg11.dtd">
<svg version="1.1" xmlns="http://www.w3.org/2000/svg" xmlns:xlink="http://www.w3.org/1999/xlink" width="36" height="36" viewBox="0 0 36 36">
<g>
</g>
	<path d="M21.6 17.684c0 1.5-1.216 2.716-2.716 2.716s-2.716-1.216-2.716-2.716c0-1.5 1.216-2.716 2.716-2.716 1.5 0 2.716 1.216 2.716 2.716z" fill="#000000" />
	<path d="M5.179 4.358v13.516c0 0.126 0 0.253 0 0.379s0 0.253 0 0.379v13.326h27.411v-27.6h-27.411zM18.884 21.411c-3.537 0-6.758-3.411-6.758-3.411s2.274-4.042 6.758-4.042c4.484 0 6.758 4.042 6.758 4.042s-3.158 3.411-6.758 3.411z" fill="#000000" />
</svg>
