<?xml version="1.0" encoding="utf-8"?>
<!-- Generated by IcoMoon.io -->
<!DOCTYPE svg PUBLIC "-//W3C//DTD SVG 1.1//EN" "http://www.w3.org/Graphics/SVG/1.1/DTD/svg11.dtd">
<svg version="1.1" xmlns="http://www.w3.org/2000/svg" xmlns:xlink="http://www.w3.org/1999/xlink" width="35" height="36" viewBox="0 0 35 36">
<g>
</g>
	<path d="M17.684 20.716l3.663-2.337-3.663-2.4z" fill="#000000" />
	<path d="M5.368 4.421v27.663h27.411v-27.663h-27.411zM25.453 18.379v0c0 1.895-0.189 3.032-0.568 3.663-0.379 0.632-0.758 0.758-1.516 0.821-0.758 0.063-2.716 0.063-4.421 0.063-1.705 0-3.6 0-4.421-0.063-0.758-0.063-1.137-0.189-1.516-0.821-0.379-0.632-0.568-1.705-0.568-3.6v0 0 0c0-1.895 0.189-3.032 0.568-3.663 0.379-0.632 0.758-0.758 1.516-0.821 0.758-0.063 2.716-0.063 4.421-0.063 1.705 0 3.6 0 4.421 0.063 0.758 0.063 1.137 0.189 1.516 0.821 0.379 0.568 0.568 1.642 0.568 3.6v0z" fill="#000000" />
</svg>
