<?xml version="1.0" encoding="utf-8"?>
<!-- Generated by IcoMoon.io -->
<!DOCTYPE svg PUBLIC "-//W3C//DTD SVG 1.1//EN" "http://www.w3.org/Graphics/SVG/1.1/DTD/svg11.dtd">
<svg version="1.1" xmlns="http://www.w3.org/2000/svg" xmlns:xlink="http://www.w3.org/1999/xlink" width="36" height="36" viewBox="0 0 36 36">
<g>
</g>
	<path d="M16.547 18.253h-1.074c-0.253 0-0.442 0.189-0.442 0.442v0.884c0 0.253 0.189 0.442 0.442 0.442h1.074c0.253 0 0.442-0.189 0.442-0.442v-0.884c0.063-0.253-0.189-0.442-0.442-0.442z" fill="#000000" />
	<path d="M20.337 18.063h1.074c0.253 0 0.442-0.189 0.442-0.442v-0.884c0-0.253-0.189-0.442-0.442-0.442h-1.074c-0.253 0-0.442 0.189-0.442 0.442v0.884c0 0.189 0.189 0.442 0.442 0.442z" fill="#000000" />
	<path d="M22.8 18.063h1.074c0.253 0 0.442-0.189 0.442-0.442v-0.884c0-0.253-0.189-0.442-0.442-0.442h-1.074c-0.253 0-0.442 0.189-0.442 0.442v0.884c0 0.189 0.189 0.442 0.442 0.442z" fill="#000000" />
	<path d="M17.937 18.063h1.074c0.253 0 0.442-0.189 0.442-0.442v-0.884c0-0.253-0.189-0.442-0.442-0.442h-1.074c-0.253 0-0.442 0.189-0.442 0.442v0.884c-0.063 0.189 0.126 0.442 0.442 0.442z" fill="#000000" />
	<path d="M19.074 18.253h-1.074c-0.253 0-0.442 0.189-0.442 0.442v0.884c0 0.253 0.189 0.442 0.442 0.442h1.074c0.253 0 0.442-0.189 0.442-0.442v-0.884c0-0.253-0.189-0.442-0.442-0.442z" fill="#000000" />
	<path d="M21.474 18.253h-1.074c-0.253 0-0.442 0.189-0.442 0.442v0.884c0 0.253 0.189 0.442 0.442 0.442h1.074c0.253 0 0.442-0.189 0.442-0.442v-0.884c0.063-0.253-0.189-0.442-0.442-0.442z" fill="#000000" />
	<path d="M16.547 20.211h-1.074c-0.253 0-0.442 0.189-0.442 0.442v0.884c0 0.253 0.189 0.442 0.442 0.442h1.074c0.253 0 0.442-0.189 0.442-0.442v-0.884c0.063-0.189-0.189-0.442-0.442-0.442z" fill="#000000" />
	<path d="M21.474 20.211h-1.074c-0.253 0-0.442 0.189-0.442 0.442v0.884c0 0.253 0.189 0.442 0.442 0.442h1.074c0.253 0 0.442-0.189 0.442-0.442v-0.884c0.063-0.189-0.189-0.442-0.442-0.442z" fill="#000000" />
	<path d="M23.937 18.253h-1.074c-0.253 0-0.442 0.189-0.442 0.442v0.884c0 0.253 0.189 0.442 0.442 0.442h1.074c0.253 0 0.442-0.189 0.442-0.442v-0.884c0-0.253-0.189-0.442-0.442-0.442z" fill="#000000" />
	<path d="M23.937 20.211h-1.074c-0.253 0-0.442 0.189-0.442 0.442v0.884c0 0.253 0.189 0.442 0.442 0.442h1.074c0.253 0 0.442-0.189 0.442-0.442v-0.884c0-0.189-0.189-0.442-0.442-0.442z" fill="#000000" />
	<path d="M19.074 20.211h-1.074c-0.253 0-0.442 0.189-0.442 0.442v0.884c0 0.253 0.189 0.442 0.442 0.442h1.074c0.253 0 0.442-0.189 0.442-0.442v-0.884c0-0.189-0.189-0.442-0.442-0.442z" fill="#000000" />
	<path d="M15.411 18.063h1.074c0.253 0 0.442-0.189 0.442-0.442v-0.884c0-0.253-0.189-0.442-0.442-0.442h-1.074c-0.253 0-0.442 0.189-0.442 0.442v0.884c0 0.189 0.189 0.442 0.442 0.442z" fill="#000000" />
	<path d="M5.937 4.674v27.663h27.411v-27.663h-27.411zM25.263 22.674c0 0.316-0.253 0.505-0.505 0.505h-10.105c-0.316 0-0.505-0.253-0.505-0.505v-7.389c0-0.316 0.253-0.505 0.505-0.505h0.505v-1.2h1.074v1.2h6.884v-1.2h1.074v1.2h0.505c0.316 0 0.505 0.253 0.505 0.505v7.389z" fill="#000000" />
</svg>
