<?xml version="1.0" encoding="utf-8"?>
<!-- Generated by IcoMoon.io -->
<!DOCTYPE svg PUBLIC "-//W3C//DTD SVG 1.1//EN" "http://www.w3.org/Graphics/SVG/1.1/DTD/svg11.dtd">
<svg version="1.1" xmlns="http://www.w3.org/2000/svg" xmlns:xlink="http://www.w3.org/1999/xlink" width="36" height="36" viewBox="0 0 36 36">
<g>
</g>
	<path d="M18.193 4.114h-13.821v28.157h27.9v-28.157h-14.079c0.064 0 0.064 0 0 0 0.064 0 0.064 0 0 0zM24.943 13.95l-4.886 4.886c-0.129 0.129-0.321 0.193-0.514 0.193-0.193 0-0.386-0.064-0.514-0.193l-1.929-1.929c-0.321-0.257-0.321-0.771 0-1.029 0.321-0.321 0.771-0.321 1.029 0l1.414 1.414 4.371-4.371c0.321-0.321 0.771-0.321 1.029 0 0.321 0.257 0.321 0.771 0 1.029zM17.036 13.693c0 0-0.064 0-0.064 0h-2.957c-0.9 0-1.607 0.707-1.607 1.607v5.979c0 0.9 0.707 1.607 1.607 1.607h7.007c0.9 0 1.607-0.707 1.607-1.607v-2.7c0-0.257 0.257-0.514 0.514-0.514s0.514 0.257 0.514 0.514v3.214c0 1.221-0.964 2.186-2.186 2.186h-7.971c-1.221 0-2.186-0.964-2.186-2.186v-6.943c0-1.221 0.964-2.186 2.186-2.186h3.536c0.257 0 0.514 0.257 0.514 0.514s-0.257 0.514-0.514 0.514z" fill="#000000" />
</svg>
