<?xml version="1.0" encoding="utf-8"?>
<!-- Generated by IcoMoon.io -->
<!DOCTYPE svg PUBLIC "-//W3C//DTD SVG 1.1//EN" "http://www.w3.org/Graphics/SVG/1.1/DTD/svg11.dtd">
<svg version="1.1" xmlns="http://www.w3.org/2000/svg" xmlns:xlink="http://www.w3.org/1999/xlink" width="36" height="36" viewBox="0 0 36 36">
<g>
</g>
	<path d="M18.419 23.777c0-0.167 0-0.335-0.084-0.502 0-0.167-0.084-0.251-0.084-0.419 0-0.167-0.084-0.251-0.167-0.419-0.084-0.167-0.167-0.251-0.251-0.335-0.084-0.084-0.167-0.167-0.335-0.335-0.167-0.167-0.251-0.251-0.335-0.251-0.084-0.084-0.167-0.167-0.335-0.335-0.167-0.167-0.251-0.251-0.335-0.251-0.084-0.084-0.167-0.167-0.419-0.251-0.167-0.084-0.251-0.167-0.335-0.251-0.084 0-0.335 0-0.586 0-0.419 0-0.837 0-1.172 0.084-0.419 0.084-0.837 0.167-1.256 0.251-0.419 0.167-0.837 0.335-1.088 0.502-0.335 0.251-0.586 0.502-0.754 0.837-0.251 0.335-0.335 0.754-0.335 1.256 0 0.502 0.084 1.005 0.419 1.34 0.251 0.419 0.586 0.754 1.088 0.921 0.419 0.251 0.921 0.419 1.34 0.502 0.502 0.084 1.005 0.167 1.423 0.167 0.419 0 0.837-0.084 1.256-0.167 0.419-0.084 0.837-0.251 1.172-0.419 0.335-0.167 0.67-0.502 0.837-0.837 0.251-0.167 0.335-0.586 0.335-1.088zM17.079 13.981c0-0.419-0.084-0.921-0.167-1.423-0.167-0.502-0.335-1.005-0.502-1.507-0.251-0.502-0.586-0.837-0.921-1.172-0.419-0.335-0.837-0.502-1.34-0.502-0.67 0-1.256 0.251-1.674 0.754-0.419 0.502-0.586 1.172-0.586 1.842 0 0.335 0.084 0.754 0.167 1.088 0.084 0.419 0.251 0.754 0.419 1.172 0.167 0.419 0.419 0.754 0.67 1.088 0.251 0.335 0.502 0.586 0.921 0.754 0.335 0.167 0.754 0.335 1.088 0.335 0.754 0 1.256-0.251 1.591-0.67 0.167-0.419 0.335-1.005 0.335-1.758zM15.572 8.54h5.023l-1.507 0.921h-1.507c0.586 0.335 1.005 0.837 1.256 1.423 0.251 0.586 0.419 1.256 0.419 1.926 0 0.586-0.084 1.088-0.251 1.507-0.167 0.419-0.419 0.754-0.67 1.088-0.251 0.251-0.502 0.502-0.754 0.754-0.251 0.251-0.502 0.419-0.67 0.67-0.167 0.251-0.251 0.502-0.251 0.754 0 0.167 0.084 0.419 0.167 0.586 0.167 0.167 0.335 0.419 0.502 0.586 0.167 0.167 0.419 0.335 0.67 0.586 0.251 0.167 0.502 0.419 0.754 0.67 0.251 0.251 0.502 0.502 0.67 0.754 0.167 0.251 0.419 0.586 0.502 1.005 0.084 0.419 0.167 0.754 0.167 1.256 0 1.172-0.502 2.26-1.591 3.181-1.172 1.005-2.763 1.507-4.772 1.507-0.419 0-0.921 0-1.34-0.084-0.419-0.084-0.921-0.167-1.423-0.419-0.502-0.167-0.837-0.419-1.256-0.67-0.335-0.251-0.67-0.586-0.837-1.005-0.251-0.419-0.335-0.921-0.335-1.423 0-0.419 0.167-1.005 0.419-1.507 0.251-0.502 0.586-0.921 1.088-1.256 0.502-0.335 1.005-0.586 1.674-0.837 0.586-0.167 1.172-0.335 1.758-0.419 0.586-0.084 1.088-0.167 1.674-0.167-0.502-0.67-0.754-1.172-0.754-1.674 0-0.084 0-0.167 0-0.251 0-0.084 0-0.167 0.084-0.251 0-0.084 0.084-0.167 0.084-0.251 0.084-0.084 0.084-0.167 0.084-0.251-0.335 0-0.586 0.084-0.837 0.084-1.088 0-2.093-0.335-2.93-1.088-0.837-0.754-1.172-1.674-1.172-2.763 0-1.088 0.335-2.009 1.088-2.846 0.754-0.837 1.591-1.34 2.679-1.591 0.67-0.419 1.423-0.502 2.093-0.502zM27.46 11.47v1.423h-2.93v2.93h-1.423v-2.93h-2.93v-1.423h2.93v-2.93h1.423v2.93h2.93z" fill="#000000" />
</svg>
