<?xml version="1.0" encoding="utf-8"?>
<!-- Generated by IcoMoon.io -->
<!DOCTYPE svg PUBLIC "-//W3C//DTD SVG 1.1//EN" "http://www.w3.org/Graphics/SVG/1.1/DTD/svg11.dtd">
<svg version="1.1" xmlns="http://www.w3.org/2000/svg" xmlns:xlink="http://www.w3.org/1999/xlink" width="35" height="36" viewBox="0 0 35 36">
<g>
</g>
	<path d="M28.882 8.427h-22.909c-0.736 0-1.391 0.573-1.391 1.391v15.791c0 0.736 0.573 1.391 1.391 1.391h22.909c0.736 0 1.391-0.573 1.391-1.391v-15.791c0-0.736-0.655-1.391-1.391-1.391zM28.882 24.464c0 0.327-0.164 0.655-0.409 0.818l-2.209-5.645-1.636 0.818-3.927-3.6-2.618 2.455-1.882-0.573-2.536 3.845c0 0.082-1.309-0.082-1.309-0.082l-4.009 3.191h-1.227c-0.655 0-1.227-0.491-1.227-1.145v-13.582c0-0.655 0.573-1.145 1.227-1.145h20.455c0.655 0 1.227 0.491 1.227 1.145v13.5z" fill="#000000" />
	<path d="M14.236 14.482c0 1.22-0.989 2.209-2.209 2.209s-2.209-0.989-2.209-2.209c0-1.22 0.989-2.209 2.209-2.209 1.22 0 2.209 0.989 2.209 2.209z" fill="#000000" />
</svg>
