<?xml version="1.0" encoding="utf-8"?>
<!-- Generated by IcoMoon.io -->
<!DOCTYPE svg PUBLIC "-//W3C//DTD SVG 1.1//EN" "http://www.w3.org/Graphics/SVG/1.1/DTD/svg11.dtd">
<svg version="1.1" xmlns="http://www.w3.org/2000/svg" xmlns:xlink="http://www.w3.org/1999/xlink" width="36" height="36" viewBox="0 0 36 36">
<g>
</g>
	<path d="M7.2 9h12.436c1.718 0 3.109 1.718 3.109 3.764v5.564c0 2.045-1.391 3.764-3.109 3.764h-9.655l-3.845 2.291c-0.245 0.082-0.327 0-0.327-0.245l0.573-2.209c-1.309-0.409-2.291-1.882-2.291-3.6v-5.564c0-2.127 1.391-3.764 3.109-3.764z" fill="#000000" />
	<path d="M28.882 14.482h-4.909c0 0 0 0 0 0v5.564c0 2.045-1.391 3.764-3.109 3.764h-7.445c0 2.045 1.391 3.764 3.109 3.764h9.655l3.845 2.291c0.245 0.082 0.327 0 0.327-0.245l-0.573-2.209c1.309-0.409 2.291-1.882 2.291-3.6v-5.564c-0.164-2.127-1.555-3.764-3.191-3.764z" fill="#000000" />
</svg>
