<?xml version="1.0" encoding="utf-8"?>
<!-- Generated by IcoMoon.io -->
<!DOCTYPE svg PUBLIC "-//W3C//DTD SVG 1.1//EN" "http://www.w3.org/Graphics/SVG/1.1/DTD/svg11.dtd">
<svg version="1.1" xmlns="http://www.w3.org/2000/svg" xmlns:xlink="http://www.w3.org/1999/xlink" width="35" height="36" viewBox="0 0 35 36">
<g>
</g>
	<path d="M23.874 12.884h-11.684c-0.568 0-1.074 0.505-1.074 1.074v5.368c0 0.568 0.505 1.074 1.074 1.074h11.621c0.568 0 1.074-0.505 1.074-1.074v-5.368c0-0.568-0.442-1.074-1.011-1.074z" fill="#000000" />
	<path d="M18.063 4.358c0 0 0 0 0 0-0.063 0-0.063 0-0.126 0h-13.642v27.663h27.411v-27.663h-13.642zM25.895 20.337c0 0.568-0.505 1.074-1.074 1.074h-6.063v1.832h1.895v0.758h-5.179v-0.758h1.705v-1.832h-6.063c-0.568 0-1.074-0.505-1.074-1.074v-7.389c0-0.568 0.505-1.074 1.074-1.074h13.579c0.568 0 1.074 0.505 1.074 1.074v7.389z" fill="#000000" />
</svg>
