<?xml version="1.0" encoding="utf-8"?>
<!-- Generated by IcoMoon.io -->
<!DOCTYPE svg PUBLIC "-//W3C//DTD SVG 1.1//EN" "http://www.w3.org/Graphics/SVG/1.1/DTD/svg11.dtd">
<svg version="1.1" xmlns="http://www.w3.org/2000/svg" xmlns:xlink="http://www.w3.org/1999/xlink" width="37" height="36" viewBox="0 0 37 36">
<g>
</g>
	<path d="M4.629 4.243v28.157h27.9v-28.157h-27.9zM17.614 15.364v5.143c0 0.579-0.514 1.093-1.093 1.093s-1.093-0.514-1.093-1.093v-5.143c0-0.579 0.514-1.093 1.093-1.093 0.643 0 1.093 0.45 1.093 1.093zM19.35 20.507v-5.143c0-0.579 0.514-1.093 1.093-1.093 0.579 0 1.093 0.514 1.093 1.093v5.143c0 0.579-0.514 1.093-1.093 1.093-0.643 0.064-1.093-0.45-1.093-1.093z" fill="#000000" />
</svg>
