<?xml version="1.0" encoding="utf-8"?>
<!-- Generated by IcoMoon.io -->
<!DOCTYPE svg PUBLIC "-//W3C//DTD SVG 1.1//EN" "http://www.w3.org/Graphics/SVG/1.1/DTD/svg11.dtd">
<svg version="1.1" xmlns="http://www.w3.org/2000/svg" xmlns:xlink="http://www.w3.org/1999/xlink" width="37" height="36" viewBox="0 0 37 36">
<g>
</g>
	<path d="M33.879 4.050h-27.9v28.157h27.9v-28.157zM12.921 19.607h-1.35c-0.514 0-0.9-0.257-0.9-0.643s0.386-0.643 0.9-0.643h1.286c0-0.064 0-0.129 0-0.193 0-0.257 0-0.514 0-0.707h-1.286c-0.514 0-0.9-0.257-0.9-0.643 0-0.321 0.386-0.643 0.9-0.643h1.479c0.771-3.857 3.6-6.686 6.943-6.686 1.35 0 2.636 0.45 3.729 1.286-0.193 0.193-0.386 0.386-0.514 0.514-0.129 0.129-0.257 0.257-0.386 0.386-0.836-0.514-1.736-0.836-2.764-0.836-2.764 0-5.079 2.25-5.786 5.271h5.721c0.514 0 0.9 0.257 0.9 0.643 0 0.321-0.386 0.643-0.9 0.643h-5.914c0 0.257 0 0.45 0 0.707 0 0.064 0 0.129 0 0.193h5.914c0.514 0 0.9 0.257 0.9 0.643s-0.386 0.643-0.9 0.643h-5.85c0.579 3.279 2.957 5.786 5.85 5.786 1.093 0 2.186-0.386 3.086-1.029 0.321 0.321 0.579 0.643 0.9 0.9-1.157 0.964-2.571 1.543-4.050 1.543-3.536 0.064-6.493-3.086-7.007-7.136z" fill="#000000" />
</svg>
