<?xml version="1.0" encoding="utf-8"?>
<!-- Generated by IcoMoon.io -->
<!DOCTYPE svg PUBLIC "-//W3C//DTD SVG 1.1//EN" "http://www.w3.org/Graphics/SVG/1.1/DTD/svg11.dtd">
<svg version="1.1" xmlns="http://www.w3.org/2000/svg" xmlns:xlink="http://www.w3.org/1999/xlink" width="36" height="36" viewBox="0 0 36 36">
<g>
</g>
	<path d="M14.779 16.674l4.042 2.589 4.105-2.589-4.105-2.653z" fill="#000000" />
	<path d="M5.116 4.232v27.663h12.821c0.316 0 0.568 0.063 0.884 0.063 0.316 0 0.568 0 0.884-0.063h12.821v-27.663h-27.411zM23.179 22.168l-4.358 2.716-4.358-2.716v-0.632l1.705 1.137c0.063 0.063 0.126 0.063 0.189 0.063s0.126 0 0.189-0.063l2.274-1.895 2.274 1.895c0.063 0.063 0.126 0.063 0.189 0.063s0.126 0 0.189-0.063l1.705-1.074v0.568zM25.453 18.695l-4.042 2.653-2.526-2.084-2.526 2.084-4.105-2.653 2.526-2.021-2.842-2.337 4.105-2.589 2.779 2.274 2.842-2.274 4.105 2.589-2.842 2.337 2.526 2.021z" fill="#000000" />
</svg>
