<?xml version="1.0" encoding="utf-8"?>
<!-- Generated by IcoMoon.io -->
<!DOCTYPE svg PUBLIC "-//W3C//DTD SVG 1.1//EN" "http://www.w3.org/Graphics/SVG/1.1/DTD/svg11.dtd">
<svg version="1.1" xmlns="http://www.w3.org/2000/svg" xmlns:xlink="http://www.w3.org/1999/xlink" width="35" height="36" viewBox="0 0 35 36">
<g>
</g>
	<path d="M22.674 13.137h-1.011c-0.189 0-0.316 0.126-0.316 0.316v1.011c0 0.189 0.126 0.316 0.316 0.316h1.011c0.189 0 0.316-0.126 0.316-0.316v-1.011c0-0.189-0.126-0.316-0.316-0.316z" fill="#000000" />
	<path d="M4.295 4.295v27.663h27.411v-27.663h-27.411zM23.937 22.168c0 1.011-0.821 1.832-1.832 1.832h-8.147c-1.011 0-1.832-0.821-1.832-1.832v-4.737h2.4c-0.063 0.253-0.063 0.442-0.063 0.695 0 1.958 1.579 3.6 3.6 3.6 1.958 0 3.6-1.579 3.6-3.6 0-0.253 0-0.442-0.063-0.695h2.4v4.737zM15.853 18.063c0-1.2 1.011-2.211 2.211-2.211s2.211 1.011 2.211 2.211c0 1.2-1.011 2.211-2.211 2.211-1.263 0-2.211-0.947-2.211-2.211zM23.937 16.042h-2.968c-0.632-0.884-1.705-1.516-2.905-1.516s-2.274 0.632-2.905 1.516h-2.968v-2.021c0-1.011 0.821-1.832 1.832-1.832h8.084c1.011 0 1.832 0.821 1.832 1.832v2.021z" fill="#000000" />
</svg>
