<?xml version="1.0" encoding="utf-8"?>
<!-- Generated by IcoMoon.io -->
<!DOCTYPE svg PUBLIC "-//W3C//DTD SVG 1.1//EN" "http://www.w3.org/Graphics/SVG/1.1/DTD/svg11.dtd">
<svg version="1.1" xmlns="http://www.w3.org/2000/svg" xmlns:xlink="http://www.w3.org/1999/xlink" width="37" height="36" viewBox="0 0 37 36">
<g>
</g>
	<path d="M5.207 32.207h27.9v-28.157h-27.9v28.157zM12.664 17.936c0.964 0 1.864 1.029 2.314 2.507-0.321 0.707-0.514 1.479-0.643 2.379h-4.307c0-2.7 1.221-4.886 2.636-4.886zM10.671 15.107c0-1.029 0.836-1.864 1.864-1.864s1.864 0.836 1.864 1.864c0 1.029-0.836 1.864-1.864 1.864s-1.864-0.836-1.864-1.864zM23.271 22.821c-0.129-0.9-0.386-1.671-0.643-2.379 0.45-1.479 1.286-2.507 2.314-2.507 1.479 0 2.636 2.186 2.636 4.886h-4.307zM23.271 15.107c0-1.029 0.836-1.864 1.864-1.864 1.029 0 1.864 0.836 1.864 1.864 0 1.029-0.836 1.864-1.864 1.864-1.029 0-1.864-0.836-1.864-1.864zM21.536 14.271c0 1.479-1.221 2.7-2.7 2.7s-2.7-1.221-2.7-2.7 1.221-2.7 2.7-2.7c1.479 0 2.7 1.221 2.7 2.7zM18.836 17.807c2.121 0 3.793 3.214 3.793 7.136h-7.65c0-3.986 1.736-7.136 3.857-7.136z" fill="#000000" />
</svg>
