<?xml version="1.0" encoding="utf-8"?>
<!-- Generated by IcoMoon.io -->
<!DOCTYPE svg PUBLIC "-//W3C//DTD SVG 1.1//EN" "http://www.w3.org/Graphics/SVG/1.1/DTD/svg11.dtd">
<svg version="1.1" xmlns="http://www.w3.org/2000/svg" xmlns:xlink="http://www.w3.org/1999/xlink" width="36" height="36" viewBox="0 0 36 36">
<g>
</g>
	<path d="M27.726 12.189h-15.789c-0.505 0-0.947 0.379-0.947 0.884v10.484c0 0.505 0.442 0.884 0.947 0.884h0.947l3.095-2.463c0 0 1.011 0.189 1.011 0.063l1.958-2.968 1.453 0.442 2.021-1.895 3.032 2.779 1.263-0.632 1.705 4.358c0.189-0.189 0.316-0.379 0.316-0.632v-10.421c-0.126-0.505-0.505-0.884-1.011-0.884zM15.6 17.495c-0.947 0-1.705-0.758-1.705-1.705s0.758-1.705 1.705-1.705c0.947 0 1.705 0.758 1.705 1.705s-0.758 1.705-1.705 1.705z" fill="#000000" />
	<path d="M6.126 4.484v27.663h27.411v-27.663h-27.411zM29.684 24.379c0 0.568-0.442 1.074-1.074 1.074h-17.684c-0.568 0-1.074-0.442-1.074-1.074v-12.189c0-0.568 0.442-1.074 1.074-1.074h17.684c0.568 0 1.074 0.442 1.074 1.074v12.189z" fill="#000000" />
</svg>
