<?xml version="1.0" encoding="utf-8"?>
<!-- Generated by IcoMoon.io -->
<!DOCTYPE svg PUBLIC "-//W3C//DTD SVG 1.1//EN" "http://www.w3.org/Graphics/SVG/1.1/DTD/svg11.dtd">
<svg version="1.1" xmlns="http://www.w3.org/2000/svg" xmlns:xlink="http://www.w3.org/1999/xlink" width="36" height="36" viewBox="0 0 36 36">
<g>
</g>
	<path d="M25.936 12.436l1.473-1.473-2.045-2.045-1.473 1.473-0.573-0.573c-0.573-0.573-1.473-0.573-2.045 0l-12.273 12.273c-0.573 0.573-0.573 1.473 0 2.045l2.782 2.782c0.573 0.573 1.473 0.573 2.045 0l12.273-12.273c0.573-0.573 0.573-1.473 0-2.045l-0.164-0.164zM24.791 14.482l-11.209 11.209c-0.491 0.491-1.309 0.491-1.8 0l-1.391-1.391c-0.491-0.491-0.491-1.309 0-1.8l11.209-11.209c0.491-0.491 1.309-0.491 1.8 0l1.391 1.391c0.491 0.491 0.491 1.309 0 1.8z" fill="#000000" />
</svg>
