<?xml version="1.0" encoding="utf-8"?>
<!-- Generated by IcoMoon.io -->
<!DOCTYPE svg PUBLIC "-//W3C//DTD SVG 1.1//EN" "http://www.w3.org/Graphics/SVG/1.1/DTD/svg11.dtd">
<svg version="1.1" xmlns="http://www.w3.org/2000/svg" xmlns:xlink="http://www.w3.org/1999/xlink" width="36" height="36" viewBox="0 0 36 36">
<g>
</g>
	<path d="M23.777 14.567h-8.288v-3.265c0-0.502 0.419-0.921 0.921-0.921h3.516c0.502 0 0.921 0.419 0.921 0.921v0.67h2.009v-0.837c0-1.591-1.256-2.846-2.846-2.846h-3.767c-1.591 0-2.846 1.256-2.846 2.846v3.433h-0.921c-1.005 0-1.842 0.837-1.842 1.842v9.042c0 1.005 0.837 1.842 1.842 1.842h11.219c1.005 0 1.842-0.837 1.842-1.842v-9.042c0.167-1.005-0.67-1.842-1.758-1.842zM18.921 20.846v2.512h-1.507v-2.512c-0.67-0.335-1.088-0.921-1.088-1.674 0-1.005 0.837-1.842 1.842-1.842s1.842 0.837 1.842 1.842c0 0.754-0.419 1.34-1.088 1.674z" fill="#000000" />
	<path d="M22.856 11.888c0 0.555-0.45 1.005-1.005 1.005-0.555 0-1.005-0.45-1.005-1.005 0-0.555 0.45-1.005 1.005-1.005 0.555 0 1.005 0.45 1.005 1.005z" fill="#000000" />
</svg>
