<?xml version="1.0" encoding="utf-8"?>
<!-- Generated by IcoMoon.io -->
<!DOCTYPE svg PUBLIC "-//W3C//DTD SVG 1.1//EN" "http://www.w3.org/Graphics/SVG/1.1/DTD/svg11.dtd">
<svg version="1.1" xmlns="http://www.w3.org/2000/svg" xmlns:xlink="http://www.w3.org/1999/xlink" width="36" height="36" viewBox="0 0 36 36">
<g>
</g>
	<path d="M4.019 20.093c0 0.921 0.419 1.758 1.088 2.344v-4.688c-0.67 0.586-1.088 1.423-1.088 2.344zM6.279 17.163v5.86c0.251 0.084 0.586 0.084 0.837 0.084h0.335v-6.112c-0.084 0-0.167 0-0.335 0-0.251 0-0.586 0.084-0.837 0.167zM8.874 17.498c-0.084-0.084-0.167-0.084-0.251-0.167v5.777h1.172v-7.702c-0.502 0.67-0.837 1.34-0.921 2.093zM10.967 14.316v8.791h1.172v-9.377c-0.502 0.167-0.837 0.419-1.172 0.586zM13.228 13.563v9.628h1.172v-9.544c-0.251 0-0.502-0.084-0.754-0.084-0.084 0-0.251 0-0.419 0zM16.242 14.233c-0.419-0.251-0.754-0.419-1.256-0.502v9.46h1.758v-9.628c-0.167 0.167-0.419 0.419-0.502 0.67zM17.33 12.977v10.214h10.967c2.344-0.167 3.349-1.591 3.349-3.349 0-1.842-1.423-3.349-3.265-3.349-0.502 0-0.921 0.084-1.34 0.251-0.335-2.93-2.763-5.274-5.86-5.274-1.423 0-2.846 0.586-3.851 1.507z" fill="#000000" />
</svg>
