<?xml version="1.0" encoding="utf-8"?>
<!-- Generated by IcoMoon.io -->
<!DOCTYPE svg PUBLIC "-//W3C//DTD SVG 1.1//EN" "http://www.w3.org/Graphics/SVG/1.1/DTD/svg11.dtd">
<svg version="1.1" xmlns="http://www.w3.org/2000/svg" xmlns:xlink="http://www.w3.org/1999/xlink" width="36" height="36" viewBox="0 0 36 36">
<g>
</g>
	<path d="M26.018 18.9c-0.491 0.082-0.9 0.164-1.391 0.164-2.373 0-4.173-1.636-4.173-4.5 0-1.391 0.573-2.127 1.309-2.127 0.736 0 1.227 0.655 1.227 1.964 0 0.736-0.164 1.555-0.327 2.045 0 0 0.736 1.227 2.7 0.9 0.409-0.9 0.655-2.127 0.655-3.191 0-2.864-1.473-4.5-4.091-4.5-2.7 0-4.336 2.127-4.336 4.827 0 2.7 1.309 5.073 3.355 6.136-0.9 1.8-2.045 3.355-3.191 4.5-2.127-2.618-4.091-6.055-4.827-12.764h-3.191c1.473 11.209 5.809 14.809 6.955 15.464 0.655 0.409 1.227 0.409 1.8 0 0.9-0.491 3.764-3.355 5.318-6.627 0.655 0 1.473-0.082 2.209-0.245v-2.045z" fill="#000000" />
</svg>
