<?xml version="1.0" encoding="utf-8"?>
<!-- Generated by IcoMoon.io -->
<!DOCTYPE svg PUBLIC "-//W3C//DTD SVG 1.1//EN" "http://www.w3.org/Graphics/SVG/1.1/DTD/svg11.dtd">
<svg version="1.1" xmlns="http://www.w3.org/2000/svg" xmlns:xlink="http://www.w3.org/1999/xlink" width="36" height="36" viewBox="0 0 36 36">
<g>
</g>
	<path d="M13.898 8.874h8.288v10.633h-8.288v-10.633z" fill="#000000" />
	<path d="M26.791 15.907h-2.846v5.274h-11.888v-5.274h-2.595c-0.921 0-1.591 0.754-1.591 1.591v8.372c0 0.921 0.754 1.591 1.591 1.591h17.33c0.921 0 1.591-0.754 1.591-1.591v-8.372c0-0.921-0.754-1.591-1.591-1.591zM9.963 26.037c-0.586 0-1.005-0.419-1.005-1.005s0.419-1.005 1.005-1.005c0.586 0 1.005 0.419 1.005 1.005 0 0.586-0.502 1.005-1.005 1.005z" fill="#000000" />
</svg>
