<?xml version="1.0" encoding="utf-8"?>
<!-- Generated by IcoMoon.io -->
<!DOCTYPE svg PUBLIC "-//W3C//DTD SVG 1.1//EN" "http://www.w3.org/Graphics/SVG/1.1/DTD/svg11.dtd">
<svg version="1.1" xmlns="http://www.w3.org/2000/svg" xmlns:xlink="http://www.w3.org/1999/xlink" width="37" height="36" viewBox="0 0 37 36">
<g>
</g>
	<path d="M18.837 19.591l0.837-0.754 1.423 0.335 0.084 0.084c0.419-0.67 0.754-1.423 0.921-2.26h-0.084l-1.256-0.754v-1.088l1.256-0.754h0.084c-0.167-0.837-0.502-1.674-1.005-2.428l-0.084 0.084-1.423 0.335-0.754-0.837 0.335-1.423 0.084-0.084c-0.67-0.419-1.507-0.754-2.344-1.005v0l-0.837 1.256h-1.088l-0.837-1.256v-0.167c-0.837 0.167-1.674 0.502-2.344 1.005l0.084 0.084 0.335 1.423-0.837 0.837-1.423-0.335-0.084-0.084c-0.502 0.754-0.837 1.507-1.005 2.428h0.084l1.256 0.754v1.088l-1.256 0.754h-0.084c0.167 0.837 0.502 1.591 0.921 2.26l0.084-0.084 1.423-0.335 0.837 0.837-0.335 1.423-0.084 0.084c0.67 0.419 1.507 0.837 2.344 1.005l0.754-1.256h1.088l0.754 1.256c0.837-0.167 1.674-0.502 2.344-1.005l-0.084-0.084-0.084-1.34zM15.488 18c-1.423 0-2.512-1.088-2.512-2.512s1.172-2.512 2.512-2.512 2.512 1.088 2.512 2.512c0 1.34-1.088 2.512-2.512 2.512z" fill="#000000" />
	<path d="M27.879 22.688h-0.084l-0.921-0.167-0.251-0.67 0.586-0.754h0.084c-0.335-0.502-0.67-0.837-1.172-1.172v0l-0.754 0.502-0.67-0.251-0.167-0.921c-0.502-0.084-1.088-0.084-1.674 0v0.084l-0.167 0.921-0.67 0.251-0.754-0.586c-0.419 0.335-0.837 0.67-1.088 1.088v0l0.502 0.754-0.251 0.67-0.921 0.167c-0.084 0.502-0.084 1.088 0 1.591l0.921 0.167 0.251 0.67-0.586 0.754c0.335 0.502 0.67 0.837 1.172 1.172v0l0.754-0.502 0.67 0.251 0.167 0.921c0.502 0.084 1.088 0.084 1.591 0v0l0.167-0.921 0.67-0.251 0.754 0.586v0.084c0.502-0.335 0.921-0.754 1.172-1.172v0l-0.502-0.754 0.251-0.67 0.921-0.167c0.084-0.586 0.084-1.172 0-1.674zM24.195 24.949c-0.837 0.335-1.758-0.084-2.093-0.921s0.084-1.758 0.921-2.093c0.837-0.335 1.758 0.084 2.093 0.921 0.335 0.837-0.084 1.758-0.921 2.093z" fill="#000000" />
</svg>
