<?xml version="1.0" encoding="utf-8"?>
<!-- Generated by IcoMoon.io -->
<!DOCTYPE svg PUBLIC "-//W3C//DTD SVG 1.1//EN" "http://www.w3.org/Graphics/SVG/1.1/DTD/svg11.dtd">
<svg version="1.1" xmlns="http://www.w3.org/2000/svg" xmlns:xlink="http://www.w3.org/1999/xlink" width="36" height="36" viewBox="0 0 36 36">
<g>
</g>
	<path d="M15.873 15.955l-1.555 4.418 4.5-1.473z" fill="#000000" />
	<path d="M29.945 7.773c0.736-0.818 0.736-2.127-0.082-2.864-0.818-0.818-2.045-0.818-2.945-0.082l3.027 2.945z" fill="#000000" />
	<path d="M27.756 5.691l-10.586 10.589-0.868-0.868 10.586-10.589 0.868 0.868z" fill="#000000" />
	<path d="M28.906 6.88l-10.587 10.587-1.099-1.099 10.587-10.587 1.099 1.099z" fill="#000000" />
	<path d="M29.89 7.738l-10.587 10.587-0.926-0.926 10.587-10.587 0.926 0.926z" fill="#000000" />
	<path d="M25.118 18.491c-0.491 0-0.818 0.409-0.818 0.818h1.718c-0.082-0.409-0.409-0.818-0.9-0.818z" fill="#000000" />
	<path d="M24.3 19.391v4.5c0 1.473-1.227 2.7-2.7 2.7h-11.7c-1.473 0-2.7-1.227-2.7-2.7v-9.982c0-1.473 1.227-2.7 2.7-2.7h4.909c0.082 0 0.082 0 0.164 0 0.491 0 0.818-0.409 0.818-0.818 0-0.491-0.409-0.818-0.818-0.818h-5.809c-1.964 0-3.6 1.636-3.6 3.6v11.536c0 1.964 1.636 3.6 3.6 3.6h13.255c1.964 0 3.6-1.636 3.6-3.6v-5.318h-1.718z" fill="#000000" />
</svg>
