<?xml version="1.0" encoding="utf-8"?>
<!-- Generated by IcoMoon.io -->
<!DOCTYPE svg PUBLIC "-//W3C//DTD SVG 1.1//EN" "http://www.w3.org/Graphics/SVG/1.1/DTD/svg11.dtd">
<svg version="1.1" xmlns="http://www.w3.org/2000/svg" xmlns:xlink="http://www.w3.org/1999/xlink" width="37" height="36" viewBox="0 0 37 36">
<g>
</g>
	<path d="M27.879 16.242c0 0 0 0 0 0 0-4.186-3.265-7.535-7.284-7.535-3.265 0-6.028 2.177-6.949 5.191-0.335-0.084-0.754-0.084-1.088-0.084-3.014 0-5.442 2.846-5.442 5.86 0 0.167 0-0.167 0 0.921v0c-1.758 0-3.181 1.423-3.181 3.265 0 1.591 1.005 3.181 2.595 3.181h16.912v-3.349h-2.93l4.019-4.019 4.019 4.019h-2.93v3.349h4.102c1.842-1.088 3.181-3.014 3.181-5.191 0-2.846-2.177-5.442-5.023-5.609z" fill="#000000" />
</svg>
