<?xml version="1.0" encoding="utf-8"?>
<!-- Generated by IcoMoon.io -->
<!DOCTYPE svg PUBLIC "-//W3C//DTD SVG 1.1//EN" "http://www.w3.org/Graphics/SVG/1.1/DTD/svg11.dtd">
<svg version="1.1" xmlns="http://www.w3.org/2000/svg" xmlns:xlink="http://www.w3.org/1999/xlink" width="36" height="36" viewBox="0 0 36 36">
<g>
</g>
	<path d="M9.712 24.865v-16.409h-2.009v18.754h19.674v-2.344z" fill="#000000" />
	<path d="M25.786 8.456l-3.851 1.256 1.758 0.837-1.172 2.26-1.926-1.34c-0.167-0.167-0.419-0.167-0.67-0.167-0.419 0-0.837 0.251-1.005 0.754v0c-0.084 0.084-0.084 0.167-0.084 0.335l-1.172 3.935-2.093-0.67c0 0 0 0-0.084 0v0 0c-0.084 0-0.167 0-0.167 0s-0.084 0-0.084 0c0 0-0.084 0-0.084 0-0.084 0-0.084 0-0.167 0 0 0 0 0-0.084 0-0.084 0-0.084 0-0.167 0.084 0 0 0 0 0 0-0.167 0.084-0.419 0.251-0.502 0.502l-2.846 4.856c-0.335 0.502-0.167 1.172 0.335 1.423h0.084c0.502 0.335 1.172 0.167 1.423-0.335l2.428-4.019 2.428 0.754c0.586 0.167 1.172-0.167 1.34-0.67l0.084-0.167c0-0.084 0-0.167 0.084-0.251l1.005-3.433 1.591 1.088c0.167 0.167 0.419 0.167 0.67 0.167 0.419 0 0.837-0.167 1.005-0.586l1.758-3.516 1.591 0.837-1.423-3.935z" fill="#000000" />
</svg>
