<?xml version="1.0" encoding="utf-8"?>
<!-- Generated by IcoMoon.io -->
<!DOCTYPE svg PUBLIC "-//W3C//DTD SVG 1.1//EN" "http://www.w3.org/Graphics/SVG/1.1/DTD/svg11.dtd">
<svg version="1.1" xmlns="http://www.w3.org/2000/svg" xmlns:xlink="http://www.w3.org/1999/xlink" width="37" height="36" viewBox="0 0 37 36">
<g>
</g>
	<path d="M24.028 14.651h-0.921v-3.433c0-1.591-1.256-2.846-2.846-2.846h-3.684c-1.591 0-2.846 1.256-2.846 2.846v3.433h-0.921c-1.005 0-1.842 0.837-1.842 1.842v9.042c0 1.005 0.837 1.842 1.842 1.842h11.219c1.005 0 1.842-0.837 1.842-1.842v-9.042c0.084-1.005-0.837-1.842-1.842-1.842zM19.172 20.846v2.512h-1.591v-2.512c-0.67-0.335-1.088-0.921-1.088-1.674 0-1.005 0.837-1.842 1.842-1.842 1.005 0 1.842 0.837 1.842 1.842 0.084 0.754-0.335 1.34-1.005 1.674zM21.098 14.651h-5.442v-3.265c0-0.502 0.419-0.921 0.921-0.921h3.516c0.502 0 0.921 0.419 0.921 0.921v3.265z" fill="#000000" />
</svg>
