<?xml version="1.0" encoding="utf-8"?>
<!-- Generated by IcoMoon.io -->
<!DOCTYPE svg PUBLIC "-//W3C//DTD SVG 1.1//EN" "http://www.w3.org/Graphics/SVG/1.1/DTD/svg11.dtd">
<svg version="1.1" xmlns="http://www.w3.org/2000/svg" xmlns:xlink="http://www.w3.org/1999/xlink" width="36" height="36" viewBox="0 0 36 36">
<g>
</g>
	<path d="M13.091 9c1.555 0 2.782 1.227 2.782 2.782v13.009c0 1.555-1.227 2.782-2.782 2.782v0c-1.555 0-2.782-1.227-2.782-2.782v-13.009c0-1.555 1.227-2.782 2.782-2.782v0z" fill="#000000" />
	<path d="M22.909 9c1.555 0 2.782 1.227 2.782 2.782v13.009c0 1.555-1.227 2.782-2.782 2.782v0c-1.555 0-2.782-1.227-2.782-2.782v-13.009c0-1.555 1.227-2.782 2.782-2.782v0z" fill="#000000" />
</svg>
