<?xml version="1.0" encoding="utf-8"?>
<!-- Generated by IcoMoon.io -->
<!DOCTYPE svg PUBLIC "-//W3C//DTD SVG 1.1//EN" "http://www.w3.org/Graphics/SVG/1.1/DTD/svg11.dtd">
<svg version="1.1" xmlns="http://www.w3.org/2000/svg" xmlns:xlink="http://www.w3.org/1999/xlink" width="35" height="36" viewBox="0 0 35 36">
<g>
</g>
	<path d="M25.773 18.491c-0.491 0-0.818 0.409-0.818 0.818h1.718c-0.082-0.409-0.409-0.818-0.9-0.818z" fill="#000000" />
	<path d="M24.955 19.309v4.5c0 1.473-1.227 2.7-2.7 2.7h-11.618c-1.473 0-2.7-1.227-2.7-2.7v-9.9c0-1.473 1.227-2.7 2.7-2.7h4.827c0.082 0 0.082 0 0.164 0 0.491 0 0.818-0.409 0.818-0.818 0-0.491-0.409-0.818-0.818-0.818h-5.809c-1.964 0-3.6 1.555-3.6 3.6v11.455c0 1.964 1.555 3.6 3.6 3.6h13.255c1.964 0 3.6-1.555 3.6-3.6v-5.236h-1.718z" fill="#000000" />
	<path d="M28.718 9.9c-0.491-0.491-1.227-0.491-1.718 0l-7.2 7.2-2.291-2.291c-0.491-0.491-1.227-0.491-1.718 0-0.491 0.491-0.491 1.227 0 1.718l3.191 3.191c0.245 0.245 0.573 0.327 0.9 0.327s0.655-0.082 0.9-0.327l8.018-8.018c0.409-0.491 0.409-1.309-0.082-1.8z" fill="#000000" />
</svg>
