<?xml version="1.0" encoding="utf-8"?>
<!-- Generated by IcoMoon.io -->
<!DOCTYPE svg PUBLIC "-//W3C//DTD SVG 1.1//EN" "http://www.w3.org/Graphics/SVG/1.1/DTD/svg11.dtd">
<svg version="1.1" xmlns="http://www.w3.org/2000/svg" xmlns:xlink="http://www.w3.org/1999/xlink" width="36" height="36" viewBox="0 0 36 36">
<g>
</g>
	<path d="M20.536 16.364l-1.227 1.227c-0.164 0.164-0.491 0.082-0.655 0.245 0.736 1.309 0.818 3.273-0.327 4.418l-4.336 4.336c-1.391 1.391-3.518 1.391-4.909 0-1.391-1.391-1.391-3.518 0-4.909l4.091-4.091c-0.082-0.164-0.164-0.327-0.245-0.573-0.082-0.082-0.164-0.164-0.327-0.245-0.164-0.164-0.245-0.245-0.327-0.409-0.164 0.082-0.327 0.164-0.491 0.164l-4.255 4.255c-2.045 2.045-2.045 5.318 0 7.364 2.045 2.045 5.318 2.045 7.364 0l5.155-5.155c1.8-1.718 1.964-4.582 0.491-6.627z" fill="#000000" />
	<path d="M13.336 17.182c0 0.497-0.403 0.9-0.9 0.9-0.497 0-0.9-0.403-0.9-0.9 0-0.497 0.403-0.9 0.9-0.9 0.497 0 0.9 0.403 0.9 0.9z" fill="#000000" />
	<path d="M20.7 17.1c0 0.633-0.513 1.145-1.145 1.145s-1.145-0.513-1.145-1.145c0-0.633 0.513-1.145 1.145-1.145 0.633 0 1.145 0.513 1.145 1.145z" fill="#000000" />
	<path d="M16.609 21.109c0.082-0.082 0.245-0.245 0.327-0.327 0 0 0-0.082 0.082-0.082-1.145-1.391-1.064-3.355 0.164-4.664l4.336-4.336c1.391-1.391 3.518-1.391 4.909 0 1.391 1.391 1.391 3.518 0 4.909l-4.336 4.336c0.409 0.409 0.982 0.655 1.145 1.227 0 0 0.082 0 0.082 0l4.745-4.745c2.045-2.045 2.045-5.318 0-7.364-2.045-2.045-5.318-2.045-7.364 0l-5.155 5.155c-1.964 1.964-2.045 4.991-0.245 7.036 0.409-0.327 0.9-0.736 1.309-1.145z" fill="#000000" />
	<path d="M23.645 21.6c0 0.497-0.403 0.9-0.9 0.9s-0.9-0.403-0.9-0.9c0-0.497 0.403-0.9 0.9-0.9 0.497 0 0.9 0.403 0.9 0.9z" fill="#000000" />
	<path d="M16.936 22.255c-0.491 0.491-1.227 0.491-1.636 0-0.491-0.491-0.491-1.227 0-1.636 0.491-0.491 1.227-0.491 1.636 0 0.409 0.491 0.409 1.227 0 1.636z" fill="#000000" />
</svg>
