<?xml version="1.0" encoding="utf-8"?>
<!-- Generated by IcoMoon.io -->
<!DOCTYPE svg PUBLIC "-//W3C//DTD SVG 1.1//EN" "http://www.w3.org/Graphics/SVG/1.1/DTD/svg11.dtd">
<svg version="1.1" xmlns="http://www.w3.org/2000/svg" xmlns:xlink="http://www.w3.org/1999/xlink" width="36" height="36" viewBox="0 0 36 36">
<g>
</g>
	<path d="M29.386 10.716h-0.419v-1.507h-3.265v1.507h-19.256c-1.172 0-2.093 0.921-2.093 2.093v11.637c0 1.172 0.921 2.093 2.093 2.093h23.023c1.172 0 2.093-0.921 2.093-2.093v-11.637c-0.084-1.088-1.005-2.093-2.177-2.093zM17.833 23.023c-2.595 0-4.688-2.093-4.688-4.688 0-2.595 2.093-4.688 4.688-4.688 2.595 0 4.688 2.093 4.688 4.688 0.084 2.595-2.093 4.688-4.688 4.688z" fill="#000000" />
</svg>
