<?xml version="1.0" encoding="utf-8"?>
<!-- Generated by IcoMoon.io -->
<!DOCTYPE svg PUBLIC "-//W3C//DTD SVG 1.1//EN" "http://www.w3.org/Graphics/SVG/1.1/DTD/svg11.dtd">
<svg version="1.1" xmlns="http://www.w3.org/2000/svg" xmlns:xlink="http://www.w3.org/1999/xlink" width="36" height="36" viewBox="0 0 36 36">
<g>
</g>
	<path d="M19.591 17.665c0 0.879-0.712 1.591-1.591 1.591-0.879 0-1.591-0.712-1.591-1.591 0-0.879 0.712-1.591 1.591-1.591 0.879 0 1.591 0.712 1.591 1.591z" fill="#000000" />
	<path d="M18 8.121c-5.274 0-9.544 4.27-9.544 9.544 0 5.274 4.27 9.544 9.544 9.544s9.544-4.27 9.544-9.544c0.084-5.274-4.186-9.544-9.544-9.544zM19.172 18.754l-7.033 4.772 4.772-7.033 7.033-5.023-4.772 7.284z" fill="#000000" />
</svg>
