<?xml version="1.0" encoding="utf-8"?>
<!-- Generated by IcoMoon.io -->
<!DOCTYPE svg PUBLIC "-//W3C//DTD SVG 1.1//EN" "http://www.w3.org/Graphics/SVG/1.1/DTD/svg11.dtd">
<svg version="1.1" xmlns="http://www.w3.org/2000/svg" xmlns:xlink="http://www.w3.org/1999/xlink" width="36" height="36" viewBox="0 0 36 36">
<g>
</g>
	<path d="M27.544 16.326c0 0 0-0.084 0 0 0-4.102-3.265-7.451-7.284-7.451-3.265 0-6.028 2.177-6.949 5.191-0.335-0.084-0.754-0.084-1.088-0.084-3.014 0-5.442 2.763-5.442 5.86 0 0.167 0-0.167 0 0.921v0c-1.758 0-3.181 1.423-3.181 3.265 0 1.591 1.005 3.181 2.595 3.181h18l-4.019-4.019h2.93v-4.27c0-0.586 0.502-1.088 1.088-1.088s1.088 0.502 1.088 1.088v4.27h2.93l-4.019 4.019h5.191c1.842-1.088 3.181-3.014 3.181-5.191 0.084-3.014-2.177-5.609-5.023-5.693z" fill="#000000" />
</svg>
