<?xml version="1.0" encoding="utf-8"?>
<!-- Generated by IcoMoon.io -->
<!DOCTYPE svg PUBLIC "-//W3C//DTD SVG 1.1//EN" "http://www.w3.org/Graphics/SVG/1.1/DTD/svg11.dtd">
<svg version="1.1" xmlns="http://www.w3.org/2000/svg" xmlns:xlink="http://www.w3.org/1999/xlink" width="35" height="36" viewBox="0 0 35 36">
<g>
</g>
	<path d="M14.716 21.726c0 0.384-0.311 0.695-0.695 0.695-0.384 0-0.695-0.311-0.695-0.695 0-0.384 0.311-0.695 0.695-0.695 0.384 0 0.695 0.311 0.695 0.695z" fill="#000000" />
	<path d="M5.684 4.421v27.663h27.411v-27.663h-27.411zM16.611 11.053h5.432v7.011h-5.432v-7.011zM26.147 22.232c0 0.568-0.442 1.074-1.074 1.074h-11.368c-0.568 0-1.074-0.505-1.074-1.074v-5.495c0-0.568 0.505-1.074 1.074-1.074h1.705v3.474h7.832v-3.474h1.832c0.568 0 1.074 0.505 1.074 1.074v5.495z" fill="#000000" />
</svg>
