<?xml version="1.0" encoding="utf-8"?>
<!-- Generated by IcoMoon.io -->
<!DOCTYPE svg PUBLIC "-//W3C//DTD SVG 1.1//EN" "http://www.w3.org/Graphics/SVG/1.1/DTD/svg11.dtd">
<svg version="1.1" xmlns="http://www.w3.org/2000/svg" xmlns:xlink="http://www.w3.org/1999/xlink" width="35" height="36" viewBox="0 0 35 36">
<g>
</g>
	<path d="M25.445 9.409l-7.773-0.409-8.1 8.1c-0.573 0.573-0.573 1.473 0 2.045l6.136 6.136c0.573 0.573 1.473 0.573 2.045 0l8.1-8.1-0.409-7.773zM21.682 13.173c-0.409-0.409-0.409-1.064 0-1.473 0.409-0.409 1.064-0.409 1.473 0 0.409 0.409 0.409 1.064 0 1.473-0.409 0.409-1.064 0.409-1.473 0z" fill="#000000" />
	<path d="M25.691 19.064l-8.018 8.018c-0.573 0.573-1.473 0.573-2.045 0l-5.973-5.973-0.164 0.164c-0.573 0.573-0.573 1.473 0 2.045l6.136 6.136c0.573 0.573 1.473 0.573 2.045 0l8.1-8.1-0.082-2.291z" fill="#000000" />
</svg>
