<?xml version="1.0" encoding="utf-8"?>
<!-- Generated by IcoMoon.io -->
<!DOCTYPE svg PUBLIC "-//W3C//DTD SVG 1.1//EN" "http://www.w3.org/Graphics/SVG/1.1/DTD/svg11.dtd">
<svg version="1.1" xmlns="http://www.w3.org/2000/svg" xmlns:xlink="http://www.w3.org/1999/xlink" width="35" height="36" viewBox="0 0 35 36">
<g>
</g>
	<path d="M4.105 31.895h27.411v-27.6h-27.411v27.6zM14.716 15.916h1.263c0 0 0-1.453 0-1.768 0-0.316-0.063-2.463 2.716-2.463 0.379 0 1.2 0 1.958 0 0 0.947 0 1.958 0 2.211-0.568 0-1.137 0-1.453 0-0.316 0-0.568 0.316-0.568 0.505 0 0.189 0 1.453 0 1.453s1.768 0 2.021 0c-0.063 1.137-0.253 2.147-0.253 2.147h-1.768v6.379h-2.653v-6.253h-1.263v-2.211z" fill="#000000" />
</svg>
