<?xml version="1.0" encoding="utf-8"?>
<!-- Generated by IcoMoon.io -->
<!DOCTYPE svg PUBLIC "-//W3C//DTD SVG 1.1//EN" "http://www.w3.org/Graphics/SVG/1.1/DTD/svg11.dtd">
<svg version="1.1" xmlns="http://www.w3.org/2000/svg" xmlns:xlink="http://www.w3.org/1999/xlink" width="36" height="36" viewBox="0 0 36 36">
<g>
</g>
	<path d="M18.568 23.242c-0.189 0.253-0.316 0.379-0.505 0.379-0.126 0-0.189-0.063-0.189-0.189 0 0 0-0.126 0-0.316v-3.095h-0.758v3.347c0 0.316 0.063 0.505 0.063 0.632 0.063 0.189 0.253 0.316 0.505 0.316 0.253 0 0.568-0.189 0.884-0.505v0.442h0.758v-4.232h-0.758v3.221z" fill="#000000" />
	<path d="M20.779 23.811c0.253 0.316 0.505 0.442 0.821 0.442s0.505-0.126 0.632-0.442c0.063-0.189 0.063-0.442 0.063-0.821v-1.705c0-0.379 0-0.695-0.063-0.821-0.126-0.316-0.316-0.505-0.632-0.505-0.253 0-0.568 0.189-0.821 0.442v-1.832h-0.758v5.621h0.758v-0.379zM20.905 20.779c0.126-0.126 0.253-0.189 0.379-0.189 0.253 0 0.316 0.189 0.316 0.568v1.768c0 0.379-0.126 0.568-0.316 0.568-0.126 0-0.253-0.063-0.379-0.189v-2.526z" fill="#000000" />
	<path d="M14.4 19.389h0.884v4.863h0.821v-4.863h0.947v-0.821h-2.653z" fill="#000000" />
	<path d="M24 24.253c0.379 0 0.695-0.126 0.947-0.442 0.063-0.126 0.126-0.316 0.189-0.442 0-0.063 0-0.253 0-0.505v-0.126h-0.758c0 0.316 0 0.442 0 0.505-0.063 0.189-0.126 0.316-0.316 0.316-0.253 0-0.379-0.189-0.379-0.568v-0.758h1.516v-0.821c0-0.442-0.063-0.758-0.253-1.011-0.189-0.316-0.505-0.442-0.884-0.442-0.379 0-0.695 0.126-0.947 0.442-0.126 0.189-0.253 0.568-0.253 1.011v1.453c0 0.442 0.063 0.758 0.253 1.011 0.189 0.253 0.505 0.379 0.884 0.379zM23.684 21.158c0-0.379 0.126-0.568 0.379-0.568 0.253 0 0.379 0.189 0.379 0.568v0.379h-0.758v-0.379z" fill="#000000" />
	<path d="M19.579 15.726c0.253 0 0.379-0.189 0.379-0.568v-1.768c0-0.379-0.126-0.568-0.379-0.568-0.253 0-0.379 0.189-0.379 0.568v1.705c0 0.379 0.126 0.632 0.379 0.632z" fill="#000000" />
	<path d="M33.284 17.368v-12.947h-27.411v27.663h27.411v-12.947c0-0.316 0.063-0.568 0.063-0.884s0-0.568-0.063-0.884zM21.347 12.063h0.758v3.095c0 0.189 0 0.253 0 0.316 0 0.126 0.063 0.189 0.189 0.189 0.126 0 0.316-0.126 0.505-0.379v-3.284h0.758v4.358h-0.758v-0.442c-0.316 0.379-0.568 0.505-0.884 0.505-0.253 0-0.442-0.126-0.505-0.316-0.063-0.126-0.063-0.316-0.063-0.632v-3.411zM18.442 13.453c0-0.442 0.063-0.821 0.253-1.011 0.189-0.316 0.505-0.442 0.884-0.442 0.379 0 0.695 0.126 0.884 0.442 0.126 0.189 0.253 0.568 0.253 1.011v1.516c0 0.442-0.063 0.758-0.253 1.011-0.189 0.316-0.505 0.442-0.884 0.442-0.379 0-0.695-0.126-0.884-0.442-0.189-0.189-0.253-0.568-0.253-1.011v-1.516zM16.358 10.611l0.632 2.274 0.568-2.274h0.884l-1.011 3.411v2.337h-0.821v-2.337c-0.063-0.442-0.253-1.011-0.505-1.832-0.189-0.505-0.379-1.074-0.568-1.579h0.821zM25.832 24.442c-0.126 0.695-0.695 1.137-1.389 1.263-1.579 0.189-3.158 0.189-4.737 0.189-1.579 0-3.158 0-4.737-0.189-0.632-0.063-1.2-0.568-1.389-1.263-0.126-0.947-0.126-1.958-0.126-2.968 0-1.011 0-2.021 0.189-2.968 0.126-0.695 0.695-1.2 1.389-1.263 1.579-0.189 3.158-0.189 4.737-0.189 1.579 0 3.158 0 4.737 0.189 0.632 0.063 1.2 0.568 1.389 1.263 0.189 0.947 0.189 1.958 0.189 2.968-0.063 1.011-0.063 2.021-0.253 2.968z" fill="#000000" />
</svg>
