<?xml version="1.0" encoding="utf-8"?>
<!-- Generated by IcoMoon.io -->
<!DOCTYPE svg PUBLIC "-//W3C//DTD SVG 1.1//EN" "http://www.w3.org/Graphics/SVG/1.1/DTD/svg11.dtd">
<svg version="1.1" xmlns="http://www.w3.org/2000/svg" xmlns:xlink="http://www.w3.org/1999/xlink" width="35" height="36" viewBox="0 0 35 36">
<g>
</g>
	<path d="M4.737 31.895h27.411v-27.6h-27.411v27.6zM17.621 11.811c2.842-0.316 5.558 1.074 5.937 3.726 0.442 3.032-1.263 6.316-4.358 6.126-0.821-0.063-1.2-0.505-1.832-0.884-0.379 1.895-0.821 3.663-2.084 4.611-0.379-2.842 0.568-4.989 1.074-7.263-0.758-1.326 0.126-3.979 1.768-3.284 2.021 0.821-1.768 4.863 0.758 5.368 2.653 0.568 3.726-4.611 2.084-6.253-2.4-2.4-6.947-0.063-6.379 3.411 0.126 0.821 1.011 1.074 0.379 2.274-1.516-0.316-1.958-1.516-1.895-3.158 0-2.589 2.274-4.421 4.547-4.674z" fill="#000000" />
</svg>
