<?xml version="1.0" encoding="utf-8"?>
<!-- Generated by IcoMoon.io -->
<!DOCTYPE svg PUBLIC "-//W3C//DTD SVG 1.1//EN" "http://www.w3.org/Graphics/SVG/1.1/DTD/svg11.dtd">
<svg version="1.1" xmlns="http://www.w3.org/2000/svg" xmlns:xlink="http://www.w3.org/1999/xlink" width="37" height="36" viewBox="0 0 37 36">
<g>
</g>
	<path d="M34.136 3.986h-27.9v28.157h27.9v-28.157zM14.336 19.864c-0.386 0-0.707-0.321-0.707-0.707s0.321-0.707 0.707-0.707h1.157v-0.9h-1.157c-0.386 0-0.707-0.321-0.707-0.707s0.321-0.707 0.707-0.707h1.157v-2.893c0-2.379 1.929-4.307 4.307-4.307h0.964c1.157 0 2.186 0.45 2.957 1.221-0.386 0.386-0.707 0.707-1.093 1.093-0.579-0.514-1.221-0.771-1.993-0.771h-0.707c-1.8 0-3.279 1.607-3.279 3.6v2.057h3.729c0.386 0 0.707 0.321 0.707 0.707s-0.321 0.707-0.707 0.707h-3.729v0.9h3.729c0.386 0 0.707 0.321 0.707 0.707s-0.321 0.707-0.707 0.707h-3.729v2.7c0 0.257 0.064 0.514 0.064 0.771h8.357v1.221h-9.579v-4.757h-1.157z" fill="#000000" />
</svg>
