<?xml version="1.0" encoding="utf-8"?>
<!-- Generated by IcoMoon.io -->
<!DOCTYPE svg PUBLIC "-//W3C//DTD SVG 1.1//EN" "http://www.w3.org/Graphics/SVG/1.1/DTD/svg11.dtd">
<svg version="1.1" xmlns="http://www.w3.org/2000/svg" xmlns:xlink="http://www.w3.org/1999/xlink" width="36" height="36" viewBox="0 0 36 36">
<g>
</g>
	<path d="M21.086 18c0 1.598-1.295 2.893-2.893 2.893s-2.893-1.295-2.893-2.893c0-1.598 1.295-2.893 2.893-2.893 1.598 0 2.893 1.295 2.893 2.893z" fill="#000000" />
	<path d="M4.179 4.050v28.157h27.9v-28.157h-27.9zM25.586 19.607v0c-0.129 0.9-0.514 1.8-1.029 2.571l-0.064-0.064-1.671-0.386-0.9 0.9 0.386 1.671 0.064 0.064c-0.771 0.514-1.671 0.9-2.636 1.093l-0.9-1.414h-1.286l-0.9 1.414c-0.964-0.193-1.864-0.579-2.636-1.093l0.064-0.064 0.386-1.671-0.964-0.836-1.671 0.386-0.064 0.064c-0.514-0.771-0.9-1.607-1.093-2.571h0.064l1.414-0.9v-1.286l-1.414-0.9h-0.064c0.193-0.964 0.579-1.929 1.093-2.764l0.064 0.064 1.671 0.321 0.9-0.9-0.386-1.671-0.064-0.064c0.771-0.514 1.671-0.9 2.636-1.093v0.129l0.9 1.414h1.286l0.9-1.414v-0.129c0.964 0.193 1.864 0.579 2.636 1.093v0.064l-0.386 1.671 0.9 0.9 1.671-0.386 0.064-0.064c0.514 0.836 0.9 1.736 1.093 2.764h-0.064l-1.414 0.9v1.286l1.414 0.9z" fill="#000000" />
</svg>
