<?xml version="1.0" encoding="utf-8"?>
<!-- Generated by IcoMoon.io -->
<!DOCTYPE svg PUBLIC "-//W3C//DTD SVG 1.1//EN" "http://www.w3.org/Graphics/SVG/1.1/DTD/svg11.dtd">
<svg version="1.1" xmlns="http://www.w3.org/2000/svg" xmlns:xlink="http://www.w3.org/1999/xlink" width="37" height="36" viewBox="0 0 37 36">
<g>
</g>
	<path d="M23.777 14.484h-5.86l2.177-2.177 1.591-1.507 2.093-2.177z" fill="#000000" />
	<path d="M24.865 18.502c0 0-0.084 0 0 0 0 1.758-0.586 3.433-1.926 4.688-2.512 2.512-6.53 2.512-9.042 0-2.512-2.512-2.512-6.53 0-9.042 1.674-1.674 3.935-2.177 6.028-1.674 0.084 0 0.167-0.084 0.335-0.084 0.586-0.586 1.172-1.256 1.758-1.842-3.265-1.423-7.2-0.837-9.879 1.842-3.433 3.433-3.433 9.042 0 12.558 3.433 3.433 9.042 3.433 12.558 0 1.758-1.758 2.595-4.102 2.595-6.446h-2.428z" fill="#000000" />
	<path d="M27.293 18.502c0 0.694-0.562 1.256-1.256 1.256s-1.256-0.562-1.256-1.256c0-0.694 0.562-1.256 1.256-1.256 0.694 0 1.256 0.562 1.256 1.256z" fill="#000000" />
</svg>
