<?xml version="1.0" encoding="utf-8"?>
<!-- Generated by IcoMoon.io -->
<!DOCTYPE svg PUBLIC "-//W3C//DTD SVG 1.1//EN" "http://www.w3.org/Graphics/SVG/1.1/DTD/svg11.dtd">
<svg version="1.1" xmlns="http://www.w3.org/2000/svg" xmlns:xlink="http://www.w3.org/1999/xlink" width="37" height="36" viewBox="0 0 37 36">
<g>
</g>
	<path d="M34.136 4.243h-27.9v28.157h27.9v-28.157zM16.521 24.493v0l-0.771 0.771-0.771-0.771c0 0 0 0 0 0l-1.414-1.414c-0.45-0.45-0.45-1.093 0-1.543l2.25-2.25c0.45-0.45 1.093-0.45 1.543 0l0.836 0.836 3.793-3.793-0.836-0.836c-0.45-0.45-0.45-1.093 0-1.543l2.25-2.25c0.45-0.45 1.093-0.45 1.543 0l1.414 1.414c0 0 0 0.064 0.064 0.064l0.707 0.707-0.771 0.771c0 0 0 0 0 0l-2.25 2.314c0 0 0 0 0 0l-5.336 5.336-2.25 2.186z" fill="#000000" />
</svg>
