<?xml version="1.0" encoding="utf-8"?>
<!-- Generated by IcoMoon.io -->
<!DOCTYPE svg PUBLIC "-//W3C//DTD SVG 1.1//EN" "http://www.w3.org/Graphics/SVG/1.1/DTD/svg11.dtd">
<svg version="1.1" xmlns="http://www.w3.org/2000/svg" xmlns:xlink="http://www.w3.org/1999/xlink" width="36" height="36" viewBox="0 0 36 36">
<g>
</g>
	<path d="M26.456 20.093c0.167-0.586 0.167-1.256 0.167-1.926 0-4.94-3.851-8.958-8.707-8.958-0.502 0-1.005 0.084-1.507 0.167-0.754-0.502-1.674-0.754-2.679-0.754-2.763 0-5.023 2.344-5.023 5.191 0 0.921 0.251 1.842 0.67 2.595-0.084 0.586-0.167 1.172-0.167 1.842 0 4.94 3.935 8.958 8.707 8.958 0.502 0 1.088-0.084 1.591-0.167 0.67 0.419 1.507 0.586 2.344 0.586 2.763 0 5.023-2.344 5.023-5.191 0.084-0.837-0.084-1.674-0.419-2.344zM22.437 22.437c-0.419 0.586-1.005 1.088-1.758 1.423-0.754 0.335-1.674 0.502-2.679 0.502-1.256 0-2.26-0.251-3.098-0.67-0.586-0.335-1.088-0.754-1.423-1.34-0.335-0.586-0.586-1.088-0.586-1.591 0-0.335 0.084-0.586 0.335-0.837 0.251-0.251 0.502-0.335 0.921-0.335 0.251 0 0.586 0.084 0.754 0.251 0.167 0.167 0.335 0.419 0.502 0.754 0.167 0.335 0.335 0.67 0.502 0.921 0.167 0.251 0.419 0.419 0.754 0.586 0.335 0.167 0.754 0.251 1.256 0.251 0.754 0 1.34-0.167 1.758-0.502 0.419-0.335 0.67-0.67 0.67-1.088 0-0.335-0.084-0.67-0.335-0.837-0.251-0.251-0.586-0.419-0.921-0.502-0.419-0.167-0.921-0.251-1.591-0.419-0.921-0.167-1.674-0.419-2.26-0.67-0.67-0.251-1.172-0.67-1.507-1.088-0.419-0.502-0.586-1.088-0.586-1.758 0-0.67 0.167-1.256 0.586-1.842 0.419-0.502 0.921-0.921 1.674-1.172 0.754-0.251 1.591-0.419 2.512-0.419 0.754 0 1.423 0.084 2.009 0.251 0.586 0.167 1.088 0.419 1.423 0.754 0.335 0.335 0.67 0.67 0.837 1.005 0.167 0.335 0.251 0.67 0.251 1.005 0 0.335-0.084 0.586-0.335 0.837-0.251 0.251-0.502 0.419-0.921 0.419-0.335 0-0.586-0.084-0.754-0.251-0.167-0.167-0.335-0.419-0.502-0.754-0.251-0.419-0.502-0.754-0.754-1.005-0.335-0.251-0.754-0.335-1.423-0.335-0.67 0-1.172 0.167-1.507 0.419-0.335 0.251-0.502 0.502-0.502 0.837 0 0.167 0.084 0.335 0.167 0.502 0.084 0.167 0.335 0.335 0.502 0.419 0.251 0.084 0.502 0.167 0.67 0.251 0.251 0.084 0.67 0.167 1.172 0.335 0.67 0.167 1.34 0.335 1.926 0.502 0.586 0.167 1.088 0.419 1.507 0.67 0.419 0.251 0.754 0.67 1.005 1.088 0.251 0.419 0.335 0.921 0.335 1.591 0 0.586-0.167 1.256-0.586 1.842z" fill="#000000" />
</svg>
