<?xml version="1.0" encoding="utf-8"?>
<!-- Generated by IcoMoon.io -->
<!DOCTYPE svg PUBLIC "-//W3C//DTD SVG 1.1//EN" "http://www.w3.org/Graphics/SVG/1.1/DTD/svg11.dtd">
<svg version="1.1" xmlns="http://www.w3.org/2000/svg" xmlns:xlink="http://www.w3.org/1999/xlink" width="35" height="36" viewBox="0 0 35 36">
<g>
</g>
	<path d="M4.105 32.337h27.411v-27.663h-27.411v27.663zM23.621 13.389l0.758 0.695-8.526 8.526-0.758-0.758 8.526-8.463zM15.095 21.789l-0.884-0.884 8.526-8.526 0.884 0.884-8.526 8.526zM24.379 14.021l-2.337-2.337c0.632-0.632 1.705-0.632 2.337 0.063 0.632 0.632 0.632 1.642 0 2.274zM22.674 12.379l-8.526 8.526-0.695-0.695 8.526-8.526 0.695 0.695zM15.411 22.989l-3.6 1.263 1.263-3.6 2.337 2.337z" fill="#000000" />
</svg>
