<?xml version="1.0" encoding="utf-8"?>
<!-- Generated by IcoMoon.io -->
<!DOCTYPE svg PUBLIC "-//W3C//DTD SVG 1.1//EN" "http://www.w3.org/Graphics/SVG/1.1/DTD/svg11.dtd">
<svg version="1.1" xmlns="http://www.w3.org/2000/svg" xmlns:xlink="http://www.w3.org/1999/xlink" width="36" height="36" viewBox="0 0 36 36">
<g>
</g>
	<path d="M33.284 4.358h-27.411v27.663h27.411v-27.663zM12.758 23.116v-11.432h1.389v11.305h12.253v1.642h-13.642v-1.516zM22.232 17.242c0.189-0.126 0.379-0.189 0.568-0.189l1.2-3.347c-0.253-0.189-0.379-0.505-0.379-0.884 0-0.632 0.505-1.137 1.137-1.137 0.632 0 1.137 0.505 1.137 1.137s-0.505 1.137-1.137 1.137c0 0 0 0 0 0l-1.2 3.284c0.253 0.189 0.442 0.505 0.442 0.884 0 0.632-0.505 1.137-1.137 1.137s-1.137-0.505-1.137-1.137c0-0.126 0-0.189 0.063-0.316l-2.905-1.958c-0.126 0.063-0.189 0.063-0.316 0.063l-1.011 2.968c0.253 0.189 0.379 0.505 0.379 0.821 0 0.632-0.505 1.137-1.137 1.137-0.632 0-1.137-0.505-1.137-1.137s0.505-1.137 1.137-1.137c0 0 0 0 0.063 0l1.011-2.905c-0.253-0.189-0.442-0.505-0.442-0.884 0-0.632 0.505-1.137 1.137-1.137 0.632 0 1.137 0.505 1.137 1.137 0 0.189-0.063 0.379-0.126 0.505l2.653 1.958z" fill="#000000" />
</svg>
