<?xml version="1.0" encoding="utf-8"?>
<!-- Generated by IcoMoon.io -->
<!DOCTYPE svg PUBLIC "-//W3C//DTD SVG 1.1//EN" "http://www.w3.org/Graphics/SVG/1.1/DTD/svg11.dtd">
<svg version="1.1" xmlns="http://www.w3.org/2000/svg" xmlns:xlink="http://www.w3.org/1999/xlink" width="37" height="36" viewBox="0 0 37 36">
<g>
</g>
	<path d="M6.236 32.4h27.9v-28.157h-27.9v28.157zM13.114 17.871c0-1.221 1.029-2.25 2.25-2.25h2.507l1.929-1.929v8.357l-1.929-1.929h-2.507c-1.221 0-2.25-1.029-2.25-2.25zM22.564 21.664c0.771-0.964 1.221-2.186 1.221-3.536 0-1.35-0.45-2.636-1.286-3.6v0c-0.064-0.064-0.129-0.193-0.129-0.257 0-0.257 0.193-0.45 0.45-0.45 0.129 0 0.257 0.064 0.321 0.193v0c0.9 1.093 1.479 2.571 1.479 4.114 0 1.543-0.514 2.957-1.414 4.050v0c-0.064 0.129-0.193 0.193-0.386 0.193-0.257 0-0.45-0.193-0.45-0.45 0-0.064 0.064-0.193 0.193-0.257v0zM23.85 22.693c1.029-1.286 1.607-2.893 1.607-4.629s-0.643-3.343-1.607-4.629v0c-0.064-0.064-0.064-0.129-0.064-0.257 0-0.257 0.193-0.45 0.45-0.45 0.129 0 0.257 0.064 0.321 0.129v0c1.157 1.414 1.8 3.214 1.8 5.143s-0.707 3.729-1.8 5.143c-0.064 0.064-0.193 0.129-0.321 0.129-0.257 0-0.45-0.193-0.45-0.45 0 0.064 0 0 0.064-0.129v0zM21.471 14.85c0.129 0 0.257 0.064 0.321 0.129v0c0.707 0.836 1.093 1.929 1.093 3.086 0 1.157-0.386 2.186-1.029 3.021-0.064 0.064-0.193 0.129-0.321 0.129-0.257 0-0.45-0.193-0.45-0.45 0-0.064 0-0.193 0.064-0.257v0c0.514-0.707 0.836-1.543 0.836-2.443 0-0.964-0.321-1.864-0.9-2.507v0c-0.064-0.064-0.064-0.129-0.064-0.257 0.064-0.257 0.257-0.45 0.45-0.45z" fill="#000000" />
</svg>
