<?xml version="1.0" encoding="utf-8"?>
<!-- Generated by IcoMoon.io -->
<!DOCTYPE svg PUBLIC "-//W3C//DTD SVG 1.1//EN" "http://www.w3.org/Graphics/SVG/1.1/DTD/svg11.dtd">
<svg version="1.1" xmlns="http://www.w3.org/2000/svg" xmlns:xlink="http://www.w3.org/1999/xlink" width="37" height="36" viewBox="0 0 37 36">
<g>
</g>
	<path d="M18.419 27.544c-5.274 0-9.544-4.27-9.544-9.544s4.27-9.544 9.544-9.544c5.274 0 9.544 4.27 9.544 9.544 0 5.274-4.27 9.544-9.544 9.544zM26.456 19.34c-0.251-0.084-2.512-0.754-5.107-0.335 1.088 2.93 1.507 5.274 1.591 5.777 1.842-1.256 3.098-3.181 3.516-5.442zM21.6 25.535c-0.084-0.67-0.586-3.181-1.758-6.195 0 0 0 0-0.084 0-4.605 1.591-6.195 4.772-6.363 5.107 1.34 1.088 3.098 1.758 5.023 1.758 1.088-0.084 2.177-0.335 3.181-0.67zM12.391 23.442c0.167-0.335 2.428-4.019 6.614-5.358 0.084 0 0.251-0.084 0.335-0.084-0.167-0.419-0.419-0.921-0.67-1.34-4.019 1.172-7.954 1.172-8.372 1.172v0.251c0 2.009 0.754 3.935 2.093 5.358zM10.465 16.326c0.335 0 3.684 0 7.535-1.005-1.34-2.428-2.763-4.437-3.014-4.688-2.26 1.088-4.019 3.181-4.521 5.693zM16.493 10.13c0.251 0.335 1.674 2.344 3.014 4.772 2.93-1.088 4.102-2.763 4.27-2.93-1.423-1.256-3.349-2.009-5.358-2.009-0.67-0.084-1.256 0-1.926 0.167zM24.698 12.893c-0.167 0.251-1.507 2.009-4.521 3.181 0.167 0.419 0.335 0.754 0.502 1.172 0.084 0.167 0.084 0.251 0.167 0.419 2.679-0.335 5.358 0.167 5.609 0.251 0.084-1.926-0.586-3.684-1.758-5.023z" fill="#000000" />
</svg>
