<?xml version="1.0" encoding="utf-8"?>
<!-- Generated by IcoMoon.io -->
<!DOCTYPE svg PUBLIC "-//W3C//DTD SVG 1.1//EN" "http://www.w3.org/Graphics/SVG/1.1/DTD/svg11.dtd">
<svg version="1.1" xmlns="http://www.w3.org/2000/svg" xmlns:xlink="http://www.w3.org/1999/xlink" width="36" height="36" viewBox="0 0 36 36">
<g>
</g>
	<path d="M28.13 20.595h-11.972l-5.442-10.967c0 0 0 0 0-0.084-0.167-0.502-0.586-0.837-1.088-0.837h-2.93c-0.67 0-1.172 0.502-1.172 1.172s0.502 1.172 1.172 1.172h2.428l5.358 10.8c0.084 0.084 0.084 0.167 0.167 0.251 0.167 0.502 0.586 0.837 1.088 0.837h12.307c0.67 0 1.172-0.502 1.172-1.172 0.084-0.67-0.419-1.172-1.088-1.172z" fill="#000000" />
	<path d="M30.726 12.056h-16.828l3.098 7.284h11.637z" fill="#000000" />
	<path d="M18.67 25.87c0 0.971-0.787 1.758-1.758 1.758-0.971 0-1.758-0.787-1.758-1.758 0-0.971 0.787-1.758 1.758-1.758 0.971 0 1.758 0.787 1.758 1.758z" fill="#000000" />
	<path d="M29.302 25.786c0 0.925-0.75 1.674-1.674 1.674s-1.674-0.75-1.674-1.674c0-0.925 0.75-1.674 1.674-1.674 0.925 0 1.674 0.75 1.674 1.674z" fill="#000000" />
</svg>
