<?xml version="1.0" encoding="utf-8"?>
<!-- Generated by IcoMoon.io -->
<!DOCTYPE svg PUBLIC "-//W3C//DTD SVG 1.1//EN" "http://www.w3.org/Graphics/SVG/1.1/DTD/svg11.dtd">
<svg version="1.1" xmlns="http://www.w3.org/2000/svg" xmlns:xlink="http://www.w3.org/1999/xlink" width="36" height="36" viewBox="0 0 36 36">
<g>
</g>
	<path d="M30.14 10.8c-0.754-1.34-1.507-1.591-3.098-1.674s-5.693-0.167-9.126-0.167c-3.516 0-7.535 0.084-9.126 0.167-1.591 0.084-2.428 0.335-3.098 1.674-0.754 1.34-1.172 3.6-1.172 7.535v0 0 0c0 3.935 0.419 6.279 1.172 7.535 0.754 1.34 1.507 1.591 3.098 1.674 1.591 0.084 5.693 0.167 9.126 0.167 3.516 0 7.535-0.084 9.126-0.167 1.591-0.084 2.428-0.335 3.098-1.674 0.754-1.34 1.172-3.6 1.172-7.535v0 0c0-4.019-0.419-6.279-1.172-7.535zM15.154 23.274v-9.879l7.619 4.94-7.619 4.94z" fill="#000000" />
</svg>
