<?xml version="1.0" encoding="utf-8"?>
<!-- Generated by IcoMoon.io -->
<!DOCTYPE svg PUBLIC "-//W3C//DTD SVG 1.1//EN" "http://www.w3.org/Graphics/SVG/1.1/DTD/svg11.dtd">
<svg version="1.1" xmlns="http://www.w3.org/2000/svg" xmlns:xlink="http://www.w3.org/1999/xlink" width="36" height="36" viewBox="0 0 36 36">
<g>
</g>
	<path d="M21.098 6.781c-4.102 0-7.367 3.265-7.367 7.367 0 1.34 0.335 2.512 0.921 3.6 0.167 0.335 0.419 0.67 0.67 1.005 0 0 0 0 0 0-2.177 2.177-8.791 8.707-8.791 8.707-0.335 0.335-0.335 0.921 0 1.256 0.335 0.335 0.921 0.335 1.256 0 0 0 6.53-6.614 8.707-8.791 1.256 0.921 2.846 1.507 4.521 1.507 4.102 0 7.367-3.265 7.367-7.367 0.084-3.935-3.181-7.284-7.284-7.284zM21.098 19.758c-3.014 0-5.526-2.428-5.526-5.526 0-3.014 2.428-5.526 5.526-5.526 3.014 0 5.526 2.428 5.526 5.526 0 3.098-2.512 5.526-5.526 5.526z" fill="#000000" />
</svg>
