<?xml version="1.0" encoding="utf-8"?>
<!-- Generated by IcoMoon.io -->
<!DOCTYPE svg PUBLIC "-//W3C//DTD SVG 1.1//EN" "http://www.w3.org/Graphics/SVG/1.1/DTD/svg11.dtd">
<svg version="1.1" xmlns="http://www.w3.org/2000/svg" xmlns:xlink="http://www.w3.org/1999/xlink" width="36" height="36" viewBox="0 0 36 36">
<g>
</g>
	<path d="M8.791 18c0 3.684 2.177 6.865 5.274 8.372l-4.437-12.223c-0.502 1.256-0.837 2.512-0.837 3.851zM24.446 17.581c0-1.172-0.419-1.926-0.754-2.595-0.502-0.754-0.921-1.423-0.921-2.177 0-0.837 0.67-1.674 1.591-1.674 0 0 0.084 0 0.084 0-1.674-1.507-3.851-2.428-6.279-2.428-3.265 0-6.112 1.674-7.786 4.186 0.251 0 0.419 0 0.586 0 1.005 0 2.512-0.084 2.512-0.084 0.502 0 0.586 0.67 0.084 0.754 0 0-0.502 0.084-1.088 0.084l3.433 10.13 2.009-6.112-1.423-4.019c-0.502 0-1.005-0.084-1.005-0.084-0.502 0-0.419-0.837 0.084-0.754 0 0 1.507 0.084 2.428 0.084 1.005 0 2.512-0.084 2.512-0.084 0.502 0 0.586 0.67 0.084 0.754 0 0-0.502 0.084-1.088 0.084l3.349 10.046 0.921-3.098c0.419-1.256 0.67-2.26 0.67-3.014zM18.335 18.837l-2.763 8.121c0.837 0.251 1.758 0.419 2.595 0.419 1.088 0 2.093-0.167 3.098-0.502 0 0-0.084-0.084-0.084-0.167l-2.846-7.87zM26.288 13.563c0 0.335 0.084 0.586 0.084 0.921 0 0.921-0.167 2.009-0.67 3.349l-2.846 8.205c2.763-1.591 4.605-4.605 4.605-8.037 0-1.591-0.419-3.098-1.172-4.437z" fill="#000000" />
</svg>
