<?xml version="1.0" encoding="utf-8"?>
<!-- Generated by IcoMoon.io -->
<!DOCTYPE svg PUBLIC "-//W3C//DTD SVG 1.1//EN" "http://www.w3.org/Graphics/SVG/1.1/DTD/svg11.dtd">
<svg version="1.1" xmlns="http://www.w3.org/2000/svg" xmlns:xlink="http://www.w3.org/1999/xlink" width="35" height="36" viewBox="0 0 35 36">
<g>
</g>
	<path d="M32.842 4.105h-27.474v27.663h27.411v-27.663zM11.937 20.653c0-0.884 0.695-1.642 1.579-1.642v0c0-0.505 0-0.316 0-0.442 0-1.516 1.2-2.905 2.716-2.905 0.189 0 0.379 0 0.568 0.063 0.442-1.516 1.832-2.589 3.411-2.589 1.958 0 3.6 1.642 3.6 3.663 0 0 0 0 0 0 1.389 0.063 2.463 1.326 2.463 2.779 0 1.074-0.632 2.021-1.579 2.589h-11.432c-0.821 0.063-1.326-0.758-1.326-1.516z" fill="#000000" />
</svg>
