<?xml version="1.0" encoding="utf-8"?>
<!-- Generated by IcoMoon.io -->
<!DOCTYPE svg PUBLIC "-//W3C//DTD SVG 1.1//EN" "http://www.w3.org/Graphics/SVG/1.1/DTD/svg11.dtd">
<svg version="1.1" xmlns="http://www.w3.org/2000/svg" xmlns:xlink="http://www.w3.org/1999/xlink" width="36" height="36" viewBox="0 0 36 36">
<g>
</g>
	<path d="M4.547 32.337h27.411v-27.663h-27.411v27.663zM18.758 19.516l-2.463 0.821 0.821-2.463 1.642 1.642zM17.874 18.126l5.874-5.874 0.568 0.568-5.874 5.874-0.568-0.568zM18.505 18.758l5.874-5.874 0.505 0.505-5.874 5.874-0.505-0.505zM23.242 11.747c0.442-0.442 1.137-0.442 1.579 0s0.442 1.137 0 1.579l-1.579-1.579zM23.684 12.253l-5.874 5.874-0.442-0.442 5.874-5.874 0.442 0.442zM11.432 16.358c0-1.074 0.884-1.958 1.958-1.958h3.221c0.253 0 0.442 0.189 0.442 0.442 0 0.253-0.189 0.442-0.442 0.442 0 0-0.063 0-0.063 0h-2.716c-0.821 0-1.453 0.695-1.453 1.453v5.495c0 0.821 0.695 1.453 1.453 1.453h6.442c0.821 0 1.453-0.695 1.453-1.453v-2.463c0-0.253 0.189-0.442 0.442-0.442 0.253 0 0.442 0.189 0.442 0.442v2.905c0 1.074-0.884 1.958-1.958 1.958h-7.326c-1.074 0-1.958-0.884-1.958-1.958v-6.316z" fill="#000000" />
</svg>
