<?xml version="1.0" encoding="utf-8"?>
<!-- Generated by IcoMoon.io -->
<!DOCTYPE svg PUBLIC "-//W3C//DTD SVG 1.1//EN" "http://www.w3.org/Graphics/SVG/1.1/DTD/svg11.dtd">
<svg version="1.1" xmlns="http://www.w3.org/2000/svg" xmlns:xlink="http://www.w3.org/1999/xlink" width="36" height="36" viewBox="0 0 36 36">
<g>
</g>
	<path d="M18.695 17.368c0 0.632 0.316 1.137 0.947 1.137 0.063 0 0.126 0 0.189 0 0.316-0.063 0.632-0.316 0.821-0.695 0.316-0.505 0.316-1.011 0.316-1.579v-0.316c-0.379 0-0.821 0-1.137 0.126-0.632 0.063-1.137 0.505-1.137 1.326z" fill="#000000" />
	<path d="M5.874 4.295v27.663h27.411v-27.663h-27.411zM20.779 13.326c-0.189-0.253-0.505-0.379-0.821-0.379-0.063 0-0.063 0-0.126 0-0.505 0.063-1.011 0.316-1.137 0.947 0 0.126-0.126 0.253-0.253 0.316l-1.453-0.189c-0.126 0-0.253-0.126-0.189-0.316 0.316-1.642 1.768-2.274 3.095-2.337 0.126 0 0.189 0 0.316 0 0.758 0 1.705 0.189 2.274 0.758 0.758 0.695 0.632 1.642 0.632 2.589v2.4c0 0.695 0.316 1.011 0.568 1.389 0.063 0.126 0.126 0.316 0 0.379-0.316 0.253-0.821 0.758-1.137 1.011-0.126 0.063-0.253 0.063-0.379 0-0.505-0.442-0.568-0.632-0.884-1.011-0.505 0.505-0.947 0.821-1.453 1.011-0.316 0.063-0.695 0.063-1.074 0.063-1.263 0-2.274-0.821-2.274-2.337 0-1.263 0.632-2.084 1.642-2.463 0.505-0.253 1.137-0.316 1.705-0.442 0.379-0.063 0.758-0.063 1.137-0.126v-0.189c0-0.379 0-0.758-0.189-1.074zM25.389 22.421c-0.189 0.126-0.379 0.253-0.568 0.379-1.516 0.884-3.474 1.389-5.116 1.389-2.716 0-5.179-1.011-7.011-2.716-0.189-0.126 0-0.316 0.126-0.189 2.021 1.137 4.484 1.895 7.011 1.895 1.579 0 3.347-0.316 4.989-0.947 0.126-0.063 0.253-0.126 0.379-0.126 0.253-0.126 0.442 0.126 0.189 0.316zM26.779 21.537c0 0.505-0.316 1.516-0.947 2.084-0.126 0.126-0.253 0.063-0.189-0.126 0.189-0.442 0.632-1.516 0.442-1.768-0.126-0.189-0.758-0.189-1.263-0.126-0.253 0-0.442 0.063-0.568 0.063-0.126 0-0.189-0.126 0-0.189 0.189-0.126 0.379-0.253 0.632-0.316 0.821-0.253 1.768-0.126 1.895 0.063 0 0.063 0.063 0.126 0.063 0.253v0.063z" fill="#000000" />
</svg>
