<?xml version="1.0" encoding="utf-8"?>
<!-- Generated by IcoMoon.io -->
<!DOCTYPE svg PUBLIC "-//W3C//DTD SVG 1.1//EN" "http://www.w3.org/Graphics/SVG/1.1/DTD/svg11.dtd">
<svg version="1.1" xmlns="http://www.w3.org/2000/svg" xmlns:xlink="http://www.w3.org/1999/xlink" width="36" height="36" viewBox="0 0 36 36">
<g>
</g>
	<path d="M24.112 8.372h-9.46c-0.837 0-1.591 0.67-1.591 1.591v0.335h9.377c0.837 0 1.591 0.67 1.591 1.591v12.223h0.167c0.837 0 1.591-0.67 1.591-1.591v-12.558c-0.084-0.921-0.754-1.591-1.674-1.591z" fill="#000000" />
	<path d="M21.014 11.721h-9.46c-0.837 0-1.591 0.67-1.591 1.591v12.558c0 0.837 0.67 1.591 1.591 1.591h9.46c0.837 0 1.591-0.67 1.591-1.591v-12.558c0-0.921-0.754-1.591-1.591-1.591z" fill="#000000" />
</svg>
