<?xml version="1.0" encoding="utf-8"?>
<!-- Generated by IcoMoon.io -->
<!DOCTYPE svg PUBLIC "-//W3C//DTD SVG 1.1//EN" "http://www.w3.org/Graphics/SVG/1.1/DTD/svg11.dtd">
<svg version="1.1" xmlns="http://www.w3.org/2000/svg" xmlns:xlink="http://www.w3.org/1999/xlink" width="35" height="36" viewBox="0 0 35 36">
<g>
</g>
	<path d="M23.558 14.4h-10.168c-0.442 0-0.821 0.253-0.821 0.632v4.358c0 0.379 0.379 0.632 0.821 0.632h10.168c0.442 0 0.821-0.253 0.821-0.632v-4.358c-0.063-0.316-0.379-0.632-0.821-0.632z" fill="#000000" />
	<path d="M4.737 4.358v27.663h27.411v-27.663h-27.411zM11.684 14.337c0-0.442 0.379-0.821 0.947-0.821h11.747c0.505 0 0.947 0.379 0.947 0.821v6.632h-13.642v-6.632zM26.463 22.863h-15.979c-0.316 0-0.568-0.253-0.568-0.568s0.253-0.568 0.568-0.568h15.979c0.316 0 0.568 0.253 0.568 0.568s-0.253 0.568-0.568 0.568z" fill="#000000" />
</svg>
