<?xml version="1.0" encoding="utf-8"?>
<!-- Generated by IcoMoon.io -->
<!DOCTYPE svg PUBLIC "-//W3C//DTD SVG 1.1//EN" "http://www.w3.org/Graphics/SVG/1.1/DTD/svg11.dtd">
<svg version="1.1" xmlns="http://www.w3.org/2000/svg" xmlns:xlink="http://www.w3.org/1999/xlink" width="35" height="36" viewBox="0 0 35 36">
<g>
</g>
	<path d="M5.684 31.895h27.411v-27.6h-27.411v27.6zM25.263 15.095c0.505 0.947 0.821 2.021 0.821 3.221 0 2.463-1.326 4.611-3.347 5.811l2.021-5.874c0.379-0.947 0.505-1.705 0.505-2.4 0.063-0.316 0.063-0.568 0-0.758zM23.368 16.105c0.253 0.442 0.568 1.011 0.568 1.832 0 0.568-0.189 1.326-0.505 2.147l-0.695 2.274-2.4-7.2c0.379 0 0.758-0.063 0.758-0.063 0.379-0.063 0.316-0.568-0.063-0.568 0 0-1.074 0.063-1.768 0.063-0.632 0-1.768-0.063-1.768-0.063-0.379 0-0.379 0.505-0.063 0.568 0 0 0.316 0.063 0.695 0.063l1.074 2.842-1.453 4.358-2.463-7.263c0.379 0 0.758-0.063 0.758-0.063 0.379-0.063 0.316-0.568-0.063-0.568 0 0-1.074 0.063-1.768 0.063-0.126 0-0.253 0-0.442 0 1.2-1.832 3.221-3.032 5.558-3.032 1.768 0 3.347 0.695 4.484 1.768 0 0-0.063 0-0.063 0-0.632 0-1.137 0.568-1.137 1.2 0.126 0.632 0.442 1.074 0.758 1.642zM21.6 24.632c-0.695 0.253-1.453 0.379-2.211 0.379-0.632 0-1.263-0.126-1.895-0.253l2.021-5.811 2.084 5.621c0 0 0 0 0 0.063zM13.263 15.6l3.158 8.716c-2.211-1.074-3.789-3.347-3.789-6 0.063-1.011 0.316-1.895 0.632-2.716z" fill="#000000" />
</svg>
