<?xml version="1.0" encoding="utf-8"?>
<!-- Generated by IcoMoon.io -->
<!DOCTYPE svg PUBLIC "-//W3C//DTD SVG 1.1//EN" "http://www.w3.org/Graphics/SVG/1.1/DTD/svg11.dtd">
<svg version="1.1" xmlns="http://www.w3.org/2000/svg" xmlns:xlink="http://www.w3.org/1999/xlink" width="36" height="36" viewBox="0 0 36 36">
<g>
</g>
	<path d="M22.437 14.902c-1.758 0-3.181-1.423-3.181-3.181s1.423-3.181 3.181-3.181 3.181 1.423 3.181 3.181c0 1.758-1.423 3.181-3.181 3.181v0zM19.842 17.916c0-1.758-1.423-3.181-3.181-3.181s-3.181 1.423-3.181 3.181c0 0.084 0 0.167 0 0.251v0 5.442h6.279v-5.442c0.084-0.167 0.084-0.167 0.084-0.251v0zM16.744 14.316c1.256 0 2.344-1.005 2.344-2.344 0-1.256-1.005-2.344-2.344-2.344-1.256 0-2.344 1.005-2.344 2.344 0 1.34 1.005 2.344 2.344 2.344v0zM26.707 19.758c0-2.344-1.926-4.27-4.27-4.27s-4.27 1.926-4.27 4.27c0 0.084 0 0.167 0 0.251v0 7.451h8.623v-7.451c-0.084-0.084-0.084-0.167-0.084-0.251v0zM12.14 14.4c-1.423 0-2.595 1.172-2.595 2.595 0 0.084 0 0.084 0 0.167v0 4.437h5.191v-4.437c0-0.084 0-0.084 0-0.167 0-1.423-1.172-2.595-2.595-2.595v0zM12.14 14.065c1.005 0 1.926-0.837 1.926-1.926 0-1.005-0.837-1.926-1.926-1.926-1.005 0-1.926 0.837-1.926 1.926 0 1.088 0.837 1.926 1.926 1.926v0z" fill="#000000" />
</svg>
