<?xml version="1.0" encoding="utf-8"?>
<!-- Generated by IcoMoon.io -->
<!DOCTYPE svg PUBLIC "-//W3C//DTD SVG 1.1//EN" "http://www.w3.org/Graphics/SVG/1.1/DTD/svg11.dtd">
<svg version="1.1" xmlns="http://www.w3.org/2000/svg" xmlns:xlink="http://www.w3.org/1999/xlink" width="35" height="36" viewBox="0 0 35 36">
<g>
</g>
	<path d="M21.916 17.811c-0.379 0-0.695 0.126-0.884 0.316-0.189 0.189-0.316 0.505-0.379 0.884h2.526c0-0.379-0.126-0.695-0.379-0.884s-0.568-0.316-0.884-0.316z" fill="#000000" />
	<path d="M16.611 19.137c-0.189-0.063-0.442-0.126-0.758-0.126h-1.832v2.021h1.832c0.316 0 0.568-0.063 0.758-0.126 0.316-0.189 0.505-0.505 0.505-0.947-0.063-0.442-0.189-0.695-0.505-0.821z" fill="#000000" />
	<path d="M16.611 17.558c0.189-0.126 0.316-0.316 0.316-0.632 0-0.379-0.126-0.568-0.379-0.695-0.253-0.063-0.505-0.126-0.884-0.126h-1.642v1.642h1.832c0.316 0 0.568-0.063 0.758-0.189z" fill="#000000" />
	<path d="M4.989 4.674v27.663h27.411v-27.663h-27.411zM20.274 15.158h3.221v0.947h-3.221v-0.947zM18.316 21.221c-0.126 0.253-0.316 0.442-0.505 0.568-0.253 0.189-0.505 0.316-0.821 0.379-0.316 0.063-0.695 0.126-1.074 0.126h-3.411v-7.516h3.663c0.947 0 1.579 0.253 1.958 0.821 0.253 0.316 0.316 0.695 0.316 1.137 0 0.442-0.126 0.821-0.379 1.137-0.126 0.126-0.316 0.316-0.568 0.442 0.379 0.126 0.695 0.379 0.884 0.695 0.189 0.316 0.316 0.695 0.316 1.074-0.063 0.379-0.126 0.821-0.379 1.137zM24.695 19.958h-4.042c0 0.568 0.189 0.947 0.568 1.2 0.253 0.126 0.505 0.189 0.821 0.189 0.316 0 0.568-0.063 0.821-0.253 0.126-0.063 0.189-0.189 0.316-0.379h1.516c-0.063 0.316-0.189 0.695-0.568 1.011-0.505 0.568-1.2 0.821-2.084 0.821-0.758 0-1.389-0.253-1.958-0.695-0.568-0.442-0.821-1.2-0.821-2.211 0-0.947 0.253-1.705 0.758-2.211 0.505-0.505 1.2-0.758 2.021-0.758 0.505 0 0.947 0.063 1.326 0.253 0.379 0.189 0.695 0.442 0.947 0.821 0.253 0.316 0.379 0.695 0.442 1.137-0.126 0.189-0.063 0.568-0.063 1.074z" fill="#000000" />
</svg>
