<?xml version="1.0" encoding="utf-8"?>
<!-- Generated by IcoMoon.io -->
<!DOCTYPE svg PUBLIC "-//W3C//DTD SVG 1.1//EN" "http://www.w3.org/Graphics/SVG/1.1/DTD/svg11.dtd">
<svg version="1.1" xmlns="http://www.w3.org/2000/svg" xmlns:xlink="http://www.w3.org/1999/xlink" width="36" height="36" viewBox="0 0 36 36">
<g>
</g>
	<path d="M26.623 24.112l-5.693-5.693 5.693-5.693c0.837-0.837 0.837-2.26 0-3.098-0.837-0.837-2.26-0.837-3.098 0l-5.693 5.693-5.693-5.693c-0.837-0.837-2.26-0.837-3.098 0-0.837 0.837-0.837 2.26 0 3.098l5.693 5.693-5.693 5.693c-0.837 0.837-0.837 2.26 0 3.098s2.26 0.837 3.098 0l5.693-5.693 5.693 5.693c0.837 0.837 2.26 0.837 3.098 0 0.921-0.837 0.921-2.26 0-3.098z" fill="#000000" />
</svg>
