<?xml version="1.0" encoding="utf-8"?>
<!-- Generated by IcoMoon.io -->
<!DOCTYPE svg PUBLIC "-//W3C//DTD SVG 1.1//EN" "http://www.w3.org/Graphics/SVG/1.1/DTD/svg11.dtd">
<svg version="1.1" xmlns="http://www.w3.org/2000/svg" xmlns:xlink="http://www.w3.org/1999/xlink" width="36" height="36" viewBox="0 0 36 36">
<g>
</g>
	<path d="M28.964 8.836h-1.145v-2.618h-2.291v2.618h-15.055v-2.618h-2.291v2.618h-1.145c-0.655 0-1.145 0.491-1.145 1.145v16.2c0 0.655 0.491 1.145 1.145 1.145h22.009c0.655 0 1.145-0.491 1.145-1.145v-16.2c-0.082-0.655-0.573-1.145-1.227-1.145zM7.691 13.336c0-0.573 0.491-0.982 0.982-0.982h2.373c0.573 0 0.982 0.491 0.982 0.982v1.882c0 0.573-0.491 0.982-0.982 0.982h-2.373c-0.573 0-0.982-0.491-0.982-0.982v-1.882zM7.773 17.673c0-0.573 0.491-0.982 0.982-0.982h2.373c0.573 0 0.982 0.491 0.982 0.982v1.882c0 0.573-0.491 0.982-0.982 0.982h-2.291c-0.573 0-0.982-0.491-0.982-0.982v-1.882zM12.191 23.891c0 0.573-0.491 1.064-0.982 1.064h-2.373c-0.573 0-0.982-0.491-0.982-1.064v-1.882c0-0.573 0.491-1.064 0.982-1.064h2.373c0.573 0 0.982 0.491 0.982 1.064v1.882zM13.091 13.336c0-0.573 0.491-0.982 0.982-0.982h2.373c0.573 0 0.982 0.491 0.982 0.982v1.882c0 0.573-0.491 0.982-0.982 0.982h-2.373c-0.573 0-0.982-0.491-0.982-0.982v-1.882zM13.255 17.673c0-0.573 0.491-0.982 0.982-0.982h2.373c0.573 0 0.982 0.491 0.982 0.982v1.882c0 0.573-0.491 0.982-0.982 0.982h-2.373c-0.573 0-0.982-0.491-0.982-0.982v-1.882zM17.673 23.891c0 0.573-0.491 1.064-0.982 1.064h-2.373c-0.573 0-0.982-0.491-0.982-1.064v-1.882c0-0.573 0.491-1.064 0.982-1.064h2.373c0.573 0 0.982 0.491 0.982 1.064v1.882zM18.409 13.336c0-0.573 0.491-0.982 0.982-0.982h2.373c0.573 0 0.982 0.491 0.982 0.982v1.882c0 0.573-0.491 0.982-0.982 0.982h-2.291c-0.573 0-0.982-0.491-0.982-0.982v-1.882zM18.573 17.755c0-0.573 0.491-0.982 0.982-0.982h2.373c0.573 0 0.982 0.491 0.982 0.982v1.882c0 0.573-0.491 0.982-0.982 0.982h-2.373c-0.573 0-0.982-0.491-0.982-0.982v-1.882zM22.991 23.891c0 0.573-0.491 1.064-0.982 1.064h-2.373c-0.573 0-0.982-0.491-0.982-1.064v-1.882c0-0.573 0.491-1.064 0.982-1.064h2.373c0.573 0 0.982 0.491 0.982 1.064v1.882zM23.809 13.336c0-0.573 0.491-0.982 0.982-0.982h2.373c0.573 0 0.982 0.491 0.982 0.982v1.882c0 0.573-0.491 0.982-0.982 0.982h-2.373c-0.573 0-0.982-0.491-0.982-0.982v-1.882zM23.891 17.673c0-0.573 0.491-0.982 0.982-0.982h2.373c0.573 0 0.982 0.491 0.982 0.982v1.882c0 0.573-0.491 0.982-0.982 0.982h-2.373c-0.573 0-0.982-0.491-0.982-0.982v-1.882zM28.309 23.891c0 0.573-0.491 0.982-0.982 0.982h-2.373c-0.573 0-0.982-0.491-0.982-0.982v-1.882c0-0.573 0.491-0.982 0.982-0.982h2.373c0.573 0 0.982 0.491 0.982 0.982v1.882z" fill="#000000" />
</svg>
