<?xml version="1.0" encoding="utf-8"?>
<!-- Generated by IcoMoon.io -->
<!DOCTYPE svg PUBLIC "-//W3C//DTD SVG 1.1//EN" "http://www.w3.org/Graphics/SVG/1.1/DTD/svg11.dtd">
<svg version="1.1" xmlns="http://www.w3.org/2000/svg" xmlns:xlink="http://www.w3.org/1999/xlink" width="37" height="36" viewBox="0 0 37 36">
<g>
</g>
	<path d="M19.929 14.079h-2.057c-0.321 0-0.514 0.257-0.514 0.514v1.929h3.086v-1.929c0-0.257-0.193-0.514-0.514-0.514z" fill="#000000" />
	<path d="M18.964 18.064c-0.579 0-1.093 0.45-1.093 1.093 0 0.45 0.257 0.771 0.643 0.964v1.479h0.9v-1.414c0.386-0.193 0.643-0.514 0.643-0.964-0.064-0.707-0.514-1.157-1.093-1.157z" fill="#000000" />
	<path d="M5.207 4.243v28.157h27.9v-28.157h-27.9zM23.271 22.821c0 0.579-0.514 1.093-1.093 1.093h-6.493c-0.579 0-1.093-0.514-1.093-1.093v-5.207c0-0.579 0.514-1.093 1.093-1.093h0.579v-1.993c0-0.9 0.707-1.607 1.607-1.607h2.186c0.9 0 1.607 0.707 1.607 1.607v1.993h0.514c0.579 0 1.093 0.514 1.093 1.093v5.207z" fill="#000000" />
</svg>
