<?xml version="1.0" encoding="utf-8"?>
<!-- Generated by IcoMoon.io -->
<!DOCTYPE svg PUBLIC "-//W3C//DTD SVG 1.1//EN" "http://www.w3.org/Graphics/SVG/1.1/DTD/svg11.dtd">
<svg version="1.1" xmlns="http://www.w3.org/2000/svg" xmlns:xlink="http://www.w3.org/1999/xlink" width="36" height="36" viewBox="0 0 36 36">
<g>
</g>
	<path d="M4.547 32.211h27.411v-27.6h-27.411v27.6zM11.495 17.179c0-3.221 2.589-5.811 5.811-5.811h1.768c3.221 0 5.811 2.589 5.811 5.811v4.358h-1.074v-4.295c0-2.653-2.147-4.8-4.8-4.8h-1.768c-2.653 0-4.8 2.147-4.8 4.8v4.295h-1.074v-4.358zM23.621 20.211v3.411c0 0.442-0.379 0.821-0.821 0.821s-0.821-0.379-0.821-0.821v-3.411c0-0.442 0.379-0.821 0.821-0.821 0.505 0 0.821 0.379 0.821 0.821zM14.526 20.211v3.411c0 0.442-0.379 0.821-0.821 0.821s-0.821-0.379-0.821-0.821v-3.411c0-0.442 0.379-0.821 0.821-0.821s0.821 0.379 0.821 0.821z" fill="#000000" />
</svg>
