<?xml version="1.0" encoding="utf-8"?>
<!-- Generated by IcoMoon.io -->
<!DOCTYPE svg PUBLIC "-//W3C//DTD SVG 1.1//EN" "http://www.w3.org/Graphics/SVG/1.1/DTD/svg11.dtd">
<svg version="1.1" xmlns="http://www.w3.org/2000/svg" xmlns:xlink="http://www.w3.org/1999/xlink" width="35" height="36" viewBox="0 0 35 36">
<g>
</g>
	<path d="M4.737 4.611v27.663h27.411v-27.663h-27.411zM24.063 14.274c0.442 0.442 0.442 1.074 0 1.516l-9.095 9.095c-0.442 0.442-1.074 0.442-1.516 0l-2.021-2.084c-0.442-0.442-0.442-1.074 0-1.516l9.095-9.095c0.442-0.442 1.074-0.442 1.516 0l0.379 0.379 1.137-1.137 1.516 1.516-1.137 1.137 0.126 0.189z" fill="#000000" />
	<path d="M12.379 21.537c-0.379 0.379-0.379 0.947 0 1.326l1.074 1.074c0.379 0.379 0.947 0.379 1.326 0l5.305-5.305h-4.737l-2.968 2.905z" fill="#000000" />
</svg>
