<?xml version="1.0" encoding="utf-8"?>
<!-- Generated by IcoMoon.io -->
<!DOCTYPE svg PUBLIC "-//W3C//DTD SVG 1.1//EN" "http://www.w3.org/Graphics/SVG/1.1/DTD/svg11.dtd">
<svg version="1.1" xmlns="http://www.w3.org/2000/svg" xmlns:xlink="http://www.w3.org/1999/xlink" width="36" height="36" viewBox="0 0 36 36">
<g>
</g>
	<path d="M18.771 32.207c0 0 0.064 0 0.064 0h13.886v-28.157h-27.9v28.157h13.886c0.064 0 0.064 0 0.064 0zM14.4 15.493c-0.45-0.45-0.45-1.157 0-1.543 0.45-0.45 1.157-0.45 1.543 0l2.829 2.829 2.829-2.829c0.45-0.45 1.157-0.45 1.543 0 0.45 0.45 0.45 1.157 0 1.543l-2.829 2.829 2.829 2.829c0.45 0.45 0.45 1.157 0 1.543-0.45 0.45-1.157 0.45-1.543 0l-2.829-2.829-2.829 2.829c-0.45 0.45-1.157 0.45-1.543 0-0.45-0.45-0.45-1.157 0-1.543l2.829-2.829-2.829-2.829z" fill="#000000" />
</svg>
