<?xml version="1.0" encoding="utf-8"?>
<!-- Generated by IcoMoon.io -->
<!DOCTYPE svg PUBLIC "-//W3C//DTD SVG 1.1//EN" "http://www.w3.org/Graphics/SVG/1.1/DTD/svg11.dtd">
<svg version="1.1" xmlns="http://www.w3.org/2000/svg" xmlns:xlink="http://www.w3.org/1999/xlink" width="37" height="36" viewBox="0 0 37 36">
<g>
</g>
	<path d="M5.979 4.114v28.157h27.9v-28.157h-27.9zM22.95 13.5c-0.579 0-0.964 0.514-0.964 1.543 0 2.057 1.286 3.214 3.021 3.214 0.321 0 0.643-0.064 0.964-0.129v1.607c-0.579 0.129-1.157 0.193-1.607 0.193-1.093 2.379-3.15 4.371-3.857 4.757-0.45 0.257-0.836 0.257-1.286 0-0.836-0.514-3.986-3.086-5.014-11.186h2.314c0.579 4.886 1.993 7.393 3.536 9.257 0.836-0.836 1.671-1.993 2.314-3.279-1.543-0.771-2.443-2.507-2.443-4.436 0-1.993 1.157-3.536 3.15-3.536 1.929 0 2.957 1.221 2.957 3.279 0 0.771-0.193 1.607-0.45 2.314-1.414 0.257-1.929-0.643-1.929-0.643 0.129-0.321 0.257-0.964 0.257-1.479-0.064-1.029-0.45-1.479-0.964-1.479z" fill="#000000" />
</svg>
