<?xml version="1.0" encoding="utf-8"?>
<!-- Generated by IcoMoon.io -->
<!DOCTYPE svg PUBLIC "-//W3C//DTD SVG 1.1//EN" "http://www.w3.org/Graphics/SVG/1.1/DTD/svg11.dtd">
<svg version="1.1" xmlns="http://www.w3.org/2000/svg" xmlns:xlink="http://www.w3.org/1999/xlink" width="36" height="36" viewBox="0 0 36 36">
<g>
</g>
	<path d="M21.279 19.607c-0.257-0.193-0.707-0.45-1.221-0.707v3.921c0.45-0.064 0.771-0.193 1.093-0.386 0.579-0.321 0.836-0.836 0.836-1.479 0-0.514-0.257-0.964-0.707-1.35z" fill="#000000" />
	<path d="M16.521 14.786c0 0.321 0.064 0.643 0.257 0.9s0.45 0.45 0.836 0.707c0.193 0.064 0.386 0.193 0.707 0.321v-3.536c-0.45 0.064-0.836 0.193-1.157 0.386-0.45 0.321-0.643 0.707-0.643 1.221z" fill="#000000" />
	<path d="M5.786 4.050v28.157h27.9v-28.157h-27.9zM22.564 23.786c-0.643 0.45-1.479 0.771-2.443 0.9v1.093c0 0.45-0.386 0.836-0.836 0.836s-0.836-0.386-0.836-0.836v-1.029c-1.543-0.064-2.764-0.321-3.664-0.836v-1.8c0.643 0.321 1.286 0.579 1.993 0.771 0.579 0.129 1.157 0.257 1.671 0.257v-4.693c-1.029-0.386-1.736-0.771-2.186-1.029-0.514-0.321-0.9-0.707-1.157-1.157-0.257-0.45-0.386-0.964-0.386-1.543 0-1.029 0.45-1.864 1.286-2.507 0.643-0.45 1.479-0.707 2.443-0.836v-1.157c0-0.45 0.386-0.836 0.836-0.836 0.45 0 0.836 0.386 0.836 0.836v1.157c1.221 0.064 2.379 0.321 3.536 0.836l-0.707 1.607c-1.029-0.45-1.929-0.643-2.829-0.771v4.179c1.479 0.514 2.443 1.093 2.957 1.671 0.514 0.579 0.836 1.286 0.836 2.121 0 1.157-0.45 2.121-1.35 2.764z" fill="#000000" />
</svg>
