<?xml version="1.0" encoding="utf-8"?>
<!-- Generated by IcoMoon.io -->
<!DOCTYPE svg PUBLIC "-//W3C//DTD SVG 1.1//EN" "http://www.w3.org/Graphics/SVG/1.1/DTD/svg11.dtd">
<svg version="1.1" xmlns="http://www.w3.org/2000/svg" xmlns:xlink="http://www.w3.org/1999/xlink" width="36" height="36" viewBox="0 0 36 36">
<g>
</g>
	<path d="M33.364 4.243h-27.9v28.157h27.9v-28.157zM21.536 25.007h-6.557c-0.579 0-1.093-0.514-1.093-1.093v-8.679c0-0.579 0.514-1.093 1.093-1.093h6.557c0.579 0 1.093 0.514 1.093 1.093v8.679c0 0.643-0.45 1.093-1.093 1.093zM24.814 21.6c0 0.579-0.514 1.093-1.093 1.093h-0.129v-8.486c0-0.579-0.514-1.093-1.093-1.093h-6.429v-0.193c0-0.579 0.45-1.093 1.093-1.093h6.557c0.579 0 1.093 0.514 1.093 1.093v8.679z" fill="#000000" />
</svg>
