<?xml version="1.0" encoding="utf-8"?>
<!-- Generated by IcoMoon.io -->
<!DOCTYPE svg PUBLIC "-//W3C//DTD SVG 1.1//EN" "http://www.w3.org/Graphics/SVG/1.1/DTD/svg11.dtd">
<svg version="1.1" xmlns="http://www.w3.org/2000/svg" xmlns:xlink="http://www.w3.org/1999/xlink" width="36" height="36" viewBox="0 0 36 36">
<g>
</g>
	<path d="M22.629 17.807c-0.579 0-0.707 0.45-0.771 0.836 0.193 0 0.321-0.064 0.514 0 0.321 0 0.643 0.064 0.9 0.193 0-0.386-0.064-0.964-0.643-1.029z" fill="#000000" />
	<path d="M5.786 4.114v28.157h27.9v-28.157h-27.9zM14.079 14.979l2.507-2.507c0 0 0 0 0 0l-0.064 0.064c-0.064 0.193-0.129 0.386-0.129 0.643v0c0 0.321 0 1.414 0 1.414 0 0.064-0.064 0.129-0.129 0.129h-1.286c0 0 0 0 0 0-0.321 0-0.579 0.064-0.771 0.129 0 0.129-0.129 0.129-0.129 0.129 0 0 0 0 0 0zM25.264 20.379c-0.193 1.929-0.45 3.086-0.579 3.471-0.643 1.929-1.157 1.993-2.636 1.993-1.929 0-2.507-0.257-2.507-1.8 0-1.671 0.771-1.736 2.121-1.671 0.193 0 0 0.193 0 0.514 0 0.321 0.129 0.45-0.064 0.45-0.386 0-0.9-0.064-0.9 0.45 0 0.643 0.321 0.643 1.157 0.643 1.029 0 1.221-0.129 1.221-1.029 0-1.543-0.45-1.736-1.029-1.8-0.643-0.064-1.286-0.193-1.607-0.257-0.771-0.257-0.707-1.35-0.707-1.607 0-0.064-0.064-0.064-0.064 0 0 0.45 0 1.029-0.257 1.671-0.064 0.193-0.129 0.321-0.129 0.321-0.257 0.514-0.643 0.321-1.35 0.257-0.643-0.064-2.057-0.386-2.7-0.643-0.257-0.129-0.386-0.257-0.514-0.514-0.386-0.771-0.771-3.214-0.771-3.6-0.064-0.45-0.064-0.707-0.064-0.707 0-0.257 0-0.579 0.193-0.836 0.064-0.129 0.193-0.193 0.386-0.257 0.129-0.064 0.386-0.129 0.643-0.129h1.286c0.257 0 0.514-0.257 0.514-0.514 0 0 0-0.257 0-0.579 0-0.321 0-0.643 0-0.836 0-0.257 0.064-0.45 0.193-0.579 0.129-0.193 0.45-0.386 0.707-0.45 0.321-0.064 1.543-0.193 2.314 0.129 0.321 0.129 0.579 0.45 0.643 0.836 0.45 0 1.221 0 1.864 0.064 0.836 0.064 1.479 0.193 1.736 0.321 0.321 0.129 0.643 0.386 0.707 0.9 0.064 0.836 0.321 4.564 0.193 5.786z" fill="#000000" />
</svg>
