<?xml version="1.0" encoding="utf-8"?>
<!-- Generated by IcoMoon.io -->
<!DOCTYPE svg PUBLIC "-//W3C//DTD SVG 1.1//EN" "http://www.w3.org/Graphics/SVG/1.1/DTD/svg11.dtd">
<svg version="1.1" xmlns="http://www.w3.org/2000/svg" xmlns:xlink="http://www.w3.org/1999/xlink" width="36" height="36" viewBox="0 0 36 36">
<g>
</g>
	<path d="M21.729 12.536c-0.321 0.321-0.321 0.836 0 1.093 0.321 0.321 0.836 0.321 1.093 0 0.321-0.321 0.321-0.836 0-1.093-0.257-0.257-0.771-0.257-1.093 0z" fill="#000000" />
	<path d="M4.821 4.243v28.157h27.9v-28.157h-27.9zM18.836 25.714c-0.386 0.386-1.093 0.386-1.479 0l-4.5-4.5c-0.386-0.386-0.386-1.093 0-1.479l0.129-0.129 4.371 4.371c0.386 0.386 1.093 0.386 1.479 0l5.914-5.914 0.064 1.671-5.979 5.979zM18.836 22.629c-0.386 0.386-1.093 0.386-1.479 0l-4.5-4.5c-0.386-0.386-0.386-1.093 0-1.479l5.979-5.979 5.721 0.321 0.321 5.721-6.043 5.914z" fill="#000000" />
</svg>
