<?xml version="1.0" encoding="utf-8"?>
<!-- Generated by IcoMoon.io -->
<!DOCTYPE svg PUBLIC "-//W3C//DTD SVG 1.1//EN" "http://www.w3.org/Graphics/SVG/1.1/DTD/svg11.dtd">
<svg version="1.1" xmlns="http://www.w3.org/2000/svg" xmlns:xlink="http://www.w3.org/1999/xlink" width="35" height="36" viewBox="0 0 35 36">
<g>
</g>
	<path d="M4.105 32.211h27.411v-27.6h-27.411v27.6zM23.684 21.474c0 1.011-0.821 1.895-1.895 1.895-1.011 0-1.895-0.821-1.895-1.895 0-1.011 0.821-1.895 1.895-1.895 0.316 0 0.632 0.126 0.947 0.253v-5.621h-7.263v7.263c0 0 0 0.063 0 0.063 0 1.011-0.821 1.895-1.895 1.895-1.011 0-1.895-0.821-1.895-1.895 0-1.011 0.821-1.895 1.895-1.895 0.379 0 0.695 0.126 0.947 0.253v-6.568h9.095v8.147z" fill="#000000" />
</svg>
