<?xml version="1.0" encoding="utf-8"?>
<!-- Generated by IcoMoon.io -->
<!DOCTYPE svg PUBLIC "-//W3C//DTD SVG 1.1//EN" "http://www.w3.org/Graphics/SVG/1.1/DTD/svg11.dtd">
<svg version="1.1" xmlns="http://www.w3.org/2000/svg" xmlns:xlink="http://www.w3.org/1999/xlink" width="35" height="36" viewBox="0 0 35 36">
<g>
</g>
	<path d="M32.779 4.358h-27.411v27.663h27.411v-27.663zM12.442 23.116v-11.242h1.389v11.116h12.063v1.642h-13.453v-1.516zM22.105 12.758l2.653-0.884 0.884 2.653-1.074-0.568-1.2 2.337c-0.126 0.253-0.442 0.442-0.695 0.379-0.126 0-0.316-0.063-0.442-0.126l-1.074-0.758-0.695 2.337c0 0.063 0 0.126-0.063 0.189l-0.063 0.126c-0.126 0.379-0.505 0.568-0.884 0.442l-1.705-0.505-1.642 2.716c-0.189 0.316-0.632 0.442-0.947 0.253h-0.063c-0.316-0.189-0.442-0.632-0.253-0.947l1.958-3.284c0.063-0.126 0.189-0.253 0.316-0.316 0 0 0 0 0 0 0.063 0 0.063 0 0.126-0.063 0 0 0 0 0.063 0 0 0 0.063 0 0.063 0 0 0 0.063 0 0.063 0 0 0 0.063 0 0.063 0 0.063 0 0.063 0 0.126 0 0 0 0 0 0.063 0l1.453 0.442 0.821-2.653c0-0.063 0.063-0.126 0.063-0.189v0c0.126-0.316 0.379-0.505 0.695-0.505 0.126 0 0.316 0.063 0.442 0.126l1.263 0.947 0.758-1.579-1.074-0.568z" fill="#000000" />
</svg>
