<?xml version="1.0" encoding="utf-8"?>
<!-- Generated by IcoMoon.io -->
<!DOCTYPE svg PUBLIC "-//W3C//DTD SVG 1.1//EN" "http://www.w3.org/Graphics/SVG/1.1/DTD/svg11.dtd">
<svg version="1.1" xmlns="http://www.w3.org/2000/svg" xmlns:xlink="http://www.w3.org/1999/xlink" width="36" height="36" viewBox="0 0 36 36">
<g>
</g>
	<path d="M21.789 10.105c-2.211 0-3.979 1.768-3.979 3.979 0 2.211 1.768 3.979 3.979 3.979s3.979-1.768 3.979-3.979c0-2.211-1.768-3.979-3.979-3.979zM23.368 14.526h-3.158c-0.253 0-0.442-0.189-0.442-0.442s0.189-0.442 0.442-0.442h3.158c0.253 0 0.442 0.189 0.442 0.442s-0.253 0.442-0.442 0.442z" fill="#000000" />
	<path d="M5.558 4.105v27.663h27.411v-27.663h-27.411zM21.789 19.326c-1.2 0-2.337-0.442-3.221-1.137-1.579 1.579-6.253 6.316-6.253 6.316-0.253 0.253-0.695 0.253-0.947 0-0.253-0.253-0.253-0.695 0-0.947 0 0 4.737-4.737 6.316-6.253 0 0 0 0 0 0-0.189-0.253-0.379-0.442-0.505-0.695-0.442-0.758-0.695-1.642-0.695-2.589 0-2.905 2.4-5.305 5.305-5.305s5.305 2.4 5.305 5.305c0 2.968-2.4 5.305-5.305 5.305z" fill="#000000" />
</svg>
