<?xml version="1.0" encoding="utf-8"?>
<!-- Generated by IcoMoon.io -->
<!DOCTYPE svg PUBLIC "-//W3C//DTD SVG 1.1//EN" "http://www.w3.org/Graphics/SVG/1.1/DTD/svg11.dtd">
<svg version="1.1" xmlns="http://www.w3.org/2000/svg" xmlns:xlink="http://www.w3.org/1999/xlink" width="36" height="36" viewBox="0 0 36 36">
<g>
</g>
	<path d="M28.8 8.456h-21.433c-0.921 0-1.674 0.754-1.674 1.674v11.637c0 0.921 0.754 1.674 1.674 1.674h9.544v2.846h-2.679v1.172h8.121v-1.172h-3.014v-2.846h9.544c0.921 0 1.674-0.754 1.674-1.674v-11.637c-0.084-0.921-0.837-1.674-1.758-1.674zM28.8 20.512c0 0.754-0.67 1.34-1.423 1.34h-18.586c-0.837 0-1.423-0.586-1.423-1.34v-9.209c0-0.754 0.67-1.34 1.423-1.34h18.586c0.837 0 1.423 0.586 1.423 1.34v9.209z" fill="#000000" />
</svg>
