<?xml version="1.0" encoding="utf-8"?>
<!-- Generated by IcoMoon.io -->
<!DOCTYPE svg PUBLIC "-//W3C//DTD SVG 1.1//EN" "http://www.w3.org/Graphics/SVG/1.1/DTD/svg11.dtd">
<svg version="1.1" xmlns="http://www.w3.org/2000/svg" xmlns:xlink="http://www.w3.org/1999/xlink" width="37" height="36" viewBox="0 0 37 36">
<g>
</g>
	<path d="M11.805 11.805v15.572h13.312v-15.572h-13.312zM15.488 24.698h-1.172v-10.633h1.172v10.633zM19.005 24.698h-1.172v-10.633h1.172v10.633zM22.605 24.698h-1.172v-10.633h1.172v10.633z" fill="#000000" />
	<path d="M24.698 8.372h-3.684v-0.837c0-0.502-0.419-0.837-0.837-0.837h-3.181c-0.502 0-0.837 0.419-0.837 0.837v0.837h-3.935c-0.67 0-1.256 0.586-1.256 1.256s0.586 1.256 1.256 1.256h12.558c0.67 0 1.256-0.586 1.256-1.256-0.084-0.67-0.67-1.256-1.34-1.256zM16.66 7.284h3.767v1.088h-3.767v-1.088z" fill="#000000" />
</svg>
