<?xml version="1.0" encoding="utf-8"?>
<!-- Generated by IcoMoon.io -->
<!DOCTYPE svg PUBLIC "-//W3C//DTD SVG 1.1//EN" "http://www.w3.org/Graphics/SVG/1.1/DTD/svg11.dtd">
<svg version="1.1" xmlns="http://www.w3.org/2000/svg" xmlns:xlink="http://www.w3.org/1999/xlink" width="36" height="36" viewBox="0 0 36 36">
<g>
</g>
	<path d="M5.874 32.021h27.411v-27.6h-27.411v27.6zM22.863 11.179v4.105h-4.105l1.389-1.389c-1.453-0.379-3.032 0.063-4.168 1.2-1.768 1.768-1.705 4.547 0 6.316 1.768 1.768 4.547 1.768 6.316 0 0.884-0.884 1.326-2.084 1.326-3.284 0-0.505 0.379-0.884 0.884-0.884 0.442 0 0.821 0.379 0.884 0.821v0c0 0 0 0 0 0s0 0 0 0.063c0 1.642-0.568 3.221-1.768 4.484-2.4 2.4-6.316 2.4-8.716 0-2.4-2.4-2.4-6.316 0-8.716 1.832-1.832 4.547-2.274 6.758-1.326l1.2-1.389z" fill="#000000" />
</svg>
