<?xml version="1.0" encoding="utf-8"?>
<!-- Generated by IcoMoon.io -->
<!DOCTYPE svg PUBLIC "-//W3C//DTD SVG 1.1//EN" "http://www.w3.org/Graphics/SVG/1.1/DTD/svg11.dtd">
<svg version="1.1" xmlns="http://www.w3.org/2000/svg" xmlns:xlink="http://www.w3.org/1999/xlink" width="36" height="36" viewBox="0 0 36 36">
<g>
</g>
	<path d="M15.411 12.253h5.874v10.105h-5.874v-10.105z" fill="#000000" />
	<path d="M19.011 23.621c0 0.349-0.283 0.632-0.632 0.632-0.349 0-0.632-0.283-0.632-0.632 0-0.349 0.283-0.632 0.632-0.632 0.349 0 0.632 0.283 0.632 0.632z" fill="#000000" />
	<path d="M31.958 17.495v-13.137h-27.411v27.663h27.411v-13.453c0-0.189 0-0.379 0-0.568s0-0.316 0-0.505zM22.358 23.747c0 0.568-0.505 1.074-1.074 1.074h-5.811c-0.568 0-1.074-0.505-1.074-1.074v-11.432c0-0.568 0.505-1.074 1.074-1.074h5.811c0.568 0 1.074 0.505 1.074 1.074v11.432z" fill="#000000" />
</svg>
