<?xml version="1.0" encoding="utf-8"?>
<!-- Generated by IcoMoon.io -->
<!DOCTYPE svg PUBLIC "-//W3C//DTD SVG 1.1//EN" "http://www.w3.org/Graphics/SVG/1.1/DTD/svg11.dtd">
<svg version="1.1" xmlns="http://www.w3.org/2000/svg" xmlns:xlink="http://www.w3.org/1999/xlink" width="35" height="36" viewBox="0 0 35 36">
<g>
</g>
	<path d="M18.947 21.853c0-0.126-0.063-0.189-0.126-0.316-0.063-0.126-0.126-0.189-0.189-0.253-0.063-0.063-0.126-0.126-0.253-0.253-0.126-0.126-0.189-0.189-0.253-0.189-0.063-0.063-0.126-0.126-0.253-0.189-0.126-0.063-0.189-0.126-0.253-0.189-0.063-0.063-0.126-0.126-0.316-0.189-0.126-0.063-0.189-0.126-0.253-0.189-0.063 0-0.253 0-0.442 0-0.316 0-0.632 0-0.884 0.063-0.316 0.063-0.632 0.126-0.884 0.189-0.316 0.126-0.568 0.253-0.821 0.379-0.253 0.189-0.442 0.379-0.568 0.632-0.126 0.253-0.253 0.568-0.253 0.884 0 0.379 0.063 0.758 0.316 1.011 0.189 0.316 0.442 0.568 0.758 0.695 0.316 0.189 0.695 0.316 1.011 0.379 0.379 0.063 0.695 0.126 1.074 0.126 0.316 0 0.632-0.063 0.947-0.126 0.316-0.063 0.568-0.189 0.884-0.316 0.253-0.126 0.505-0.379 0.632-0.632 0.126-0.253 0.253-0.568 0.253-0.947 0-0.126 0-0.253-0.063-0.316 0-0.063-0.063-0.126-0.063-0.253z" fill="#000000" />
	<path d="M17.684 16.547c0.253-0.316 0.379-0.821 0.379-1.389 0-0.316-0.063-0.695-0.126-1.074-0.126-0.379-0.253-0.758-0.379-1.137-0.189-0.379-0.442-0.632-0.695-0.884-0.316-0.253-0.632-0.379-1.011-0.379-0.505 0-0.947 0.189-1.2 0.568-0.316 0.379-0.442 0.884-0.442 1.389 0 0.253 0.063 0.568 0.063 0.821 0.063 0.316 0.189 0.568 0.316 0.884 0.126 0.316 0.316 0.568 0.505 0.821 0.189 0.253 0.379 0.442 0.695 0.568 0.253 0.126 0.505 0.189 0.821 0.189 0.442 0.126 0.821-0.063 1.074-0.379z" fill="#000000" />
	<path d="M4.989 4.295v27.663h27.411v-27.663h-27.411zM19.074 24.189c-0.884 0.758-2.021 1.137-3.537 1.137-0.316 0-0.695 0-1.011-0.063-0.316-0.063-0.695-0.126-1.011-0.316-0.316-0.126-0.632-0.316-0.947-0.505-0.253-0.189-0.505-0.442-0.632-0.758-0.189-0.316-0.253-0.632-0.253-1.011 0-0.316 0.126-0.758 0.316-1.137 0.189-0.379 0.442-0.695 0.821-0.947 0.379-0.253 0.758-0.442 1.2-0.632 0.442-0.126 0.884-0.253 1.326-0.316 0.442-0.063 0.821-0.126 1.263-0.126-0.379-0.505-0.568-0.884-0.568-1.263 0-0.063 0-0.126 0-0.189 0-0.063 0-0.126 0.063-0.189 0-0.063 0.063-0.126 0.063-0.189 0-0.063 0.063-0.126 0.063-0.189-0.253 0-0.442 0.063-0.568 0.063-0.821 0-1.579-0.253-2.147-0.821-0.632-0.568-0.884-1.263-0.884-2.084 0-0.821 0.253-1.516 0.821-2.147 0.505-0.632 1.2-1.011 1.958-1.2 0.505-0.126 1.074-0.189 1.579-0.189h3.663l-1.137 0.695h-1.137c0.379 0.253 0.695 0.632 0.947 1.074 0.189 0.442 0.316 0.947 0.316 1.453 0 0.442-0.063 0.821-0.189 1.137-0.126 0.316-0.316 0.568-0.505 0.758-0.189 0.189-0.379 0.379-0.568 0.568-0.189 0.189-0.316 0.316-0.442 0.505-0.126 0.189-0.189 0.379-0.189 0.568 0 0.126 0.063 0.316 0.126 0.442 0.126 0.126 0.253 0.253 0.379 0.442 0.126 0.126 0.316 0.253 0.505 0.379 0.189 0.126 0.379 0.316 0.568 0.442 0.189 0.189 0.379 0.379 0.505 0.568 0.126 0.189 0.253 0.442 0.379 0.695 0.063 0.253 0.126 0.568 0.126 0.884-0.063 0.947-0.442 1.768-1.263 2.463zM25.768 14.4h-2.211v2.147h-1.074v-2.147h-2.147v-1.074h2.147v-2.211h1.074v2.147h2.211v1.137z" fill="#000000" />
</svg>
