<?xml version="1.0" encoding="utf-8"?>
<!-- Generated by IcoMoon.io -->
<!DOCTYPE svg PUBLIC "-//W3C//DTD SVG 1.1//EN" "http://www.w3.org/Graphics/SVG/1.1/DTD/svg11.dtd">
<svg version="1.1" xmlns="http://www.w3.org/2000/svg" xmlns:xlink="http://www.w3.org/1999/xlink" width="35" height="36" viewBox="0 0 35 36">
<g>
</g>
	<path d="M25.705 15.221c0 2.163-1.753 3.916-3.916 3.916-2.163 0-3.916-1.753-3.916-3.916 0-2.163 1.753-3.916 3.916-3.916 2.163 0 3.916 1.753 3.916 3.916z" fill="#000000" />
	<path d="M4.737 4.168v27.663h27.411v-27.663h-27.411zM21.853 20.4c-1.2 0-2.337-0.442-3.221-1.074-1.516 1.579-6.253 6.253-6.253 6.253-0.253 0.253-0.695 0.253-0.947 0-0.253-0.253-0.253-0.695 0-0.947 0 0 4.674-4.674 6.253-6.253 0 0 0 0 0 0-0.189-0.253-0.316-0.442-0.505-0.695-0.442-0.758-0.632-1.642-0.632-2.589 0-2.905 2.337-5.242 5.242-5.242 2.905 0 5.242 2.337 5.242 5.242 0.063 2.968-2.274 5.305-5.179 5.305z" fill="#000000" />
</svg>
