<?xml version="1.0" encoding="utf-8"?>
<!-- Generated by IcoMoon.io -->
<!DOCTYPE svg PUBLIC "-//W3C//DTD SVG 1.1//EN" "http://www.w3.org/Graphics/SVG/1.1/DTD/svg11.dtd">
<svg version="1.1" xmlns="http://www.w3.org/2000/svg" xmlns:xlink="http://www.w3.org/1999/xlink" width="36" height="36" viewBox="0 0 36 36">
<g>
</g>
	<path d="M8.018 24.464v-7.609c0-4.664 3.764-8.427 8.427-8.427h3.191c4.664 0 8.427 3.764 8.427 8.427v7.609h1.882v-7.609c0-5.727-4.582-10.309-10.309-10.309h-3.191c-5.727 0-10.309 4.582-10.309 10.309v7.609h1.882z" fill="#000000" />
	<path d="M11.373 28.145c0 0.818-0.655 1.473-1.473 1.473v0c-0.818 0-1.473-0.655-1.473-1.473v-5.973c0-0.818 0.655-1.473 1.473-1.473v0c0.818 0 1.473 0.655 1.473 1.473v5.973z" fill="#000000" />
	<path d="M27.573 28.145c0 0.818-0.655 1.473-1.473 1.473v0c-0.818 0-1.473-0.655-1.473-1.473v-5.973c0-0.818 0.655-1.473 1.473-1.473v0c0.818 0 1.473 0.655 1.473 1.473v5.973z" fill="#000000" />
</svg>
