<?xml version="1.0" encoding="utf-8"?>
<!-- Generated by IcoMoon.io -->
<!DOCTYPE svg PUBLIC "-//W3C//DTD SVG 1.1//EN" "http://www.w3.org/Graphics/SVG/1.1/DTD/svg11.dtd">
<svg version="1.1" xmlns="http://www.w3.org/2000/svg" xmlns:xlink="http://www.w3.org/1999/xlink" width="36" height="36" viewBox="0 0 36 36">
<g>
</g>
	<path d="M5.464 32.271h27.9v-28.157h-27.9v28.157zM14.529 16.779c0-0.9 0.321-1.607 0.836-2.186-0.064-0.193-0.386-1.029 0.064-2.121 0 0 0.707-0.193 2.25 0.836 0.643-0.193 1.35-0.257 1.993-0.257 0.707 0 1.35 0.064 2.057 0.257 1.543-1.029 2.186-0.836 2.186-0.836 0.45 1.093 0.193 1.929 0.064 2.121 0.514 0.579 0.836 1.286 0.836 2.186 0 3.086-1.864 3.793-3.664 3.986 0.321 0.257 0.579 0.771 0.579 1.479 0 1.093 0 1.929 0 2.186 0 0.193-3.986 0.193-3.986 0 0-0.193 0-0.707 0-1.35-2.25 0.514-2.7-1.093-2.7-1.093-0.386-0.964-0.9-1.157-0.9-1.157-0.707-0.514 0.064-0.514 0.064-0.514 0.836 0.064 1.221 0.836 1.221 0.836 0.707 1.221 1.864 0.9 2.379 0.643 0.064-0.514 0.257-0.9 0.514-1.093-1.864-0.129-3.793-0.836-3.793-3.921z" fill="#000000" />
</svg>
