<?xml version="1.0" encoding="utf-8"?>
<!-- Generated by IcoMoon.io -->
<!DOCTYPE svg PUBLIC "-//W3C//DTD SVG 1.1//EN" "http://www.w3.org/Graphics/SVG/1.1/DTD/svg11.dtd">
<svg version="1.1" xmlns="http://www.w3.org/2000/svg" xmlns:xlink="http://www.w3.org/1999/xlink" width="35" height="36" viewBox="0 0 35 36">
<g>
</g>
	<path d="M14.4 25.609c0 0.082 0 0.164 0 0.164h-1.473c0-0.082 0-0.082 0-0.164v1.473h11.291v-1.473h-9.818z" fill="#000000" />
	<path d="M14.4 25.773c0-0.082 0-0.164 0-0.164-0.082-0.327-0.082-0.573-0.082-0.9v-3.191h4.418c0.409 0 0.818-0.327 0.818-0.818s-0.327-0.818-0.818-0.818h-4.418v-1.064h4.418c0.409 0 0.818-0.327 0.818-0.818 0-0.409-0.327-0.818-0.818-0.818h-4.418v-2.455c0-2.373 1.718-4.255 3.845-4.255h0.818c0.9 0 1.718 0.327 2.373 0.9 0.409-0.409 0.818-0.818 1.309-1.309-0.9-0.9-2.127-1.391-3.518-1.391h-1.145c-2.782 0-5.073 2.291-5.073 5.073v3.436h-1.309c-0.409 0-0.818 0.327-0.818 0.818 0 0.409 0.327 0.818 0.818 0.818h1.309v1.064h-1.309c-0.409 0-0.818 0.327-0.818 0.818s0.327 0.818 0.818 0.818h1.309v4.173c0 0.082 0 0.082 0 0.164h1.473z" fill="#000000" />
</svg>
