<?xml version="1.0" encoding="utf-8"?>
<!-- Generated by IcoMoon.io -->
<!DOCTYPE svg PUBLIC "-//W3C//DTD SVG 1.1//EN" "http://www.w3.org/Graphics/SVG/1.1/DTD/svg11.dtd">
<svg version="1.1" xmlns="http://www.w3.org/2000/svg" xmlns:xlink="http://www.w3.org/1999/xlink" width="35" height="36" viewBox="0 0 35 36">
<g>
</g>
	<path d="M4.989 32.211h27.411v-27.6h-27.411v27.6zM15.221 16.232v-1.389c0-1.895 1.516-3.474 3.474-3.474 1.895 0 3.474 1.516 3.474 3.474v1.389h-6.947zM22.105 17.368v1.579c0 1.895-1.516 3.474-3.474 3.474-1.895 0-3.474-1.516-3.474-3.474v-1.579h6.947zM13.768 18.189v0c0-0.126 0.126-0.253 0.316-0.253 0.126 0 0.316 0.126 0.316 0.253v0 1.137c0 2.274 1.832 4.042 4.042 4.042h0.505c2.274 0 4.042-1.832 4.042-4.042v-1.137c0-0.189 0.126-0.316 0.316-0.316s0.316 0.126 0.316 0.316v1.389c0 2.463-2.021 4.484-4.547 4.484v0 1.137h1.2v1.137h-3.095v-1.137h1.137v-1.137h-0.063c-2.463 0-4.484-2.021-4.484-4.484v-1.389z" fill="#000000" />
</svg>
