<?xml version="1.0" encoding="utf-8"?>
<!-- Generated by IcoMoon.io -->
<!DOCTYPE svg PUBLIC "-//W3C//DTD SVG 1.1//EN" "http://www.w3.org/Graphics/SVG/1.1/DTD/svg11.dtd">
<svg version="1.1" xmlns="http://www.w3.org/2000/svg" xmlns:xlink="http://www.w3.org/1999/xlink" width="36" height="36" viewBox="0 0 36 36">
<g>
</g>
	<path d="M16.375 20.709l4.358-2.806-4.358-2.823z" fill="#000000" />
	<path d="M17.903 1.699c-8.949 0-16.204 7.254-16.204 16.204 0 8.948 7.254 16.203 16.204 16.203 8.948 0 16.203-7.254 16.203-16.203 0-8.949-7.254-16.204-16.203-16.204zM25.585 17.903v0.005c0 2.269-0.219 3.573-0.653 4.317-0.417 0.752-0.868 0.889-1.789 0.952-0.921 0.054-3.234 0.087-5.238 0.087-2.008 0-4.323-0.033-5.241-0.087-0.919-0.064-1.372-0.2-1.792-0.952-0.429-0.744-0.651-2.048-0.651-4.317v-0.008c0-2.28 0.221-3.574 0.651-4.326 0.421-0.753 0.873-0.891 1.792-0.944 0.918-0.064 3.233-0.089 5.241-0.089 2.004 0 4.317 0.026 5.238 0.089 0.921 0.053 1.372 0.191 1.789 0.944 0.435 0.752 0.653 2.046 0.653 4.326v0.003z" fill="#000000" />
</svg>
