<?xml version="1.0" encoding="utf-8"?>
<!-- Generated by IcoMoon.io -->
<!DOCTYPE svg PUBLIC "-//W3C//DTD SVG 1.1//EN" "http://www.w3.org/Graphics/SVG/1.1/DTD/svg11.dtd">
<svg version="1.1" xmlns="http://www.w3.org/2000/svg" xmlns:xlink="http://www.w3.org/1999/xlink" width="36" height="36" viewBox="0 0 36 36">
<g>
</g>
	<path d="M17.903 1.699c-8.949 0-16.204 7.254-16.204 16.203s7.255 16.203 16.204 16.203c8.948 0 16.203-7.254 16.203-16.203 0-8.949-7.254-16.203-16.203-16.203zM24.246 22.383c0 1.395-1.131 2.526-2.526 2.526h-9.388c-1.395 0-2.526-1.131-2.526-2.526v-8.132c0-1.395 1.131-2.526 2.526-2.526h4.128c0.333 0 0.603 0.27 0.603 0.603 0 0.333-0.27 0.603-0.603 0.603-0.037 0-0.069-0.015-0.104-0.021h-3.45c-1.047 0-1.895 0.848-1.895 1.895v7.026c0 1.047 0.848 1.895 1.895 1.895h8.241c1.047 0 1.895-0.848 1.895-1.895v-3.183c0-0.333 0.27-0.603 0.603-0.603s0.603 0.27 0.603 0.603v3.735zM25.746 13.212l-5.706 5.705c-0.172 0.173-0.4 0.257-0.625 0.255-0.226 0.003-0.453-0.081-0.627-0.255l-2.236-2.236c-0.34-0.34-0.34-0.892 0-1.232s0.892-0.34 1.232 0l1.631 1.631 5.099-5.099c0.34-0.34 0.892-0.34 1.232 0 0.34 0.34 0.34 0.892 0 1.232z" fill="#000000" />
</svg>
