<?xml version="1.0" encoding="utf-8"?>
<!-- Generated by IcoMoon.io -->
<!DOCTYPE svg PUBLIC "-//W3C//DTD SVG 1.1//EN" "http://www.w3.org/Graphics/SVG/1.1/DTD/svg11.dtd">
<svg version="1.1" xmlns="http://www.w3.org/2000/svg" xmlns:xlink="http://www.w3.org/1999/xlink" width="36" height="36" viewBox="0 0 36 36">
<g>
</g>
	<path d="M20.055 15.721h0.868v7.737h-0.868v-7.737z" fill="#000000" />
	<path d="M14.881 15.721h0.868v7.737h-0.868v-7.737z" fill="#000000" />
	<path d="M17.468 15.721h0.868v7.737h-0.868v-7.737z" fill="#000000" />
	<path d="M18.001 1.7c-8.949 0-16.203 7.254-16.203 16.203 0 8.948 7.254 16.203 16.203 16.203 8.948 0 16.203-7.254 16.203-16.203 0-8.949-7.254-16.203-16.203-16.203zM22.719 25.412h-9.632v-11.289h9.632v11.289zM22.442 13.47h-9.079c-0.501 0-0.908-0.407-0.908-0.908s0.407-0.908 0.908-0.908h2.848v-0.632c0-0.349 0.283-0.632 0.632-0.632h2.316c0.349 0 0.632 0.283 0.632 0.632v0.632h2.652c0.501 0 0.908 0.407 0.908 0.908s-0.407 0.908-0.908 0.908z" fill="#000000" />
</svg>
