<?xml version="1.0" encoding="utf-8"?>
<!-- Generated by IcoMoon.io -->
<!DOCTYPE svg PUBLIC "-//W3C//DTD SVG 1.1//EN" "http://www.w3.org/Graphics/SVG/1.1/DTD/svg11.dtd">
<svg version="1.1" xmlns="http://www.w3.org/2000/svg" xmlns:xlink="http://www.w3.org/1999/xlink" width="36" height="36" viewBox="0 0 36 36">
<g>
</g>
	<path d="M19.446 15.003c-0.471 0-0.943 0.032-1.352 0.127-0.754 0.22-1.353 0.693-1.353 1.7 0 0.788 0.41 1.323 1.101 1.323 0.094 0 0.188-0.032 0.251-0.032 0.409-0.095 0.786-0.379 1.005-0.82 0.378-0.628 0.347-1.194 0.347-1.919v-0.38z" fill="#000000" />
	<path d="M17.902 1.699c-8.949 0-16.203 7.254-16.203 16.203s7.254 16.203 16.203 16.203c8.949 0 16.203-7.254 16.203-16.203s-7.254-16.203-16.203-16.203zM19.227 11.98c-0.221-0.313-0.63-0.472-1.006-0.472-0.063 0-0.095 0-0.126 0-0.629 0.064-1.194 0.41-1.353 1.102-0.031 0.158-0.125 0.315-0.313 0.347l-1.76-0.22c-0.126-0.032-0.315-0.126-0.253-0.378 0.378-1.985 2.075-2.677 3.679-2.772 0.126 0 0.252 0 0.378 0 0.879 0 2.012 0.252 2.733 0.914 0.88 0.819 0.786 1.921 0.786 3.117v2.835c0 0.848 0.345 1.227 0.692 1.668 0.093 0.157 0.125 0.347-0.032 0.473-0.347 0.316-1.007 0.881-1.383 1.197-0.126 0.095-0.282 0.095-0.44 0.031-0.597-0.503-0.691-0.724-1.038-1.197-0.597 0.63-1.1 0.976-1.697 1.167-0.376 0.095-0.786 0.156-1.288 0.156-1.509 0-2.704-0.943-2.704-2.802 0-1.48 0.786-2.487 1.95-2.961 0.596-0.282 1.319-0.409 2.043-0.502 0.471-0.064 0.944-0.095 1.352-0.128v-0.251c0.001-0.441 0.032-0.944-0.219-1.323zM24.724 22.871c-0.222 0.171-0.46 0.323-0.699 0.462-1.794 1.077-4.115 1.643-6.131 1.643-3.246 0-6.148-1.197-8.351-3.2-0.188-0.153-0.035-0.376 0.188-0.256 2.373 1.385 5.31 2.224 8.35 2.224 1.914 0 3.979-0.359 5.944-1.129 0.136-0.052 0.29-0.121 0.427-0.172 0.307-0.137 0.58 0.207 0.273 0.429zM26.346 21.776c-0.018 0.617-0.341 1.797-1.11 2.447-0.153 0.119-0.307 0.052-0.241-0.121 0.223-0.546 0.735-1.813 0.496-2.104-0.171-0.222-0.871-0.204-1.468-0.153-0.273 0.035-0.513 0.052-0.7 0.087-0.171 0.015-0.205-0.138-0.035-0.256 0.222-0.154 0.461-0.274 0.735-0.36 0.972-0.291 2.1-0.119 2.255 0.069 0.033 0.052 0.066 0.152 0.066 0.291v0.101z" fill="#000000" />
</svg>
