<?xml version="1.0" encoding="utf-8"?>
<!-- Generated by IcoMoon.io -->
<!DOCTYPE svg PUBLIC "-//W3C//DTD SVG 1.1//EN" "http://www.w3.org/Graphics/SVG/1.1/DTD/svg11.dtd">
<svg version="1.1" xmlns="http://www.w3.org/2000/svg" xmlns:xlink="http://www.w3.org/1999/xlink" width="36" height="36" viewBox="0 0 36 36">
<g>
</g>
	<path d="M18.219 1.699c-8.949 0-16.204 7.254-16.204 16.203s7.254 16.203 16.204 16.203c8.948 0 16.203-7.254 16.203-16.203 0-8.949-7.254-16.203-16.203-16.203zM20.106 24.741c0 1.042-0.846 1.888-1.888 1.888s-1.888-0.846-1.888-1.888v-8.632c0-1.043 0.845-1.888 1.888-1.888s1.888 0.845 1.888 1.888v8.632zM18.218 12.968c-1.047 0-1.896-0.848-1.896-1.897 0-1.047 0.849-1.896 1.896-1.896 1.048 0 1.896 0.849 1.896 1.896 0.001 1.048-0.848 1.897-1.896 1.897z" fill="#000000" />
</svg>
