<?xml version="1.0" encoding="utf-8"?>
<!-- Generated by IcoMoon.io -->
<!DOCTYPE svg PUBLIC "-//W3C//DTD SVG 1.1//EN" "http://www.w3.org/Graphics/SVG/1.1/DTD/svg11.dtd">
<svg version="1.1" xmlns="http://www.w3.org/2000/svg" xmlns:xlink="http://www.w3.org/1999/xlink" width="36" height="36" viewBox="0 0 36 36">
<g>
</g>
	<path d="M23.091 11.839c0 0.51-0.413 0.923-0.923 0.923s-0.923-0.413-0.923-0.923c0-0.51 0.413-0.923 0.923-0.923 0.51 0 0.923 0.413 0.923 0.923z" fill="#000000" />
	<path d="M17.903 1.699c-8.949 0-16.204 7.254-16.204 16.203s7.254 16.203 16.204 16.203c8.948 0 16.203-7.254 16.203-16.203 0-8.949-7.254-16.203-16.203-16.203zM18.090 26.546c-0.481 0.481-1.261 0.48-1.741 0l-5.291-5.292c-0.481-0.481-0.481-1.259 0-1.741l0.169-0.169 5.121 5.121c0.481 0.481 1.261 0.481 1.741 0l6.915-6.915 0.102 1.977-7.017 7.018zM18.090 22.949c-0.481 0.481-1.261 0.48-1.741 0l-5.291-5.291c-0.481-0.481-0.481-1.26 0-1.741l7.017-7.017 6.687 0.346 0.345 6.687-7.017 7.017z" fill="#000000" />
</svg>
