<?xml version="1.0" encoding="utf-8"?>
<!-- Generated by IcoMoon.io -->
<!DOCTYPE svg PUBLIC "-//W3C//DTD SVG 1.1//EN" "http://www.w3.org/Graphics/SVG/1.1/DTD/svg11.dtd">
<svg version="1.1" xmlns="http://www.w3.org/2000/svg" xmlns:xlink="http://www.w3.org/1999/xlink" width="36" height="36" viewBox="0 0 36 36">
<g>
</g>
	<path d="M17.903 1.699c-8.949 0-16.204 7.254-16.204 16.203s7.254 16.203 16.204 16.203c8.948 0 16.203-7.254 16.203-16.203 0-8.949-7.254-16.203-16.203-16.203zM22.968 10.050l0.817 0.817-10.122 10.124-0.818-0.819 10.122-10.122zM23.841 10.924l1.033 1.033-10.123 10.122-1.033-1.033 10.123-10.122zM10.92 24.927l1.469-4.261 2.793 2.793-4.262 1.468zM15.674 23.001l-0.867-0.867 10.123-10.122 0.867 0.867-10.123 10.122zM25.848 12.819l-2.819-2.819c0.784-0.734 2.012-0.724 2.777 0.042 0.765 0.764 0.776 1.993 0.042 2.777z" fill="#000000" />
</svg>
