<?xml version="1.0" encoding="utf-8"?>
<!-- Generated by IcoMoon.io -->
<!DOCTYPE svg PUBLIC "-//W3C//DTD SVG 1.1//EN" "http://www.w3.org/Graphics/SVG/1.1/DTD/svg11.dtd">
<svg version="1.1" xmlns="http://www.w3.org/2000/svg" xmlns:xlink="http://www.w3.org/1999/xlink" width="36" height="36" viewBox="0 0 36 36">
<g>
</g>
	<path d="M17.903 1.699c-8.949 0-16.204 7.254-16.204 16.204 0 8.948 7.254 16.203 16.204 16.203 8.948 0 16.203-7.255 16.203-16.203 0-8.949-7.254-16.204-16.203-16.204zM27.257 20.754c0 0.697-0.566 1.263-1.263 1.263h-7.184v2.151h2.29v0.908h-6.139v-0.908h2.033v-2.151h-7.184c-0.697 0-1.263-0.566-1.263-1.263v-8.763c0-0.697 0.566-1.263 1.263-1.263h16.184c0.697 0 1.263 0.566 1.263 1.263v8.763z" fill="#000000" />
	<path d="M24.829 11.912h-13.853c-0.697 0-1.263 0.566-1.263 1.263v6.395c0 0.697 0.566 1.263 1.263 1.263h13.854c0.697 0 1.263-0.566 1.263-1.263v-6.395c-0.001-0.698-0.566-1.263-1.264-1.263z" fill="#000000" />
</svg>
