<?xml version="1.0" encoding="utf-8"?>
<!-- Generated by IcoMoon.io -->
<!DOCTYPE svg PUBLIC "-//W3C//DTD SVG 1.1//EN" "http://www.w3.org/Graphics/SVG/1.1/DTD/svg11.dtd">
<svg version="1.1" xmlns="http://www.w3.org/2000/svg" xmlns:xlink="http://www.w3.org/1999/xlink" width="36" height="36" viewBox="0 0 36 36">
<g>
</g>
	<path d="M14.324 11.007h7.026v12h-7.026v-12z" fill="#000000" />
	<path d="M18.692 24.507c0 0.436-0.353 0.789-0.789 0.789s-0.789-0.353-0.789-0.789c0-0.436 0.353-0.789 0.789-0.789 0.436 0 0.789 0.353 0.789 0.789z" fill="#000000" />
	<path d="M17.903 1.699c-8.949 0-16.204 7.254-16.204 16.203 0 8.948 7.254 16.203 16.204 16.203 8.948 0 16.203-7.255 16.203-16.203 0-8.949-7.254-16.203-16.203-16.203zM22.613 24.717c0 0.697-0.566 1.263-1.263 1.263h-6.895c-0.697 0-1.263-0.566-1.263-1.263v-13.632c0-0.697 0.566-1.263 1.263-1.263h6.895c0.697 0 1.263 0.566 1.263 1.263v13.632z" fill="#000000" />
</svg>
