<?xml version="1.0" encoding="utf-8"?>
<!-- Generated by IcoMoon.io -->
<!DOCTYPE svg PUBLIC "-//W3C//DTD SVG 1.1//EN" "http://www.w3.org/Graphics/SVG/1.1/DTD/svg11.dtd">
<svg version="1.1" xmlns="http://www.w3.org/2000/svg" xmlns:xlink="http://www.w3.org/1999/xlink" width="36" height="36" viewBox="0 0 36 36">
<g>
</g>
	<path d="M17.824 1.699c-8.949 0-16.203 7.254-16.203 16.203-0.001 8.948 7.254 16.203 16.203 16.203 8.948 0 16.203-7.254 16.203-16.203 0-8.949-7.254-16.204-16.203-16.204zM18.001 21.628c-4.24 0-8.079-4.059-8.079-4.059s2.73-4.839 8.079-4.839c5.348 0 8.078 4.839 8.078 4.839s-3.838 4.059-8.078 4.059z" fill="#000000" />
	<path d="M21.268 17.18c0 1.805-1.463 3.268-3.268 3.268-1.805 0-3.268-1.463-3.268-3.268 0-1.805 1.463-3.268 3.268-3.268 1.805 0 3.268 1.463 3.268 3.268z" fill="#000000" />
</svg>
