<?xml version="1.0" encoding="utf-8"?>
<!-- Generated by IcoMoon.io -->
<!DOCTYPE svg PUBLIC "-//W3C//DTD SVG 1.1//EN" "http://www.w3.org/Graphics/SVG/1.1/DTD/svg11.dtd">
<svg version="1.1" xmlns="http://www.w3.org/2000/svg" xmlns:xlink="http://www.w3.org/1999/xlink" width="36" height="36" viewBox="0 0 36 36">
<g>
</g>
	<path d="M17.869 1.834c-8.949 0-16.203 7.254-16.203 16.204 0 8.948 7.254 16.203 16.203 16.203 8.948 0 16.203-7.254 16.203-16.203 0-8.949-7.254-16.204-16.203-16.204zM12.876 20.625l2.33-3.925c0.087-0.175 0.228-0.309 0.398-0.388 0.003-0.001 0.005-0.002 0.008-0.003 0.044-0.020 0.091-0.038 0.138-0.050 0.015-0.004 0.030-0.006 0.045-0.009 0.035-0.007 0.071-0.015 0.108-0.016 0.031-0.003 0.063-0.001 0.095 0 0.021 0.001 0.041 0 0.062 0.003 0.052 0.006 0.105 0.017 0.158 0.033h0.001c0.013 0.004 0.027 0.008 0.039 0.013l1.73 0.552 0.952-3.186c0.013-0.087 0.037-0.173 0.076-0.255l0.003-0.010c0.111-0.37 0.453-0.604 0.821-0.601 0.179-0.008 0.364 0.039 0.522 0.152l1.54 1.091 0.931-1.843-1.396-0.705 3.152-1.037 1.037 3.152-1.28-0.646-1.422 2.818c-0.16 0.317-0.493 0.489-0.827 0.461-0.181 0.008-0.365-0.039-0.524-0.152l-1.258-0.891-0.841 2.815c-0.005 0.063-0.015 0.127-0.036 0.189l-0.051 0.16c-0.143 0.445-0.619 0.692-1.065 0.549l-1.998-0.638-1.938 3.263c-0.239 0.403-0.759 0.535-1.161 0.297l-0.053-0.033c-0.401-0.239-0.534-0.758-0.295-1.161zM25.879 25.632h-15.953v-15.19h1.624v13.258h14.329v1.932z" fill="#000000" />
</svg>
