<?xml version="1.0" encoding="utf-8"?>
<!-- Generated by IcoMoon.io -->
<!DOCTYPE svg PUBLIC "-//W3C//DTD SVG 1.1//EN" "http://www.w3.org/Graphics/SVG/1.1/DTD/svg11.dtd">
<svg version="1.1" xmlns="http://www.w3.org/2000/svg" xmlns:xlink="http://www.w3.org/1999/xlink" width="36" height="36" viewBox="0 0 36 36">
<g>
</g>
	<path d="M18 1.699c-8.949 0-16.203 7.254-16.203 16.203 0 8.948 7.254 16.203 16.203 16.203 8.948 0 16.203-7.254 16.203-16.203-0.001-8.949-7.255-16.204-16.203-16.204zM17.132 23.926c-0.61 0-1.105-0.495-1.105-1.105s0.495-1.105 1.105-1.105 1.105 0.495 1.105 1.105-0.495 1.105-1.105 1.105zM23.961 23.828c-0.589 0-1.066-0.477-1.066-1.066s0.477-1.066 1.066-1.066 1.066 0.477 1.066 1.066-0.477 1.066-1.066 1.066zM24.273 20.926h-7.86c-0.342 0-0.62-0.227-0.712-0.533-0.038-0.052-0.073-0.109-0.103-0.171l-3.403-6.87h-1.563c-0.407 0-0.737-0.33-0.737-0.737 0-0.407 0.33-0.737 0.737-0.737h1.842c0.337 0 0.608 0.23 0.697 0.538 0.006 0.011 0.013 0.021 0.019 0.033l3.468 7.003h7.614c0.416 0 0.755 0.33 0.755 0.736 0.001 0.407-0.339 0.738-0.754 0.738zM24.603 18.665h-7.422l-2.010-4.658h10.737l-1.305 4.658z" fill="#000000" />
</svg>
