<?xml version="1.0" encoding="utf-8"?>
<!-- Generated by IcoMoon.io -->
<!DOCTYPE svg PUBLIC "-//W3C//DTD SVG 1.1//EN" "http://www.w3.org/Graphics/SVG/1.1/DTD/svg11.dtd">
<svg version="1.1" xmlns="http://www.w3.org/2000/svg" xmlns:xlink="http://www.w3.org/1999/xlink" width="36" height="36" viewBox="0 0 36 36">
<g>
</g>
	<path d="M17.936 12.813c-1.004 0-2.158 0.618-2.158 1.977v0.479c0 0.031-0.005 0.371 0.057 0.541 0.417 1.066 1.263 1.452 2.034 1.452 1.236 0 2.258-0.988 2.258-2.224 0-1.236-0.956-2.224-2.191-2.224z" fill="#000000" />
	<path d="M17.903 1.699c-8.949 0-16.204 7.254-16.204 16.204 0 8.948 7.254 16.203 16.204 16.203 8.948 0 16.203-7.254 16.203-16.203 0-8.949-7.254-16.204-16.203-16.204zM23.888 15.376c0 1.993-1.766 4.017-2.862 6.025-0.108 0.2-0.344 0.417-0.467 0.633-0.186 0.325-0.4 0.665-0.585 1.005-0.68 1.158-1.373 2.363-2.068 3.553-1.127-1.823-2.265-3.645-3.362-5.499-1.019-1.73-2.384-3.568-2.601-5.298-0.016-0.139-0.027-0.417-0.027-0.448v-0.742c0.386-3.63 3.279-5.391 5.905-5.391 1.962 0 4.392 0.958 5.504 3.63 0.093 0.216 0.219 0.464 0.28 0.695 0.016 0.047 0.283 0.803 0.283 1.020v0.818z" fill="#000000" />
</svg>
