<?xml version="1.0" encoding="utf-8"?>
<!-- Generated by IcoMoon.io -->
<!DOCTYPE svg PUBLIC "-//W3C//DTD SVG 1.1//EN" "http://www.w3.org/Graphics/SVG/1.1/DTD/svg11.dtd">
<svg version="1.1" xmlns="http://www.w3.org/2000/svg" xmlns:xlink="http://www.w3.org/1999/xlink" width="36" height="36" viewBox="0 0 36 36">
<g>
</g>
	<path d="M17.903 1.699c-8.949 0-16.204 7.254-16.204 16.203 0 8.948 7.254 16.203 16.204 16.203 8.948 0 16.203-7.255 16.203-16.203 0-8.949-7.254-16.203-16.203-16.203zM24.589 13.314c0.493 0.493 0.493 1.293 0 1.787l-10.83 10.83c-0.493 0.493-1.293 0.493-1.787 0l-2.456-2.457c-0.493-0.493-0.493-1.293 0-1.786l10.83-10.83c0.493-0.493 1.293-0.493 1.786 0l0.474 0.474 1.32-1.32 1.786 1.786-1.32 1.32 0.198 0.196z" fill="#000000" />
	<path d="M10.7 21.935c-0.44 0.439-0.44 1.153 0 1.592l1.244 1.245c0.44 0.439 1.153 0.439 1.592 0l6.345-6.346h-5.673l-3.509 3.51z" fill="#000000" />
</svg>
