<?xml version="1.0" encoding="utf-8"?>
<!-- Generated by IcoMoon.io -->
<!DOCTYPE svg PUBLIC "-//W3C//DTD SVG 1.1//EN" "http://www.w3.org/Graphics/SVG/1.1/DTD/svg11.dtd">
<svg version="1.1" xmlns="http://www.w3.org/2000/svg" xmlns:xlink="http://www.w3.org/1999/xlink" width="36" height="36" viewBox="0 0 36 36">
<g>
</g>
	<path d="M17.903 1.7c-8.949 0-16.204 7.254-16.204 16.203 0 8.949 7.254 16.203 16.204 16.203 8.948 0 16.203-7.254 16.203-16.203 0-8.948-7.254-16.203-16.203-16.203zM24.534 23.034c0 0.349-0.282 0.632-0.632 0.632h-12c-0.349 0-0.632-0.282-0.632-0.632v-8.842c0-0.349 0.283-0.632 0.632-0.632h0.632v-1.421h1.263v1.421h8.211v-1.421h1.263v1.421h0.632c0.349 0 0.632 0.283 0.632 0.632v8.842z" fill="#000000" />
	<path d="M12.273 15.903c0-0.308 0.249-0.557 0.558-0.557h1.3c0.308 0 0.558 0.249 0.558 0.557v1.021c0 0.308-0.25 0.558-0.558 0.558h-1.3c-0.308 0-0.558-0.25-0.558-0.558v-1.021zM12.327 18.283c0-0.307 0.249-0.558 0.557-0.558h1.301c0.307 0 0.557 0.25 0.557 0.558v1.021c0 0.308-0.25 0.558-0.557 0.558h-1.301c-0.308 0-0.557-0.249-0.557-0.558v-1.021zM14.742 21.659c0 0.308-0.249 0.559-0.558 0.559h-1.3c-0.308 0-0.558-0.25-0.558-0.559v-1.020c0-0.308 0.249-0.559 0.558-0.559h1.3c0.308 0 0.558 0.25 0.558 0.559v1.020zM15.236 15.903c0-0.308 0.25-0.557 0.557-0.557h1.301c0.308 0 0.558 0.249 0.558 0.557v1.021c0 0.308-0.249 0.558-0.558 0.558h-1.301c-0.307 0-0.557-0.25-0.557-0.558v-1.021zM15.29 18.283c0-0.307 0.25-0.558 0.558-0.558h1.3c0.308 0 0.557 0.25 0.557 0.558v1.021c0 0.308-0.249 0.558-0.557 0.558h-1.3c-0.308 0-0.558-0.249-0.558-0.558v-1.021zM17.706 21.659c0 0.308-0.249 0.559-0.557 0.559h-1.301c-0.308 0-0.557-0.25-0.557-0.559v-1.020c0-0.308 0.249-0.559 0.557-0.559h1.301c0.308 0 0.557 0.25 0.557 0.559v1.020zM18.145 15.915c0-0.308 0.249-0.557 0.558-0.557h1.301c0.308 0 0.558 0.249 0.558 0.557v1.021c0 0.308-0.249 0.558-0.558 0.558h-1.301c-0.308 0-0.558-0.25-0.558-0.558v-1.021zM18.198 18.295c0-0.307 0.249-0.558 0.557-0.558h1.302c0.308 0 0.557 0.25 0.557 0.558v1.021c0 0.308-0.249 0.558-0.557 0.558h-1.302c-0.308 0-0.557-0.249-0.557-0.558v-1.021zM20.615 21.671c0 0.308-0.249 0.559-0.557 0.559h-1.302c-0.308 0-0.557-0.25-0.557-0.559v-1.020c0-0.308 0.249-0.559 0.557-0.559h1.302c0.308 0 0.557 0.25 0.557 0.559v1.020zM21.062 15.903c0-0.308 0.25-0.557 0.558-0.557h1.3c0.308 0 0.558 0.249 0.558 0.557v1.021c0 0.308-0.249 0.558-0.558 0.558h-1.301c-0.308 0-0.558-0.249-0.558-0.558v-1.021zM21.116 18.283c0-0.308 0.25-0.558 0.558-0.558h1.3c0.308 0 0.558 0.249 0.558 0.558v1.021c0 0.308-0.249 0.558-0.558 0.558h-1.3c-0.308 0-0.558-0.249-0.558-0.558v-1.021zM23.531 21.659c0 0.308-0.249 0.558-0.558 0.558h-1.3c-0.308 0-0.558-0.249-0.558-0.558v-1.021c0-0.307 0.25-0.558 0.558-0.558h1.3c0.308 0 0.558 0.25 0.558 0.558v1.021z" fill="#000000" />
</svg>
