<?xml version="1.0" encoding="utf-8"?>
<!-- Generated by IcoMoon.io -->
<!DOCTYPE svg PUBLIC "-//W3C//DTD SVG 1.1//EN" "http://www.w3.org/Graphics/SVG/1.1/DTD/svg11.dtd">
<svg version="1.1" xmlns="http://www.w3.org/2000/svg" xmlns:xlink="http://www.w3.org/1999/xlink" width="36" height="36" viewBox="0 0 36 36">
<g>
</g>
	<path d="M20.704 17.9c0 1.54-1.249 2.789-2.789 2.789s-2.789-1.249-2.789-2.789c0-1.54 1.249-2.789 2.789-2.789 1.54 0 2.789 1.249 2.789 2.789z" fill="#000000" />
	<path d="M18.001 1.699c-8.949 0-16.203 7.254-16.203 16.203 0 8.948 7.254 16.203 16.203 16.203 8.948 0 16.203-7.254 16.203-16.203 0-8.949-7.254-16.204-16.203-16.204zM25.995 21.583c0 0.698-0.566 1.263-1.263 1.263h-13.631c-0.697 0-1.263-0.565-1.263-1.263v-6.894c0-0.697 0.566-1.263 1.263-1.263h11.421v-0.895h1.948v0.895h0.263c0.697 0 1.263 0.566 1.263 1.263v6.894z" fill="#000000" />
</svg>
