<?xml version="1.0" encoding="utf-8"?>
<!-- Generated by IcoMoon.io -->
<!DOCTYPE svg PUBLIC "-//W3C//DTD SVG 1.1//EN" "http://www.w3.org/Graphics/SVG/1.1/DTD/svg11.dtd">
<svg version="1.1" xmlns="http://www.w3.org/2000/svg" xmlns:xlink="http://www.w3.org/1999/xlink" width="36" height="36" viewBox="0 0 36 36">
<g>
</g>
	<path d="M17.903 1.699c-8.949 0-16.204 7.254-16.204 16.203s7.254 16.203 16.204 16.203c8.948 0 16.203-7.254 16.203-16.203 0-8.949-7.254-16.203-16.203-16.203zM13.441 24.079c0 0.545-0.442 0.987-0.987 0.987s-0.987-0.441-0.987-0.987v-4.026c0-0.544 0.442-0.987 0.987-0.987s0.987 0.442 0.987 0.987v4.026zM24.336 24.079c0 0.545-0.441 0.987-0.987 0.987s-0.987-0.441-0.987-0.987v-4.026c0-0.544 0.441-0.987 0.987-0.987s0.987 0.442 0.987 0.987v4.026zM25.915 21.592h-1.263v-5.132c0-3.14-2.545-5.684-5.684-5.684h-2.132c-3.14 0-5.684 2.545-5.684 5.684v5.132h-1.263v-5.132c0-3.837 3.111-6.947 6.947-6.947h2.132c3.837 0 6.947 3.111 6.947 6.947v5.132z" fill="#000000" />
</svg>
