<?xml version="1.0" encoding="utf-8"?>
<!-- Generated by IcoMoon.io -->
<!DOCTYPE svg PUBLIC "-//W3C//DTD SVG 1.1//EN" "http://www.w3.org/Graphics/SVG/1.1/DTD/svg11.dtd">
<svg version="1.1" xmlns="http://www.w3.org/2000/svg" xmlns:xlink="http://www.w3.org/1999/xlink" width="36" height="36" viewBox="0 0 36 36">
<g>
</g>
	<path d="M17.903 1.699c-8.949 0-16.204 7.254-16.204 16.203s7.254 16.203 16.204 16.203c8.948 0 16.203-7.254 16.203-16.203s-7.254-16.203-16.203-16.203zM16.903 20.927c0 0.712-0.577 1.29-1.29 1.29s-1.29-0.578-1.29-1.29v-6.050c0-0.713 0.578-1.29 1.29-1.29s1.29 0.577 1.29 1.29v6.050zM21.482 20.927c0 0.712-0.577 1.29-1.29 1.29-0.712 0-1.29-0.578-1.29-1.29v-6.050c0-0.713 0.578-1.29 1.29-1.29s1.29 0.577 1.29 1.29v6.050z" fill="#000000" />
</svg>
