<?xml version="1.0" encoding="utf-8"?>
<!-- Generated by IcoMoon.io -->
<!DOCTYPE svg PUBLIC "-//W3C//DTD SVG 1.1//EN" "http://www.w3.org/Graphics/SVG/1.1/DTD/svg11.dtd">
<svg version="1.1" xmlns="http://www.w3.org/2000/svg" xmlns:xlink="http://www.w3.org/1999/xlink" width="36" height="36" viewBox="0 0 36 36">
<g>
</g>
	<path d="M17.902 1.7c-8.949 0-16.203 7.254-16.203 16.203s7.254 16.203 16.203 16.203c8.949 0 16.203-7.254 16.203-16.203s-7.254-16.203-16.203-16.203zM23.418 22.116c0 0.37-0.3 0.671-0.67 0.671s-0.671-0.301-0.671-0.671v-4.215l-4.883 4.885v-4.808l-4.806 4.807v-9.767l4.806 4.805v-4.805l4.883 4.883v-4.213c0-0.37 0.301-0.67 0.671-0.67s0.67 0.3 0.67 0.67v8.428z" fill="#000000" />
</svg>
