<?xml version="1.0" encoding="utf-8"?>
<!-- Generated by IcoMoon.io -->
<!DOCTYPE svg PUBLIC "-//W3C//DTD SVG 1.1//EN" "http://www.w3.org/Graphics/SVG/1.1/DTD/svg11.dtd">
<svg version="1.1" xmlns="http://www.w3.org/2000/svg" xmlns:xlink="http://www.w3.org/1999/xlink" width="36" height="36" viewBox="0 0 36 36">
<g>
</g>
	<path d="M17.903 1.699c-8.949 0-16.204 7.254-16.204 16.203s7.254 16.203 16.204 16.203c8.948 0 16.203-7.254 16.203-16.203s-7.254-16.203-16.203-16.203zM17.572 16.057v6.183l-2.253-2.253h-2.947c-1.453 0-2.632-1.178-2.632-2.631s1.178-2.632 2.632-2.632h2.947l2.253-2.252v3.586zM19.637 21.291c-0.277 0-0.503-0.224-0.503-0.502 0-0.103 0.039-0.193 0.092-0.273l-0.012-0.010c0.623-0.791 0.997-1.785 0.997-2.867 0-1.129-0.407-2.164-1.077-2.97l0.006-0.004c-0.056-0.081-0.097-0.174-0.097-0.281 0-0.277 0.224-0.502 0.502-0.502 0.152 0 0.284 0.071 0.377 0.179l0.008-0.006c0.803 0.976 1.287 2.225 1.287 3.585 0 1.324-0.46 2.54-1.224 3.505v0c-0.092 0.091-0.217 0.147-0.356 0.147zM21.105 22.665c-0.277 0-0.503-0.224-0.503-0.502 0-0.151 0.069-0.282 0.175-0.375l-0.009-0.008c0.908-1.137 1.452-2.577 1.452-4.141 0-1.591-0.562-3.052-1.497-4.198l0.002-0.001c-0.073-0.087-0.122-0.196-0.122-0.318 0-0.277 0.224-0.502 0.502-0.502 0.169 0 0.311 0.089 0.402 0.217l0.011-0.008c1.066 1.316 1.707 2.991 1.707 4.813 0 1.806-0.63 3.466-1.679 4.776l-0.010-0.008c-0.087 0.151-0.243 0.257-0.429 0.257zM23.097 23.689v0c-0.092 0.107-0.224 0.177-0.376 0.177-0.277 0-0.503-0.224-0.503-0.502 0-0.117 0.046-0.219 0.112-0.303l-0.010-0.009c1.193-1.485 1.908-3.366 1.908-5.413 0-2.053-0.72-3.94-1.917-5.426l0.010-0.008c-0.060-0.083-0.102-0.179-0.102-0.289 0-0.277 0.225-0.502 0.503-0.502 0.156 0 0.29 0.075 0.381 0.186l0.001-0.001c1.329 1.656 2.128 3.755 2.128 6.039-0.001 2.288-0.801 4.391-2.135 6.049z" fill="#000000" />
</svg>
