<?xml version="1.0" encoding="utf-8"?>
<!-- Generated by IcoMoon.io -->
<!DOCTYPE svg PUBLIC "-//W3C//DTD SVG 1.1//EN" "http://www.w3.org/Graphics/SVG/1.1/DTD/svg11.dtd">
<svg version="1.1" xmlns="http://www.w3.org/2000/svg" xmlns:xlink="http://www.w3.org/1999/xlink" width="36" height="36" viewBox="0 0 36 36">
<g>
</g>
	<path d="M17.902 1.7c-8.949 0-16.203 7.254-16.203 16.203s7.254 16.203 16.203 16.203c8.949 0 16.203-7.254 16.203-16.203s-7.254-16.203-16.203-16.203zM18.013 17.583c-0.426 0.426-1.119 0.427-1.545 0l-3.793-3.792-2.133 2.133-0.001-5.811 5.812-0.001-2.133 2.133 3.793 3.792c0.426 0.427 0.426 1.119 0 1.545zM20.312 25.693l2.133-2.133-3.792-3.792c-0.428-0.427-0.428-1.119 0-1.544 0.426-0.427 1.118-0.428 1.544 0l3.793 3.792 2.133-2.134 0.001 5.811-5.812 0.001z" fill="#000000" />
</svg>
