<?xml version="1.0" encoding="utf-8"?>
<!-- Generated by IcoMoon.io -->
<!DOCTYPE svg PUBLIC "-//W3C//DTD SVG 1.1//EN" "http://www.w3.org/Graphics/SVG/1.1/DTD/svg11.dtd">
<svg version="1.1" xmlns="http://www.w3.org/2000/svg" xmlns:xlink="http://www.w3.org/1999/xlink" width="36" height="36" viewBox="0 0 36 36">
<g>
</g>
	<path d="M17.903 1.699c-8.949 0-16.203 7.254-16.203 16.203-0.001 8.949 7.254 16.203 16.203 16.203 8.948 0 16.203-7.254 16.203-16.203 0-8.949-7.254-16.204-16.203-16.204zM25.687 26.389c-0.585 0.586-1.535 0.586-2.121 0l-7.281-7.281c-2.040 1.096-4.637 0.785-6.359-0.937-1.514-1.514-1.933-3.703-1.269-5.596l4.074 4.074 3.349-3.349-4.048-4.048c1.875-0.623 4.022-0.195 5.514 1.298 1.75 1.75 2.040 4.403 0.879 6.458l7.26 7.261c0.587 0.586 0.587 1.535 0.001 2.121z" fill="#000000" />
</svg>
