<?xml version="1.0" encoding="utf-8"?>
<!-- Generated by IcoMoon.io -->
<!DOCTYPE svg PUBLIC "-//W3C//DTD SVG 1.1//EN" "http://www.w3.org/Graphics/SVG/1.1/DTD/svg11.dtd">
<svg version="1.1" xmlns="http://www.w3.org/2000/svg" xmlns:xlink="http://www.w3.org/1999/xlink" width="36" height="36" viewBox="0 0 36 36">
<g>
</g>
	<path d="M24.294 23.118c0 0.831-0.674 1.505-1.505 1.505-0.831 0-1.505-0.674-1.505-1.505 0-0.831 0.674-1.505 1.505-1.505 0.831 0 1.505 0.674 1.505 1.505z" fill="#000000" />
	<path d="M17.664 15.716c0 1.288-1.044 2.332-2.332 2.332-1.288 0-2.332-1.044-2.332-2.332 0-1.288 1.044-2.332 2.332-2.332 1.288 0 2.332 1.044 2.332 2.332z" fill="#000000" />
	<path d="M17.902 1.699c-8.949 0-16.203 7.254-16.203 16.203s7.254 16.203 16.203 16.203c8.948 0 16.203-7.254 16.203-16.203 0-8.949-7.254-16.203-16.203-16.203zM16.582 21.793l-0.731-1.144h-1.040l-0.731 1.146c-0.784-0.16-1.512-0.471-2.157-0.897l0.040-0.040 0.295-1.333-0.735-0.735-1.334 0.295-0.041 0.040c-0.412-0.625-0.714-1.329-0.878-2.085h0.044l1.152-0.735v-1.040l-1.152-0.735h-0.072c0.157-0.807 0.469-1.559 0.906-2.222l0.040 0.040 1.334 0.295 0.735-0.735-0.295-1.334-0.040-0.040c0.645-0.425 1.372-0.735 2.154-0.896v0.129l0.735 1.152h1.040l0.735-1.152v-0.129c0.782 0.16 1.509 0.471 2.153 0.895l-0.039 0.040-0.296 1.335 0.735 0.735 1.334-0.296 0.040-0.040c0.436 0.663 0.75 1.413 0.906 2.221h-0.070l-1.153 0.735v1.040l1.153 0.735h0.042c-0.164 0.755-0.465 1.46-0.877 2.085l-0.040-0.040-1.334-0.295-0.735 0.734 0.295 1.335 0.040 0.040c-0.645 0.427-1.373 0.738-2.157 0.897zM26.716 23.896l-0.034-0.015-0.87 0.149-0.261 0.617 0.501 0.726 0.035 0.015c-0.291 0.422-0.663 0.792-1.108 1.082l-0.017-0.042-0.72-0.511-0.621 0.253-0.16 0.867 0.010 0.025c-0.49 0.087-0.985 0.076-1.46-0.017l0.015-0.033-0.148-0.871-0.618-0.26-0.726 0.501-0.015 0.035c-0.412-0.282-0.775-0.643-1.061-1.072l0.508-0.716-0.253-0.621-0.863-0.158c-0.094-0.508-0.087-1.019 0.011-1.509l0.035 0.013 0.869-0.147 0.261-0.618-0.5-0.725-0.037-0.016c0.273-0.397 0.621-0.749 1.033-1.031l0.011 0.026 0.72 0.511 0.621-0.253 0.159-0.867-0.018-0.043c0.52-0.102 1.046-0.099 1.549 0.001l-0.014 0.035 0.148 0.87 0.618 0.26 0.726-0.501 0.015-0.035c0.41 0.282 0.773 0.642 1.059 1.069l-0.077 0.032-0.51 0.719 0.252 0.621 0.867 0.159 0.078-0.032c0.094 0.507 0.086 1.017-0.011 1.506z" fill="#000000" />
</svg>
