<?xml version="1.0" encoding="utf-8"?>
<!-- Generated by IcoMoon.io -->
<!DOCTYPE svg PUBLIC "-//W3C//DTD SVG 1.1//EN" "http://www.w3.org/Graphics/SVG/1.1/DTD/svg11.dtd">
<svg version="1.1" xmlns="http://www.w3.org/2000/svg" xmlns:xlink="http://www.w3.org/1999/xlink" width="36" height="36" viewBox="0 0 36 36">
<g>
</g>
	<path d="M17.902 1.698c-8.949 0-16.203 7.254-16.203 16.204 0 8.948 7.254 16.203 16.203 16.203 8.948 0 16.203-7.254 16.203-16.203 0.001-8.949-7.254-16.204-16.202-16.204zM23.039 23.037c-0.504 0.504-1.321 0.504-1.825 0l-3.311-3.311-3.311 3.311c-0.503 0.504-1.321 0.504-1.825 0s-0.503-1.321 0-1.824l3.311-3.311-3.312-3.312c-0.503-0.503-0.503-1.321 0-1.824 0.504-0.504 1.32-0.504 1.824 0l3.312 3.312 3.311-3.312c0.504-0.503 1.321-0.504 1.825 0 0.503 0.503 0.503 1.321 0 1.825l-3.311 3.311 3.311 3.311c0.505 0.503 0.505 1.32 0.002 1.824z" fill="#000000" />
</svg>
