<?xml version="1.0" encoding="utf-8"?>
<!-- Generated by IcoMoon.io -->
<!DOCTYPE svg PUBLIC "-//W3C//DTD SVG 1.1//EN" "http://www.w3.org/Graphics/SVG/1.1/DTD/svg11.dtd">
<svg version="1.1" xmlns="http://www.w3.org/2000/svg" xmlns:xlink="http://www.w3.org/1999/xlink" width="36" height="36" viewBox="0 0 36 36">
<g>
</g>
	<path d="M17.902 1.699c-8.949 0-16.203 7.254-16.203 16.203 0 8.949 7.254 16.203 16.203 16.203 8.949 0 16.203-7.254 16.203-16.203 0-8.949-7.254-16.204-16.203-16.204zM25.266 12.076c1.199 0 2.171 0.972 2.171 2.171s-0.972 2.171-2.171 2.171-2.171-0.971-2.171-2.171 0.972-2.171 2.171-2.171zM17.902 10.116c1.74 0 3.151 1.41 3.151 3.151s-1.41 3.151-3.151 3.151-3.151-1.41-3.151-3.151 1.411-3.151 3.151-3.151zM10.539 12.076c1.199 0 2.171 0.972 2.171 2.171 0 1.199-0.972 2.17-2.171 2.17s-2.171-0.971-2.171-2.17c0.001-1.199 0.973-2.171 2.171-2.171zM7.648 23.267c0-3.165 1.38-5.73 3.083-5.73 1.162 0 2.173 1.196 2.697 2.961-0.347 0.813-0.61 1.749-0.767 2.769h-5.013zM13.429 25.688c0-4.592 2.003-8.316 4.473-8.316s4.473 3.723 4.473 8.316h-8.947zM23.144 23.267c-0.157-1.019-0.421-1.956-0.767-2.769 0.525-1.765 1.536-2.961 2.697-2.961 1.703 0 3.083 2.565 3.083 5.73h-5.013z" fill="#000000" />
</svg>
