<?xml version="1.0" encoding="utf-8"?>
<!-- Generated by IcoMoon.io -->
<!DOCTYPE svg PUBLIC "-//W3C//DTD SVG 1.1//EN" "http://www.w3.org/Graphics/SVG/1.1/DTD/svg11.dtd">
<svg version="1.1" xmlns="http://www.w3.org/2000/svg" xmlns:xlink="http://www.w3.org/1999/xlink" width="36" height="36" viewBox="0 0 36 36">
<g>
</g>
	<path d="M17.903 1.699c-8.949 0-16.203 7.254-16.203 16.203-0.001 8.949 7.254 16.203 16.203 16.203 8.948 0 16.203-7.254 16.203-16.203 0-8.949-7.254-16.204-16.203-16.204zM17.902 10.116c1.74 0 3.151 1.41 3.151 3.151s-1.41 3.151-3.151 3.151-3.151-1.41-3.151-3.151 1.411-3.151 3.151-3.151zM13.429 25.688c0-4.592 2.003-8.316 4.473-8.316s4.473 3.723 4.473 8.316h-8.947z" fill="#000000" />
</svg>
