<?xml version="1.0" encoding="utf-8"?>
<!-- Generated by IcoMoon.io -->
<!DOCTYPE svg PUBLIC "-//W3C//DTD SVG 1.1//EN" "http://www.w3.org/Graphics/SVG/1.1/DTD/svg11.dtd">
<svg version="1.1" xmlns="http://www.w3.org/2000/svg" xmlns:xlink="http://www.w3.org/1999/xlink" width="36" height="36" viewBox="0 0 36 36">
<g>
</g>
	<path d="M20.851 8.711c-2.562 0-4.639 2.077-4.639 4.638s2.077 4.638 4.639 4.638c2.562 0 4.638-2.077 4.638-4.638s-2.077-4.638-4.638-4.638zM22.671 13.852h-1.317v1.317c0 0.278-0.225 0.503-0.503 0.503s-0.503-0.225-0.503-0.503v-1.317h-1.317c-0.278 0-0.503-0.225-0.503-0.503s0.225-0.503 0.503-0.503h1.317v-1.318c0-0.277 0.225-0.503 0.503-0.503 0.277 0 0.503 0.225 0.503 0.503v1.318h1.318c0.277 0 0.503 0.225 0.503 0.503s-0.225 0.503-0.503 0.503z" fill="#000000" />
	<path d="M17.903 1.785c-8.949 0-16.203 7.254-16.203 16.203 0 8.948 7.254 16.203 16.203 16.203 8.948 0 16.203-7.255 16.203-16.203 0-8.949-7.254-16.203-16.203-16.203zM20.825 19.511c-1.431 0-2.745-0.487-3.797-1.298-1.827 1.833-7.368 7.388-7.368 7.388-0.3 0.3-0.786 0.3-1.086 0-0.299-0.301-0.3-0.786 0-1.087 0 0 5.556-5.545 7.382-7.365 0-0.001-0.001-0.001-0.001-0.001-0.212-0.265-0.409-0.543-0.575-0.841-0.498-0.895-0.781-1.925-0.781-3.022 0-3.439 2.788-6.227 6.227-6.227 3.438 0 6.226 2.788 6.226 6.227s-2.788 6.227-6.226 6.227z" fill="#000000" />
</svg>
