<?xml version="1.0" encoding="utf-8"?>
<!-- Generated by IcoMoon.io -->
<!DOCTYPE svg PUBLIC "-//W3C//DTD SVG 1.1//EN" "http://www.w3.org/Graphics/SVG/1.1/DTD/svg11.dtd">
<svg version="1.1" xmlns="http://www.w3.org/2000/svg" xmlns:xlink="http://www.w3.org/1999/xlink" width="36" height="36" viewBox="0 0 36 36">
<g>
</g>
	<path d="M17.903 1.699c-8.949 0-16.203 7.254-16.203 16.203 0 8.949 7.254 16.203 16.203 16.203 8.948 0 16.203-7.254 16.203-16.203 0-8.949-7.254-16.204-16.203-16.204zM24.486 17.36v6.263h-4.914l-0.001-4.29-2.895 0.026-0.025 4.264h-5.313v-6.264h0.013l6.562-4.098 6.573 4.077v0.021zM25.509 17.289c-0.080 0.129-0.251 0.168-0.38 0.088l-1.342-0.841c-0.005-0.003-0.008-0.009-0.013-0.013l-5.862-3.699-5.871 3.705c-0.003 0.002-0.004 0.004-0.006 0.006l-0.416 0.261-0.361 0.227-0.001-0.001-0.577 0.361c-0.13 0.081-0.303 0.042-0.383-0.088-0.081-0.13-0.042-0.303 0.088-0.383l1.355-0.848c0.011-0.007 0.024-0.008 0.035-0.013l6.134-3.871 0.003 0.005 0.003-0.005 6.162 3.889c0.001 0 0.001 0 0.002 0.001l1.343 0.84c0.128 0.080 0.168 0.25 0.087 0.379z" fill="#000000" />
</svg>
