<?xml version="1.0" encoding="utf-8"?>
<!-- Generator: Adobe Illustrator 15.1.0, SVG Export Plug-In  -->
<!DOCTYPE svg PUBLIC "-//W3C//DTD SVG 1.1//EN" "http://www.w3.org/Graphics/SVG/1.1/DTD/svg11.dtd" [
	<!ENTITY ns_flows "http://ns.adobe.com/Flows/1.0/">
]>
<svg version="1.1"
	 xmlns="http://www.w3.org/2000/svg" xmlns:xlink="http://www.w3.org/1999/xlink" xmlns:a="http://ns.adobe.com/AdobeSVGViewerExtensions/3.0/"
	 x="0px" y="0px" width="200px" height="200px" viewBox="-2.052 -2.052 200 200"
	 overflow="visible" enable-background="new -2.052 -2.052 200 200" xml:space="preserve">
<defs>
</defs>
<path stroke="#FFFFFF" stroke-miterlimit="10" d="M37.161,132.287c0,1.652,2.125,3.896,4.722,3.896c2.361,0,5.43-2.243,6.846-9.207
	l1.417-6.847C42.827,122.607,37.161,125.913,37.161,132.287z"/>
<path stroke="#FFFFFF" stroke-miterlimit="10" d="M97.948,0.5C44.129,0.5,0.5,44.129,0.5,97.948s43.629,97.448,97.448,97.448
	s97.448-43.629,97.448-97.448S151.768,0.5,97.948,0.5z M73.99,32.896c5.194,0,9.443,4.25,9.443,9.443
	c0,5.194-4.25,9.326-9.443,9.326s-9.325-4.131-9.325-9.326C64.665,37.146,68.796,32.896,73.99,32.896z M127.345,117.178
	c-8.026,0-13.221-3.069-14.401-9.798c-5.548,5.076-11.922,9.798-16.88,9.798c-7.201,0-12.24-2.531-14.028-7.979
	c-3.513,2.737-8.465,4.578-13.83,6.091l-2.361,11.332c-3.541,16.88-13.457,20.067-21.248,20.067
	c-7.201,0-13.929-5.076-13.929-12.749c0-10.859,9.207-14.256,20.303-17.561l12.395-57.931h16.998l-10.978,51.557
	c4.418-2.139,8.616-4.958,12.137-8.716c0.117-0.928,0.278-1.789,0.494-2.816l8.499-40.025h16.998l-8.499,39.988
	c-0.236,1.299-0.472,2.524-0.472,3.587c0,2.597,1.18,4.448,5.901,4.448c2.479,0,5.431-1.788,8.264-4.148
	c0-1.181,0.235-2.46,0.59-3.877l8.499-39.998h16.998l-8.499,39.988c-0.354,1.652-0.59,2.997-0.59,4.295
	c0,2.243,1.062,3.74,4.485,3.74c11.568,0,19.477-25.869,19.477-38.735c-0.708,0.236-1.771,0.463-2.479,0.463
	c-3.423,0-4.958-3.31-4.958-6.615c0-2.479,2.833-5.786,6.729-5.786c5.076,0,7.555,4.484,7.555,10.623
	C160.515,84.835,151.189,117.178,127.345,117.178z"/>
</svg>
