<?xml version="1.0" encoding="utf-8"?>
<!-- Generator: Adobe Illustrator 15.1.0, SVG Export Plug-In . SVG Version: 6.00 Build 0)  -->
<!DOCTYPE svg PUBLIC "-//W3C//DTD SVG 1.1//EN" "http://www.w3.org/Graphics/SVG/1.1/DTD/svg11.dtd">
<svg version="1.1" id="Layer_1" xmlns="http://www.w3.org/2000/svg" xmlns:xlink="http://www.w3.org/1999/xlink" x="0px" y="0px"
	 width="200px" height="200px" viewBox="0 0 200 200" enable-background="new 0 0 200 200" xml:space="preserve">
<g>
	<path fill="#FFFFFF" stroke="#FFFFFF" stroke-miterlimit="10" d="M39.212,134.339c0,1.652,2.125,3.896,4.722,3.896
		c2.361,0,5.43-2.243,6.846-9.207l1.417-6.847C44.878,124.659,39.212,127.965,39.212,134.339z"/>
	<path fill="#FFFFFF" stroke="#FFFFFF" stroke-miterlimit="10" d="M100,2.552C46.181,2.552,2.552,46.181,2.552,100
		S46.181,197.448,100,197.448s97.448-43.629,97.448-97.448S153.819,2.552,100,2.552z M76.042,34.947c5.194,0,9.443,4.25,9.443,9.443
		c0,5.194-4.25,9.326-9.443,9.326s-9.325-4.131-9.325-9.326C66.716,39.197,70.848,34.947,76.042,34.947z M129.396,119.229
		c-8.026,0-13.221-3.069-14.401-9.798c-5.548,5.076-11.922,9.798-16.88,9.798c-7.201,0-12.24-2.531-14.028-7.979
		c-3.513,2.737-8.465,4.578-13.83,6.091l-2.361,11.332c-3.541,16.88-13.457,20.067-21.248,20.067
		c-7.201,0-13.929-5.076-13.929-12.749c0-10.859,9.207-14.256,20.303-17.561L65.418,60.5h16.998l-10.978,51.557
		c4.418-2.139,8.616-4.958,12.137-8.716c0.117-0.928,0.278-1.789,0.494-2.816L92.567,60.5h16.998l-8.499,39.988
		c-0.236,1.299-0.472,2.524-0.472,3.587c0,2.597,1.18,4.448,5.901,4.448c2.479,0,5.431-1.788,8.264-4.148
		c0-1.181,0.235-2.46,0.59-3.877l8.499-39.998h16.998l-8.499,39.988c-0.354,1.652-0.59,2.997-0.59,4.295
		c0,2.243,1.062,3.74,4.485,3.74c11.568,0,19.477-25.869,19.477-38.735c-0.708,0.236-1.771,0.463-2.479,0.463
		c-3.423,0-4.958-3.31-4.958-6.615c0-2.479,2.833-5.786,6.729-5.786c5.076,0,7.555,4.484,7.555,10.623
		C162.566,86.887,153.241,119.229,129.396,119.229z"/>
</g>
</svg>
