<?xml version="1.0" encoding="utf-8"?>
<!-- Generated by IcoMoon.io -->
<!DOCTYPE svg PUBLIC "-//W3C//DTD SVG 1.1//EN" "http://www.w3.org/Graphics/SVG/1.1/DTD/svg11.dtd">
<svg version="1.1" xmlns="http://www.w3.org/2000/svg" xmlns:xlink="http://www.w3.org/1999/xlink" width="36" height="36" viewBox="0 0 36 36">
<g>
</g>
	<path d="M17.824 1.699c-8.949 0-16.203 7.254-16.203 16.203-0.001 8.949 7.254 16.203 16.203 16.203 8.948 0 16.203-7.254 16.203-16.203 0-8.949-7.254-16.203-16.203-16.203zM23.765 9.73l0.562 0.563-6.96 6.962-0.563-0.563 6.961-6.962zM24.366 10.33l0.71 0.711-6.961 6.962-0.71-0.711 6.961-6.963zM18.411 18.951l-2.932 1.011 1.011-2.931 1.921 1.92zM23.139 22.76c0 1.299-1.054 2.354-2.354 2.354h-8.745c-1.3 0-2.353-1.055-2.353-2.354v-7.575c0-1.3 1.053-2.354 2.353-2.354h3.846c0.311 0 0.561 0.251 0.561 0.561 0 0.31-0.25 0.561-0.561 0.561-0.034 0-0.064-0.014-0.097-0.020h-3.214c-0.975 0-1.765 0.789-1.765 1.765v6.546c0 0.975 0.79 1.764 1.765 1.764h7.677c0.976 0 1.765-0.789 1.765-1.764v-2.965c0-0.309 0.251-0.561 0.562-0.561s0.561 0.251 0.561 0.561v3.48zM18.75 18.637l-0.596-0.596 6.963-6.961 0.595 0.595-6.961 6.962zM25.746 11.634l-1.94-1.939c0.54-0.505 1.385-0.498 1.911 0.028 0.526 0.527 0.532 1.371 0.028 1.911z" fill="#000000" />
</svg>
