<?xml version="1.0" encoding="utf-8"?>
<!-- Generated by IcoMoon.io -->
<!DOCTYPE svg PUBLIC "-//W3C//DTD SVG 1.1//EN" "http://www.w3.org/Graphics/SVG/1.1/DTD/svg11.dtd">
<svg version="1.1" xmlns="http://www.w3.org/2000/svg" xmlns:xlink="http://www.w3.org/1999/xlink" width="36" height="36" viewBox="0 0 36 36">
<g>
</g>
	<path d="M17.903 1.699c-8.949 0-16.204 7.254-16.204 16.204 0 8.948 7.254 16.203 16.204 16.203 8.948 0 16.203-7.254 16.203-16.203 0-8.949-7.254-16.204-16.203-16.204zM25.085 13.706l-2.618 2.618c-0.001 0.001-0.003 0.002-0.004 0.003l-6.229 6.23c0 0 0 0.001 0 0.001l-3.511 3.511-2.519-2.518c-0.493-0.493-0.493-1.293 0-1.787l2.618-2.618c0.493-0.493 1.293-0.493 1.786 0l0.956 0.956 4.448-4.448-0.956-0.956c-0.493-0.493-0.493-1.293 0-1.787l2.618-2.618c0.493-0.494 1.293-0.493 1.786 0l1.626 1.626c0.022 0.022 0.039 0.048 0.059 0.071l0.828 0.828-0.882 0.882c-0.002 0.001-0.003 0.003-0.004 0.004z" fill="#000000" />
</svg>
