<?xml version="1.0" encoding="utf-8"?>
<!-- Generated by IcoMoon.io -->
<!DOCTYPE svg PUBLIC "-//W3C//DTD SVG 1.1//EN" "http://www.w3.org/Graphics/SVG/1.1/DTD/svg11.dtd">
<svg version="1.1" xmlns="http://www.w3.org/2000/svg" xmlns:xlink="http://www.w3.org/1999/xlink" width="36" height="36" viewBox="0 0 36 36">
<g>
</g>
	<path d="M17.903 1.699c-8.949 0-16.204 7.254-16.204 16.203s7.254 16.203 16.204 16.203c8.948 0 16.203-7.254 16.203-16.203 0-8.949-7.254-16.203-16.203-16.203zM11.562 20.524c-0.122 0.062-0.193 0.005-0.155-0.128l0.296-1.179c-0.691-0.234-1.202-1.002-1.202-1.921v-2.953c0-1.105 0.732-2.001 1.635-2.001h6.6c0.903 0 1.635 0.896 1.635 2.001v2.953c0 1.104-0.732 2.001-1.635 2.001h-5.133l-2.041 1.228zM25.303 20.211c0 0.919-0.511 1.686-1.201 1.921l0.296 1.179c0.039 0.133-0.033 0.19-0.155 0.128l-2.040-1.227h-5.134c-0.898 0-1.624-0.887-1.633-1.983h3.969c0.903 0 1.635-0.897 1.635-2.001v-2.953c0-0.006-0.001-0.013-0.002-0.019h2.63c0.903 0 1.635 0.896 1.635 2.001v2.953z" fill="#000000" />
</svg>
