<?xml version="1.0" encoding="utf-8"?>
<!-- Generated by IcoMoon.io -->
<!DOCTYPE svg PUBLIC "-//W3C//DTD SVG 1.1//EN" "http://www.w3.org/Graphics/SVG/1.1/DTD/svg11.dtd">
<svg version="1.1" xmlns="http://www.w3.org/2000/svg" xmlns:xlink="http://www.w3.org/1999/xlink" width="36" height="36" viewBox="0 0 36 36">
<g>
</g>
	<path d="M23.224 13.527c0 0.523-0.424 0.947-0.947 0.947s-0.947-0.424-0.947-0.947c0-0.523 0.424-0.947 0.947-0.947 0.523 0 0.947 0.424 0.947 0.947z" fill="#000000" />
	<path d="M17.903 1.699c-8.949 0-16.204 7.254-16.204 16.203s7.254 16.203 16.204 16.203c8.948 0 16.203-7.254 16.203-16.203 0-8.949-7.254-16.203-16.203-16.203zM18.095 24.923c-0.493 0.493-1.293 0.493-1.786 0l-5.428-5.428c-0.493-0.493-0.494-1.293 0-1.786l7.197-7.198 6.859 0.355 0.355 6.859-7.197 7.198z" fill="#000000" />
</svg>
