<?xml version="1.0" encoding="utf-8"?>
<!-- Generated by IcoMoon.io -->
<!DOCTYPE svg PUBLIC "-//W3C//DTD SVG 1.1//EN" "http://www.w3.org/Graphics/SVG/1.1/DTD/svg11.dtd">
<svg version="1.1" xmlns="http://www.w3.org/2000/svg" xmlns:xlink="http://www.w3.org/1999/xlink" width="36" height="36" viewBox="0 0 36 36">
<g>
</g>
	<path d="M19.060 12.849h-2.376c-0.349 0-0.632 0.283-0.632 0.632v2.225h3.639v-2.225c0-0.349-0.283-0.632-0.632-0.632z" fill="#000000" />
	<path d="M17.903 17.502c-0.694 0-1.256 0.563-1.256 1.256 0 0.502 0.297 0.932 0.723 1.133v1.695h1.053v-1.687c0.434-0.198 0.737-0.633 0.737-1.141-0.001-0.693-0.563-1.256-1.256-1.256z" fill="#000000" />
	<path d="M17.903 1.699c-8.949 0-16.204 7.254-16.204 16.203s7.254 16.203 16.204 16.203c8.948 0 16.203-7.254 16.203-16.203 0-8.949-7.254-16.203-16.203-16.203zM22.948 23.060c0 0.697-0.566 1.263-1.263 1.263h-7.565c-0.697 0-1.263-0.566-1.263-1.263v-6.091c0-0.697 0.566-1.263 1.263-1.263h0.624v-2.331c0-1.047 0.848-1.895 1.895-1.895h2.526c1.047 0 1.895 0.848 1.895 1.895v2.331h0.625c0.697 0 1.263 0.566 1.263 1.263v6.091z" fill="#000000" />
</svg>
