<?xml version="1.0" encoding="utf-8"?>
<!-- Generated by IcoMoon.io -->
<!DOCTYPE svg PUBLIC "-//W3C//DTD SVG 1.1//EN" "http://www.w3.org/Graphics/SVG/1.1/DTD/svg11.dtd">
<svg version="1.1" xmlns="http://www.w3.org/2000/svg" xmlns:xlink="http://www.w3.org/1999/xlink" width="36" height="36" viewBox="0 0 36 36">
<g>
</g>
	<path d="M12.297 22.263c0 0.436-0.353 0.789-0.789 0.789s-0.789-0.353-0.789-0.789c0-0.436 0.353-0.789 0.789-0.789 0.436 0 0.789 0.353 0.789 0.789z" fill="#000000" />
	<path d="M17.902 1.699c-8.949 0-16.203 7.254-16.203 16.203 0 8.948 7.254 16.203 16.203 16.203 8.949 0 16.203-7.255 16.203-16.203 0-8.949-7.254-16.203-16.203-16.203zM14.587 9.553h6.474v8.35h-6.474v-8.35zM25.955 22.895c0 0.697-0.566 1.263-1.263 1.263h-13.579c-0.697 0-1.263-0.566-1.263-1.263v-6.553c0-0.697 0.566-1.263 1.263-1.263h2.053v4.105h9.316v-4.105h2.211c0.697 0 1.263 0.566 1.263 1.263v6.553z" fill="#000000" />
</svg>
