<?xml version="1.0" encoding="utf-8"?>
<!-- Generated by IcoMoon.io -->
<!DOCTYPE svg PUBLIC "-//W3C//DTD SVG 1.1//EN" "http://www.w3.org/Graphics/SVG/1.1/DTD/svg11.dtd">
<svg version="1.1" xmlns="http://www.w3.org/2000/svg" xmlns:xlink="http://www.w3.org/1999/xlink" width="36" height="36" viewBox="0 0 36 36">
<g>
</g>
	<path d="M17.903 1.699c-8.949 0-16.204 7.254-16.204 16.203s7.254 16.203 16.204 16.203c8.948 0 16.203-7.254 16.203-16.203 0-8.949-7.254-16.203-16.203-16.203zM24.178 18.983c0 1.171-0.649 2.146-1.528 2.444l0.376 1.5c0.049 0.169-0.041 0.242-0.197 0.163l-2.595-1.562h-6.531c-1.148 0-2.079-1.14-2.079-2.545v-3.756c0-1.406 0.93-2.545 2.079-2.545h8.395c1.148 0 2.079 1.14 2.079 2.545v3.756z" fill="#000000" />
</svg>
