<?xml version="1.0" encoding="utf-8"?>
<!-- Generated by IcoMoon.io -->
<!DOCTYPE svg PUBLIC "-//W3C//DTD SVG 1.1//EN" "http://www.w3.org/Graphics/SVG/1.1/DTD/svg11.dtd">
<svg version="1.1" xmlns="http://www.w3.org/2000/svg" xmlns:xlink="http://www.w3.org/1999/xlink" width="36" height="36" viewBox="0 0 36 36">
<g>
</g>
	<path d="M23.946 13.422h-12.087c-0.521 0-0.944 0.336-0.944 0.751v5.209c0 0.414 0.422 0.75 0.944 0.75h12.087c0.52 0 0.943-0.336 0.943-0.75v-5.209c0-0.414-0.423-0.751-0.943-0.751z" fill="#000000" />
	<path d="M17.902 1.699c-8.949 0-16.203 7.254-16.203 16.203 0 8.948 7.254 16.203 16.203 16.203 8.948 0 16.203-7.254 16.203-16.203 0-8.949-7.254-16.204-16.203-16.204zM9.81 13.315c0-0.551 0.489-0.999 1.093-0.999h14c0.603 0 1.092 0.447 1.092 0.999v7.923h-16.184v-7.923zM27.415 23.488h-19.026c-0.371 0-0.671-0.301-0.671-0.671s0.301-0.671 0.671-0.671h19.026c0.371 0 0.671 0.301 0.671 0.671s-0.3 0.671-0.671 0.671z" fill="#000000" />
</svg>
