<?xml version="1.0" encoding="utf-8"?>
<!-- Generated by IcoMoon.io -->
<!DOCTYPE svg PUBLIC "-//W3C//DTD SVG 1.1//EN" "http://www.w3.org/Graphics/SVG/1.1/DTD/svg11.dtd">
<svg version="1.1" xmlns="http://www.w3.org/2000/svg" xmlns:xlink="http://www.w3.org/1999/xlink" width="36" height="36" viewBox="0 0 36 36">
<g>
</g>
	<path d="M17.903 1.699c-8.949 0-16.204 7.254-16.204 16.204 0 8.948 7.254 16.203 16.204 16.203 8.948 0 16.203-7.254 16.203-16.203 0-8.949-7.254-16.204-16.203-16.204zM14.507 18.47c0.016 0 0.032 0.004 0.049 0.005l1.204-3.448c-0.333-0.246-0.553-0.637-0.553-1.083 0-0.744 0.603-1.347 1.347-1.347 0.744 0 1.347 0.603 1.347 1.347 0 0.229-0.063 0.441-0.163 0.63l3.298 2.207c0.197-0.131 0.431-0.207 0.681-0.219l1.403-4.019c-0.29-0.248-0.479-0.611-0.479-1.023 0-0.744 0.603-1.347 1.348-1.347 0.744 0 1.347 0.603 1.347 1.347s-0.603 1.347-1.347 1.347c-0.004 0-0.008-0.001-0.011-0.001l-1.385 3.969c0.323 0.246 0.534 0.631 0.534 1.067 0 0.743-0.603 1.347-1.347 1.347-0.745 0-1.347-0.603-1.347-1.347 0-0.133 0.025-0.26 0.061-0.381l-3.467-2.319c-0.122 0.046-0.252 0.073-0.388 0.081l-1.235 3.538c0.273 0.246 0.448 0.599 0.448 0.997 0 0.744-0.603 1.347-1.347 1.347s-1.347-0.603-1.347-1.347 0.604-1.348 1.348-1.348zM26.020 25.632h-16.237v-15.46h1.653v13.494h14.584v1.967z" fill="#000000" />
</svg>
