<?xml version="1.0" encoding="utf-8"?>
<!-- Generated by IcoMoon.io -->
<!DOCTYPE svg PUBLIC "-//W3C//DTD SVG 1.1//EN" "http://www.w3.org/Graphics/SVG/1.1/DTD/svg11.dtd">
<svg version="1.1" xmlns="http://www.w3.org/2000/svg" xmlns:xlink="http://www.w3.org/1999/xlink" width="36" height="36" viewBox="0 0 36 36">
<g>
</g>
	<path d="M18.447 1.699c-8.949 0-16.203 7.254-16.203 16.203 0 8.948 7.254 16.203 16.203 16.203 8.948 0 16.203-7.254 16.203-16.203 0-8.949-7.254-16.203-16.203-16.203zM27.743 23.631c0 0.543-0.44 0.984-0.985 0.984h-16.624c-0.543 0-0.984-0.44-0.984-0.984v-11.456c0-0.543 0.441-0.984 0.984-0.984h16.624c0.544 0 0.985 0.441 0.985 0.984v11.456z" fill="#000000" />
	<path d="M25.844 12.141h-14.795c-0.484 0-0.876 0.378-0.876 0.844v9.834c0 0.466 0.392 0.845 0.876 0.845h0.867l2.906-2.308c0 0 0.942 0.149 0.942 0.076l1.82-2.776 1.382 0.429 1.885-1.789 2.841 2.618 1.167-0.584 1.574 4.112c0.176-0.154 0.289-0.375 0.289-0.623v-9.834c0-0.467-0.392-0.844-0.876-0.844zM14.427 16.965c-1.036 0-1.876-0.84-1.876-1.876 0-1.036 0.84-1.876 1.876-1.876s1.876 0.84 1.876 1.876c-0.001 1.036-0.841 1.876-1.876 1.876z" fill="#000000" />
</svg>
