<?xml version="1.0" encoding="utf-8"?>
<!-- Generated by IcoMoon.io -->
<!DOCTYPE svg PUBLIC "-//W3C//DTD SVG 1.1//EN" "http://www.w3.org/Graphics/SVG/1.1/DTD/svg11.dtd">
<svg version="1.1" xmlns="http://www.w3.org/2000/svg" xmlns:xlink="http://www.w3.org/1999/xlink" width="36" height="36" viewBox="0 0 36 36">
<g>
</g>
	<path d="M17.903 1.699c-8.949 0-16.204 7.254-16.204 16.203s7.254 16.203 16.204 16.203c8.948 0 16.203-7.254 16.203-16.203 0-8.949-7.254-16.203-16.203-16.203zM13.797 13.684c0-2.267 1.838-4.105 4.105-4.105s4.105 1.838 4.105 4.105v1.684h-8.211v-1.684zM13.797 16.737h8.211v1.895c0 2.267-1.838 4.105-4.105 4.105s-4.105-1.838-4.105-4.105v-1.895zM23.771 19.338c0 2.968-2.407 5.376-5.376 5.376h-0.018v1.391h1.42v1.316h-3.685v-1.316h1.369v-1.391h-0.071c-2.969 0-5.375-2.408-5.375-5.376v-1.654h0.004c0.012-0.187 0.164-0.336 0.354-0.336s0.342 0.149 0.354 0.336h0.004v1.341c0 2.672 2.166 4.838 4.838 4.838h0.627c2.672 0 4.838-2.166 4.838-4.838v-1.341c0-0.198 0.16-0.358 0.357-0.358 0.198 0 0.359 0.16 0.359 0.358v1.654z" fill="#000000" />
</svg>
