<?xml version="1.0" encoding="utf-8"?>
<!-- Generated by IcoMoon.io -->
<!DOCTYPE svg PUBLIC "-//W3C//DTD SVG 1.1//EN" "http://www.w3.org/Graphics/SVG/1.1/DTD/svg11.dtd">
<svg version="1.1" xmlns="http://www.w3.org/2000/svg" xmlns:xlink="http://www.w3.org/1999/xlink" width="36" height="36" viewBox="0 0 36 36">
<g>
</g>
	<path d="M17.902 19.473c-0.868 0-1.571-0.704-1.571-1.571 0-0.212 0.043-0.414 0.119-0.598l-4.24 6.275 6.272-4.219c-0.179 0.072-0.375 0.114-0.58 0.114z" fill="#000000" />
	<path d="M19.033 18.989l0.004-0.003 0.007-0.011c-0.004 0.005-0.007 0.011-0.011 0.015z" fill="#000000" />
	<path d="M17.903 1.699c-8.949 0-16.204 7.254-16.204 16.203s7.254 16.203 16.204 16.203c8.948 0 16.203-7.254 16.203-16.203 0-8.949-7.254-16.203-16.203-16.203zM17.902 27.158c-5.112 0-9.256-4.144-9.256-9.256 0-5.112 4.144-9.256 9.256-9.256 5.111 0 9.256 4.144 9.256 9.256 0 5.111-4.144 9.256-9.256 9.256z" fill="#000000" />
	<path d="M16.806 16.778l-0.002 0.003c0.004-0.004 0.009-0.006 0.013-0.011l-0.011 0.008z" fill="#000000" />
	<path d="M17.902 16.331c0.868 0 1.571 0.704 1.571 1.571 0 0.206-0.042 0.401-0.114 0.581l4.22-6.589-6.434 4.639c0.225-0.125 0.481-0.203 0.757-0.203z" fill="#000000" />
</svg>
