<?xml version="1.0" encoding="utf-8"?>
<!-- Generated by IcoMoon.io -->
<!DOCTYPE svg PUBLIC "-//W3C//DTD SVG 1.1//EN" "http://www.w3.org/Graphics/SVG/1.1/DTD/svg11.dtd">
<svg version="1.1" xmlns="http://www.w3.org/2000/svg" xmlns:xlink="http://www.w3.org/1999/xlink" width="36" height="36" viewBox="0 0 36 36">
<g>
</g>
	<path d="M23.166 16.955h-4.32v-5.59c0-0.521-0.423-0.944-0.944-0.944-0.522 0-0.944 0.423-0.944 0.944v6.541c0 0.521 0.422 0.944 0.944 0.944 0 0 0.001 0 0.002 0s0.002 0 0.002 0h5.26c0.523 0 0.947-0.424 0.947-0.947 0-0.524-0.424-0.947-0.947-0.947z" fill="#000000" />
	<path d="M17.903 1.699c-8.949 0-16.204 7.254-16.204 16.204 0 8.948 7.254 16.203 16.204 16.203 8.948 0 16.203-7.254 16.203-16.203 0-8.949-7.254-16.204-16.203-16.204zM17.903 27.158c-5.112 0-9.256-4.144-9.256-9.255 0-5.112 4.144-9.256 9.256-9.256 5.111-0.001 9.255 4.143 9.255 9.256 0 5.111-4.144 9.255-9.255 9.255z" fill="#000000" />
</svg>
