<?xml version="1.0" encoding="utf-8"?>
<!-- Generated by IcoMoon.io -->
<!DOCTYPE svg PUBLIC "-//W3C//DTD SVG 1.1//EN" "http://www.w3.org/Graphics/SVG/1.1/DTD/svg11.dtd">
<svg version="1.1" xmlns="http://www.w3.org/2000/svg" xmlns:xlink="http://www.w3.org/1999/xlink" width="36" height="36" viewBox="0 0 36 36">
<g>
</g>
	<path d="M13.022 15.961l4.876 3.051 4.884-3.051-4.884-3.172z" fill="#000000" />
	<path d="M17.903 1.699c-8.949 0-16.204 7.254-16.204 16.203s7.254 16.203 16.204 16.203c8.948 0 16.203-7.254 16.203-16.203 0-8.949-7.254-16.203-16.203-16.203zM23.085 22.448l-5.187 3.261-5.178-3.261v-0.775l2.007 1.316c0.067 0.040 0.139 0.062 0.207 0.062 0.088 0 0.177-0.032 0.251-0.090l2.712-2.253 2.721 2.253c0.075 0.057 0.161 0.090 0.245 0.090 0.071 0 0.148-0.021 0.213-0.063l2.008-1.314v0.775zM25.771 18.361l-4.846 3.164-3.027-2.513-3.020 2.513-4.847-3.164 2.991-2.4-3.356-2.815 4.895-3.051 3.337 2.693 3.339-2.693 4.901 3.051-3.356 2.815 2.987 2.4z" fill="#000000" />
</svg>
