<?xml version="1.0" encoding="utf-8"?>
<!-- Generated by IcoMoon.io -->
<!DOCTYPE svg PUBLIC "-//W3C//DTD SVG 1.1//EN" "http://www.w3.org/Graphics/SVG/1.1/DTD/svg11.dtd">
<svg version="1.1" xmlns="http://www.w3.org/2000/svg" xmlns:xlink="http://www.w3.org/1999/xlink" width="36" height="36" viewBox="0 0 36 36">
<g>
</g>
	<path d="M17.903 1.075c-8.949 0-16.204 7.254-16.204 16.203s7.254 16.203 16.203 16.203c8.949 0.001 16.203-7.254 16.203-16.203s-7.254-16.203-16.203-16.203zM24.999 20.997c0 1.226-0.994 2.221-2.221 2.221-1.226 0-2.221-0.995-2.221-2.221 0-1.227 0.994-2.221 2.221-2.221 0.409 0 0.789 0.119 1.119 0.312v-6.714h-8.638v8.624h-0.018c0.001 0.025 0.008 0.049 0.008 0.075 0 1.227-0.994 2.221-2.221 2.221-1.226 0-2.221-0.993-2.221-2.221 0-1.226 0.994-2.221 2.221-2.221 0.414 0 0.798 0.121 1.13 0.318v-7.906h10.844v9.734z" fill="#000000" />
</svg>
