<?xml version="1.0" encoding="utf-8"?>
<!-- Generated by IcoMoon.io -->
<!DOCTYPE svg PUBLIC "-//W3C//DTD SVG 1.1//EN" "http://www.w3.org/Graphics/SVG/1.1/DTD/svg11.dtd">
<svg version="1.1" xmlns="http://www.w3.org/2000/svg" xmlns:xlink="http://www.w3.org/1999/xlink" width="36" height="36" viewBox="0 0 36 36">
<g>
</g>
	<path d="M17.902 1.7c-8.949 0-16.203 7.254-16.203 16.203s7.254 16.204 16.203 16.204c8.949 0 16.203-7.254 16.203-16.204 0-8.949-7.254-16.203-16.203-16.203zM17.135 20.214l-3.792 3.793 2.134 2.133-5.811 0.001-0.001-5.812 2.133 2.133 3.792-3.792c0.427-0.427 1.119-0.427 1.544 0 0.427 0.425 0.428 1.117 0 1.544zM17.135 17.136c-0.426 0.426-1.119 0.427-1.545 0l-3.793-3.792-2.133 2.133-0.001-5.811 5.812-0.001-2.133 2.133 3.793 3.792c0.427 0.427 0.427 1.119 0 1.545zM18.669 15.591l3.793-3.793-2.134-2.133h5.811l0.001 5.812-2.133-2.133-3.792 3.792c-0.427 0.427-1.119 0.427-1.545 0-0.426-0.426-0.427-1.119 0-1.545zM20.329 26.14l2.133-2.134-3.792-3.792c-0.428-0.427-0.428-1.119 0-1.544 0.426-0.426 1.118-0.428 1.544 0l3.793 3.792 2.133-2.134 0.001 5.811-5.812 0.001z" fill="#000000" />
</svg>
