<?xml version="1.0" encoding="utf-8"?>
<!-- Generated by IcoMoon.io -->
<!DOCTYPE svg PUBLIC "-//W3C//DTD SVG 1.1//EN" "http://www.w3.org/Graphics/SVG/1.1/DTD/svg11.dtd">
<svg version="1.1" xmlns="http://www.w3.org/2000/svg" xmlns:xlink="http://www.w3.org/1999/xlink" width="36" height="36" viewBox="0 0 36 36">
<g>
</g>
	<path d="M17.902 1.699c-8.948 0-16.203 7.254-16.203 16.203s7.255 16.203 16.203 16.203c8.949 0 16.203-7.254 16.203-16.203s-7.254-16.203-16.203-16.203zM22.623 22.907c-2.874 2.875-7.535 2.875-10.41 0-2.874-2.874-2.874-7.535 0-10.41 2.184-2.184 5.394-2.697 8.073-1.563l1.601-1.601 0.001 4.898h-4.899l1.669-1.668c-1.734-0.417-3.634 0.039-4.987 1.392-2.069 2.069-2.069 5.425 0.001 7.494 2.070 2.070 5.424 2.070 7.494 0 1.072-1.072 1.588-2.491 1.549-3.897 0-0.565 0.458-1.022 1.022-1.022 0.555 0 1.005 0.444 1.019 0.997v0c0 0 0 0.001 0 0.001 0 0.008 0.003 0.016 0.003 0.025 0 0.013-0.004 0.026-0.004 0.039 0.033 1.92-0.665 3.849-2.131 5.315z" fill="#000000" />
</svg>
