<?xml version="1.0" encoding="utf-8"?>
<!-- Generated by IcoMoon.io -->
<!DOCTYPE svg PUBLIC "-//W3C//DTD SVG 1.1//EN" "http://www.w3.org/Graphics/SVG/1.1/DTD/svg11.dtd">
<svg version="1.1" xmlns="http://www.w3.org/2000/svg" xmlns:xlink="http://www.w3.org/1999/xlink" width="36" height="36" viewBox="0 0 36 36">
<g>
</g>
	<path d="M17.903 1.7c-8.949 0-16.203 7.254-16.203 16.203-0.001 8.948 7.254 16.203 16.203 16.203 8.948 0 16.203-7.254 16.203-16.203 0-8.949-7.254-16.203-16.203-16.203zM23.605 25.579h-11.211v-5.561h-1.336c-0.439 0-0.796-0.356-0.796-0.796s0.356-0.796 0.796-0.796h1.336v-1.057h-1.336c-0.44 0-0.796-0.356-0.796-0.796s0.356-0.796 0.796-0.796h1.336v-3.381c0-2.79 2.262-5.053 5.053-5.053h1.105c1.356 0 2.582 0.541 3.489 1.412-0.423 0.423-0.845 0.845-1.268 1.268-0.649-0.568-1.465-0.911-2.356-0.911h-0.835c-2.109 0-3.819 1.896-3.819 4.236v2.431h4.335c0.44 0 0.796 0.356 0.796 0.796s-0.356 0.796-0.796 0.796h-4.335v1.058h4.335c0.439 0 0.796 0.356 0.796 0.796 0 0.439-0.356 0.796-0.796 0.796h-4.335v3.189c0 0.318 0.041 0.623 0.102 0.92h9.74v1.451z" fill="#000000" />
</svg>
