<?xml version="1.0" encoding="utf-8"?>
<!-- Generated by IcoMoon.io -->
<!DOCTYPE svg PUBLIC "-//W3C//DTD SVG 1.1//EN" "http://www.w3.org/Graphics/SVG/1.1/DTD/svg11.dtd">
<svg version="1.1" xmlns="http://www.w3.org/2000/svg" xmlns:xlink="http://www.w3.org/1999/xlink" width="36" height="36" viewBox="0 0 36 36">
<g>
</g>
	<path d="M17.903 1.699c-8.949 0-16.203 7.254-16.203 16.203-0.001 8.949 7.254 16.203 16.203 16.203 8.948 0 16.203-7.254 16.203-16.203 0-8.949-7.254-16.204-16.203-16.204zM15.818 9.581c0-1.151 0.933-2.085 2.085-2.085s2.085 0.933 2.085 2.085v9.531c0 1.151-0.933 2.085-2.085 2.085s-2.085-0.933-2.085-2.085v-9.531zM17.902 26.767c-1.156 0-2.094-0.937-2.094-2.093 0-1.157 0.937-2.094 2.094-2.094 1.156 0 2.094 0.937 2.094 2.094 0 1.155-0.937 2.093-2.094 2.093z" fill="#000000" />
</svg>
