<?xml version="1.0" encoding="utf-8"?>
<!-- Generated by IcoMoon.io -->
<!DOCTYPE svg PUBLIC "-//W3C//DTD SVG 1.1//EN" "http://www.w3.org/Graphics/SVG/1.1/DTD/svg11.dtd">
<svg version="1.1" xmlns="http://www.w3.org/2000/svg" xmlns:xlink="http://www.w3.org/1999/xlink" width="36" height="36" viewBox="0 0 36 36">
<g>
</g>
	<path d="M17.903 1.699c-8.949 0-16.203 7.254-16.203 16.203-0.001 8.949 7.254 16.203 16.203 16.203 8.948 0 16.203-7.254 16.203-16.203 0-8.949-7.254-16.203-16.203-16.203zM25.972 14.591l-8.448 8.447c-0.255 0.256-0.592 0.381-0.927 0.377-0.335 0.004-0.671-0.121-0.927-0.377l-3.311-3.311c-0.503-0.504-0.503-1.321 0-1.825 0.504-0.503 1.321-0.504 1.824 0l2.415 2.414 7.55-7.55c0.504-0.503 1.321-0.504 1.825 0 0.503 0.503 0.503 1.321 0 1.825z" fill="#000000" />
</svg>
