<?xml version="1.0" encoding="utf-8"?>
<!-- Generated by IcoMoon.io -->
<!DOCTYPE svg PUBLIC "-//W3C//DTD SVG 1.1//EN" "http://www.w3.org/Graphics/SVG/1.1/DTD/svg11.dtd">
<svg version="1.1" xmlns="http://www.w3.org/2000/svg" xmlns:xlink="http://www.w3.org/1999/xlink" width="36" height="36" viewBox="0 0 36 36">
<g>
</g>
	<path d="M17.902 1.699c-8.949 0-16.203 7.254-16.203 16.203 0 8.948 7.254 16.203 16.203 16.203 8.949 0 16.203-7.255 16.203-16.203 0-8.949-7.254-16.203-16.203-16.203zM17.902 28.026c-4.158 0-7.6-3.656-8.263-8.447h-1.617c-0.594 0-1.074-0.327-1.074-0.731s0.481-0.73 1.074-0.73h1.502c-0.001-0.073-0.009-0.143-0.009-0.216 0-0.287 0.016-0.569 0.035-0.85h-1.528c-0.594 0.001-1.074-0.327-1.074-0.73s0.481-0.73 1.074-0.73h1.721c0.867-4.476 4.187-7.813 8.159-7.813 1.601 0 3.087 0.558 4.358 1.499-0.207 0.21-0.417 0.419-0.618 0.633-0.142 0.151-0.283 0.312-0.421 0.478-0.964-0.606-2.058-0.954-3.22-0.954-3.209 0-5.908 2.605-6.743 6.155h6.695c0.593 0 1.074 0.327 1.074 0.73s-0.481 0.731-1.074 0.731h-6.93c-0.023 0.28-0.035 0.563-0.035 0.85 0 0.073 0.008 0.143 0.009 0.216h6.957c0.593 0 1.074 0.327 1.074 0.73s-0.481 0.73-1.074 0.73h-6.827c0.645 3.872 3.477 6.789 6.875 6.789 1.311 0 2.531-0.448 3.579-1.206 0.346 0.369 0.704 0.732 1.091 1.049-1.354 1.137-2.993 1.815-4.768 1.815z" fill="#000000" />
</svg>
