<?xml version="1.0" encoding="utf-8"?>
<!-- Generated by IcoMoon.io -->
<!DOCTYPE svg PUBLIC "-//W3C//DTD SVG 1.1//EN" "http://www.w3.org/Graphics/SVG/1.1/DTD/svg11.dtd">
<svg version="1.1" xmlns="http://www.w3.org/2000/svg" xmlns:xlink="http://www.w3.org/1999/xlink" width="36" height="36" viewBox="0 0 36 36">
<g>
</g>
	<path d="M18 1.639c-8.949 0-16.203 7.254-16.203 16.203 0 8.948 7.254 16.203 16.203 16.203 8.948 0 16.203-7.254 16.203-16.203 0-8.949-7.254-16.203-16.203-16.203zM21.249 24.632c-0.74 0.539-1.695 0.885-2.855 1.045v1.276c0 0.548-0.445 0.993-0.993 0.993s-0.993-0.445-0.993-0.993v-1.177c-1.824-0.040-3.267-0.355-4.319-0.949v-2.138c0.731 0.371 1.515 0.662 2.352 0.875 0.675 0.171 1.33 0.271 1.967 0.304v-5.49c-1.191-0.46-2.057-0.867-2.591-1.219-0.597-0.393-1.041-0.839-1.332-1.339-0.292-0.5-0.437-1.096-0.437-1.79 0-1.24 0.504-2.218 1.513-2.935 0.744-0.529 1.696-0.86 2.848-0.999v-1.368c0-0.548 0.445-0.993 0.993-0.993s0.993 0.445 0.993 0.993v1.326c1.4 0.080 2.773 0.392 4.118 0.964l-0.819 1.873c-1.187-0.489-2.284-0.783-3.299-0.891v4.924c1.707 0.636 2.873 1.276 3.486 1.92 0.634 0.666 0.951 1.504 0.951 2.512-0.001 1.416-0.529 2.508-1.583 3.275z" fill="#000000" />
	<path d="M19.841 19.795c-0.306-0.251-0.791-0.531-1.446-0.836v4.553c0.489-0.096 0.907-0.241 1.245-0.441 0.647-0.384 0.972-0.969 0.972-1.755 0-0.592-0.257-1.1-0.771-1.52z" fill="#000000" />
	<path d="M15.107 12.333c-0.555 0.342-0.832 0.814-0.832 1.415 0 0.407 0.104 0.753 0.312 1.040 0.208 0.287 0.544 0.56 1.007 0.819 0.201 0.112 0.487 0.249 0.849 0.405v-4.108c-0.543 0.081-0.995 0.219-1.336 0.429z" fill="#000000" />
</svg>
