<?xml version="1.0" encoding="utf-8"?>
<!-- Generated by IcoMoon.io -->
<!DOCTYPE svg PUBLIC "-//W3C//DTD SVG 1.1//EN" "http://www.w3.org/Graphics/SVG/1.1/DTD/svg11.dtd">
<svg version="1.1" xmlns="http://www.w3.org/2000/svg" xmlns:xlink="http://www.w3.org/1999/xlink" width="36" height="36" viewBox="0 0 36 36">
<g>
</g>
	<path d="M26.481 14.66c0 2.562-2.077 4.638-4.638 4.638s-4.638-2.077-4.638-4.638c0-2.562 2.077-4.638 4.638-4.638 2.562 0 4.638 2.077 4.638 4.638z" fill="#000000" />
	<path d="M17.903 1.699c-8.949 0-16.204 7.254-16.204 16.204 0 8.948 7.254 16.203 16.204 16.203 8.948 0 16.203-7.254 16.203-16.203 0-8.949-7.254-16.204-16.203-16.204zM21.863 20.822c-1.431 0-2.746-0.487-3.797-1.298-1.827 1.833-7.368 7.388-7.368 7.388-0.3 0.3-0.786 0.3-1.086 0-0.299-0.301-0.3-0.786 0-1.087 0 0 5.556-5.545 7.382-7.365 0 0-0.001-0.001-0.001-0.001-0.212-0.265-0.409-0.543-0.575-0.841-0.498-0.895-0.781-1.925-0.781-3.022 0-3.439 2.788-6.227 6.227-6.227 3.438 0 6.226 2.788 6.226 6.227s-2.788 6.227-6.227 6.227z" fill="#000000" />
</svg>
