<?xml version="1.0" encoding="utf-8"?>
<!-- Generated by IcoMoon.io -->
<!DOCTYPE svg PUBLIC "-//W3C//DTD SVG 1.1//EN" "http://www.w3.org/Graphics/SVG/1.1/DTD/svg11.dtd">
<svg version="1.1" xmlns="http://www.w3.org/2000/svg" xmlns:xlink="http://www.w3.org/1999/xlink" width="36" height="36" viewBox="0 0 36 36">
<g>
</g>
	<path d="M17.902 1.699c-8.949 0-16.203 7.254-16.203 16.203s7.254 16.203 16.203 16.203c8.949 0 16.203-7.254 16.203-16.203 0-8.949-7.254-16.203-16.203-16.203zM24.517 22.991h-13.541c-0.936 0-1.536-0.935-1.536-1.879 0-1.061 0.839-1.911 1.875-1.911h0.014c-0.011-0.632-0.017-0.402-0.017-0.515 0-1.797 1.421-3.435 3.174-3.435 0.222 0 0.44 0.024 0.649 0.069 0.544-1.758 2.149-3.034 4.045-3.034 2.343 0 4.244 1.948 4.244 4.351 0 0.006-0.001 0.012-0.001 0.018 1.635 0.059 2.944 1.602 2.944 3.292 0 1.289-0.762 2.411-1.848 3.043z" fill="#000000" />
</svg>
