<?xml version="1.0" encoding="utf-8"?>
<!-- Generated by IcoMoon.io -->
<!DOCTYPE svg PUBLIC "-//W3C//DTD SVG 1.1//EN" "http://www.w3.org/Graphics/SVG/1.1/DTD/svg11.dtd">
<svg version="1.1" xmlns="http://www.w3.org/2000/svg" xmlns:xlink="http://www.w3.org/1999/xlink" width="36" height="36" viewBox="0 0 36 36">
<g>
</g>
	<path d="M21.263 17.902c0 1.856-1.505 3.361-3.361 3.361-1.856 0-3.361-1.505-3.361-3.361 0-1.856 1.505-3.361 3.361-3.361 1.856 0 3.361 1.505 3.361 3.361z" fill="#000000" />
	<path d="M17.902 1.7c-8.949 0-16.203 7.254-16.203 16.203 0 8.948 7.254 16.203 16.203 16.203 8.948 0 16.203-7.254 16.203-16.203 0-8.949-7.254-16.203-16.203-16.203zM26.571 19.808h0.062c-0.236 1.089-0.671 2.103-1.264 3.004l-0.059-0.059-1.923-0.425-1.059 1.059 0.426 1.923 0.059 0.059c-0.93 0.613-1.979 1.061-3.108 1.292l-1.053-1.65h-1.497l-1.053 1.651c-1.129-0.231-2.178-0.679-3.108-1.292l0.059-0.059 0.425-1.922-1.059-1.059-1.922 0.425-0.059 0.059c-0.594-0.901-1.028-1.916-1.265-3.005h0.063l1.66-1.059v-1.497l-1.66-1.059h-0.104c0.225-1.163 0.676-2.246 1.305-3.201l0.058 0.058 1.922 0.426 1.060-1.059-0.426-1.923-0.058-0.058c0.929-0.612 1.976-1.059 3.103-1.29v0.186l1.059 1.66h1.497l1.059-1.66v-0.186c1.127 0.231 2.173 0.678 3.102 1.29l-0.058 0.058-0.425 1.923 1.059 1.059 1.923-0.426 0.058-0.058c0.63 0.956 1.081 2.037 1.305 3.201h-0.102l-1.66 1.059v1.497l1.66 1.059z" fill="#000000" />
</svg>
