<?xml version="1.0" encoding="utf-8"?>
<!-- Generated by IcoMoon.io -->
<!DOCTYPE svg PUBLIC "-//W3C//DTD SVG 1.1//EN" "http://www.w3.org/Graphics/SVG/1.1/DTD/svg11.dtd">
<svg version="1.1" xmlns="http://www.w3.org/2000/svg" xmlns:xlink="http://www.w3.org/1999/xlink" width="36" height="36" viewBox="0 0 36 36">
<g>
</g>
	<path d="M25.928 22.221h-1.724v-3.064c0-0.344-0.279-0.624-0.624-0.624s-0.624 0.28-0.624 0.624v3.064h-1.724l2.348 2.348 2.347-2.348z" fill="#000000" />
	<path d="M17.903 1.7c-8.949 0-16.204 7.254-16.204 16.203 0 8.948 7.255 16.203 16.204 16.203 8.948 0 16.203-7.254 16.203-16.203 0-8.949-7.254-16.203-16.203-16.203zM9.168 10.856h17.371c0.99 0 1.794 0.699 1.878 1.588l-10.599 4.53-10.532-4.501c0.069-0.903 0.88-1.618 1.881-1.618zM28.434 22.863c0 0.961-0.848 1.739-1.895 1.739h-17.371c-1.047 0-1.895-0.778-1.895-1.739v-9.566l10.558 4.511 0.008-0.013 10.595-4.529v9.597z" fill="#000000" />
</svg>
