<?xml version="1.0" encoding="utf-8"?>
<!-- Generated by IcoMoon.io -->
<!DOCTYPE svg PUBLIC "-//W3C//DTD SVG 1.1//EN" "http://www.w3.org/Graphics/SVG/1.1/DTD/svg11.dtd">
<svg version="1.1" xmlns="http://www.w3.org/2000/svg" xmlns:xlink="http://www.w3.org/1999/xlink" width="35" height="36" viewBox="0 0 35 36">
<g>
</g>
	<path d="M21.764 18.9c-0.573-0.573-1.636-1.145-3.191-1.718v-4.5c0.9 0.082 1.964 0.327 3.027 0.818l0.736-1.718c-1.227-0.491-2.455-0.818-3.764-0.9v-1.227c0-0.491-0.409-0.9-0.9-0.9-0.491 0-0.9 0.409-0.9 0.9v1.227c-1.064 0.164-1.964 0.409-2.618 0.9-0.9 0.655-1.391 1.555-1.391 2.7 0 0.655 0.164 1.145 0.409 1.636s0.655 0.9 1.227 1.227c0.491 0.327 1.309 0.655 2.373 1.145v4.991c-0.573 0-1.145-0.082-1.8-0.245-0.736-0.164-1.473-0.491-2.127-0.818v1.964c0.982 0.573 2.291 0.818 3.927 0.9v1.064c0 0.491 0.409 0.9 0.9 0.9s0.9-0.409 0.9-0.9v-1.145c1.064-0.164 1.964-0.491 2.618-0.982 0.982-0.736 1.473-1.718 1.473-3.027 0-0.9-0.327-1.636-0.9-2.291zM16.036 16.036c-0.409-0.245-0.736-0.491-0.9-0.736-0.164-0.245-0.245-0.573-0.245-0.982 0-0.573 0.245-0.982 0.736-1.309 0.327-0.164 0.736-0.327 1.227-0.409v3.764c-0.409-0.082-0.655-0.164-0.818-0.327zM19.718 22.991c-0.327 0.164-0.655 0.327-1.145 0.409v-4.173c0.573 0.245 1.064 0.573 1.309 0.736 0.491 0.409 0.736 0.818 0.736 1.391 0 0.736-0.245 1.309-0.9 1.636z" fill="#000000" />
</svg>
