<?xml version="1.0" encoding="utf-8"?>
<!-- Generated by IcoMoon.io -->
<!DOCTYPE svg PUBLIC "-//W3C//DTD SVG 1.1//EN" "http://www.w3.org/Graphics/SVG/1.1/DTD/svg11.dtd">
<svg version="1.1" xmlns="http://www.w3.org/2000/svg" xmlns:xlink="http://www.w3.org/1999/xlink" width="37" height="36" viewBox="0 0 37 36">
<g>
</g>
	<path d="M10.549 24.865v-16.409h-2.009v18.837h19.758v-2.428z" fill="#000000" />
	<path d="M25.87 8.456c-0.921 0-1.674 0.754-1.674 1.674 0 0.502 0.251 0.921 0.586 1.256l-1.674 4.94c-0.335 0-0.586 0.084-0.837 0.251l-4.019-2.679c0.084-0.251 0.167-0.502 0.167-0.754 0-0.921-0.754-1.674-1.674-1.674-0.921 0-1.674 0.754-1.674 1.674 0 0.502 0.251 1.005 0.67 1.34l-1.507 4.186c0 0 0 0-0.084 0-0.921 0-1.674 0.754-1.674 1.674 0 0.921 0.754 1.674 1.674 1.674 0.921 0 1.674-0.754 1.674-1.674 0-0.502-0.251-0.921-0.586-1.256l1.507-4.354c0.167 0 0.335-0.084 0.502-0.084l4.186 2.846c-0.084 0.167-0.084 0.335-0.084 0.502 0 0.921 0.754 1.674 1.674 1.674 0.921 0 1.674-0.754 1.674-1.674 0-0.502-0.251-1.005-0.67-1.34l1.674-4.856c0 0 0 0 0 0 0.921 0 1.674-0.754 1.674-1.674s-0.586-1.674-1.507-1.674z" fill="#000000" />
</svg>
