<?xml version="1.0" encoding="utf-8"?>
<!-- Generated by IcoMoon.io -->
<!DOCTYPE svg PUBLIC "-//W3C//DTD SVG 1.1//EN" "http://www.w3.org/Graphics/SVG/1.1/DTD/svg11.dtd">
<svg version="1.1" xmlns="http://www.w3.org/2000/svg" xmlns:xlink="http://www.w3.org/1999/xlink" width="35" height="36" viewBox="0 0 35 36">
<g>
</g>
	<path d="M11.7 8.836v12.109c-0.491-0.327-1.064-0.491-1.718-0.491-1.882 0-3.355 1.555-3.355 3.355 0 1.882 1.555 3.355 3.355 3.355 1.882 0 3.355-1.555 3.355-3.355 0 0 0-0.082 0-0.082v0-13.173h13.173v10.227c-0.491-0.327-1.064-0.491-1.718-0.491-1.882 0-3.355 1.555-3.355 3.355 0 1.882 1.555 3.355 3.355 3.355 1.882 0 3.355-1.555 3.355-3.355v-14.809h-16.445z" fill="#000000" />
</svg>
