<?xml version="1.0" encoding="utf-8"?>
<!-- Generated by IcoMoon.io -->
<!DOCTYPE svg PUBLIC "-//W3C//DTD SVG 1.1//EN" "http://www.w3.org/Graphics/SVG/1.1/DTD/svg11.dtd">
<svg version="1.1" xmlns="http://www.w3.org/2000/svg" xmlns:xlink="http://www.w3.org/1999/xlink" width="35" height="36" viewBox="0 0 35 36">
<g>
</g>
	<path d="M22.745 14.4v-2.045c0-2.782-2.209-4.991-4.991-4.991-2.782 0-4.991 2.209-4.991 4.991v2.045h9.982z" fill="#000000" />
	<path d="M12.764 16.036v2.291c0 2.782 2.209 4.991 4.991 4.991 2.782 0 4.991-2.209 4.991-4.991v-2.291h-9.982z" fill="#000000" />
	<path d="M11.045 16.773c-0.245 0-0.409 0.164-0.409 0.409h0.9c-0.082-0.245-0.327-0.409-0.491-0.409z" fill="#000000" />
	<path d="M24.464 16.773c-0.245 0-0.409 0.164-0.409 0.409h0.9c-0.082-0.245-0.245-0.409-0.491-0.409z" fill="#000000" />
	<path d="M23.973 17.182v1.636c0 3.273-2.618 5.891-5.891 5.891h-0.736c-3.273 0-5.891-2.618-5.891-5.891v-1.636h-0.9v2.045c0 3.6 2.945 6.545 6.545 6.545h0.082v1.718h-1.636v1.636h4.5v-1.636h-1.718v-1.718c3.6 0 6.545-2.945 6.545-6.545v-2.045h-0.9z" fill="#000000" />
</svg>
