<?xml version="1.0" encoding="utf-8"?>
<!-- Generated by IcoMoon.io -->
<!DOCTYPE svg PUBLIC "-//W3C//DTD SVG 1.1//EN" "http://www.w3.org/Graphics/SVG/1.1/DTD/svg11.dtd">
<svg version="1.1" xmlns="http://www.w3.org/2000/svg" xmlns:xlink="http://www.w3.org/1999/xlink" width="36" height="36" viewBox="0 0 36 36">
<g>
</g>
	<path d="M9.771 25.734l15.806-15.806 1.894 1.894-15.806 15.806-1.894-1.894z" fill="#000000" />
	<path d="M13.898 19.34c-0.586-0.586-1.507-0.586-2.093 0l-3.098 3.098c-0.586 0.586-0.586 1.507 0 2.093l1.926 1.926c0.586 0.586 1.507 0.586 2.093 0l3.098-3.098c0.586-0.586 0.586-1.507 0-2.093l-1.926-1.926z" fill="#000000" />
	<path d="M24.53 8.791c-0.586-0.586-1.507-0.586-2.093 0l-3.098 3.098c-0.586 0.586-0.586 1.507 0 2.093l1.926 1.926c0.586 0.586 1.507 0.586 2.093 0l3.098-3.098c0.586-0.586 0.586-1.507 0-2.093l-1.926-1.926z" fill="#000000" />
</svg>
