<?xml version="1.0" encoding="utf-8"?>
<!-- Generated by IcoMoon.io -->
<!DOCTYPE svg PUBLIC "-//W3C//DTD SVG 1.1//EN" "http://www.w3.org/Graphics/SVG/1.1/DTD/svg11.dtd">
<svg version="1.1" xmlns="http://www.w3.org/2000/svg" xmlns:xlink="http://www.w3.org/1999/xlink" width="36" height="36" viewBox="0 0 36 36">
<g>
</g>
	<path d="M27.46 16.158c0 0 0 0 0 0 0-4.186-3.265-7.619-7.367-7.619-3.265 0-6.112 2.177-7.033 5.274-0.335-0.084-0.754-0.084-1.088-0.084-3.014 0-5.526 2.846-5.526 5.944 0 0.167 0-0.167 0 0.921v0c-1.758 0-3.265 1.507-3.265 3.349 0 1.674 1.005 3.265 2.679 3.265h23.526c1.926-1.088 3.181-3.014 3.181-5.274 0-3.014-2.26-5.693-5.107-5.777z" fill="#000000" />
</svg>
