<?xml version="1.0" encoding="utf-8"?>
<!-- Generated by IcoMoon.io -->
<!DOCTYPE svg PUBLIC "-//W3C//DTD SVG 1.1//EN" "http://www.w3.org/Graphics/SVG/1.1/DTD/svg11.dtd">
<svg version="1.1" xmlns="http://www.w3.org/2000/svg" xmlns:xlink="http://www.w3.org/1999/xlink" width="35" height="36" viewBox="0 0 35 36">
<g>
</g>
	<path d="M17.427 8.836c0.655 0 1.145 0.491 1.145 1.064v4.827c0 0.573-0.491 1.064-1.145 1.064v0c-0.655 0-1.145-0.491-1.145-1.064v-4.827c0.082-0.573 0.573-1.064 1.145-1.064v0z" fill="#000000" />
	<path d="M20.291 10.964c0 0.9 0 1.718 0.082 2.618 1.964 1.064 3.273 3.109 3.273 5.4 0 3.436-2.782 6.136-6.136 6.136-3.436 0-6.136-2.782-6.136-6.136 0-2.291 1.309-4.336 3.191-5.4 0-0.9-0.082-1.718-0.082-2.618-3.191 1.227-5.482 4.336-5.482 8.018 0 4.745 3.845 8.591 8.591 8.591 4.745 0 8.591-3.845 8.591-8.591-0.164-3.682-2.536-6.873-5.891-8.018z" fill="#000000" />
</svg>
