<?xml version="1.0" encoding="utf-8"?>
<!-- Generated by IcoMoon.io -->
<!DOCTYPE svg PUBLIC "-//W3C//DTD SVG 1.1//EN" "http://www.w3.org/Graphics/SVG/1.1/DTD/svg11.dtd">
<svg version="1.1" xmlns="http://www.w3.org/2000/svg" xmlns:xlink="http://www.w3.org/1999/xlink" width="37" height="36" viewBox="0 0 37 36">
<g>
</g>
	<path d="M24.698 13.060h-2.428v-2.344c0-0.502-0.419-0.837-0.921-0.837-0.502 0-0.921 0.419-0.921 0.837v2.26h-2.428c-0.502 0-0.921 0.419-0.921 0.837 0 0.502 0.419 0.837 0.921 0.837h2.428v2.26c0 0.502 0.419 0.837 0.921 0.837 0.502 0 0.921-0.419 0.921-0.837v-2.26h2.428c0.502 0 0.921-0.419 0.921-0.837 0-0.419-0.419-0.754-0.921-0.754z" fill="#000000" />
	<path d="M21.349 6.279c-4.186 0-7.535 3.349-7.535 7.535 0 1.34 0.335 2.595 0.921 3.684 0.167 0.335 0.419 0.67 0.67 1.005 0 0 0 0 0 0-2.177 2.26-8.958 8.958-8.958 8.958-0.335 0.335-0.335 0.921 0 1.34 0.335 0.335 0.921 0.335 1.34 0 0 0 6.698-6.781 8.958-8.958 1.256 1.005 2.846 1.591 4.605 1.591 4.186 0 7.535-3.349 7.535-7.535 0-4.27-3.349-7.619-7.535-7.619zM21.265 19.507c-3.098 0-5.609-2.512-5.609-5.609s2.512-5.609 5.609-5.609 5.609 2.512 5.609 5.609-2.428 5.609-5.609 5.609z" fill="#000000" />
</svg>
