<?xml version="1.0" encoding="utf-8"?>
<!-- Generated by IcoMoon.io -->
<!DOCTYPE svg PUBLIC "-//W3C//DTD SVG 1.1//EN" "http://www.w3.org/Graphics/SVG/1.1/DTD/svg11.dtd">
<svg version="1.1" xmlns="http://www.w3.org/2000/svg" xmlns:xlink="http://www.w3.org/1999/xlink" width="36" height="36" viewBox="0 0 36 36">
<g>
</g>
	<path d="M27.293 16.66h0.084c-0.251-1.256-0.754-2.428-1.423-3.433l-0.084 0.084-2.093 0.502-1.172-1.172 0.502-2.093 0.084-0.084c-1.005-0.67-2.177-1.172-3.349-1.423v0.167l-1.172 1.842h-1.591l-1.172-1.842v-0.167c-1.256 0.251-2.344 0.754-3.349 1.423l0.084 0.084 0.502 2.093-1.172 1.172-2.093-0.502-0.084-0.084c-0.67 1.005-1.172 2.177-1.423 3.433h0.084l1.758 1.172v1.591l-1.758 1.172h-0.084c0.251 1.172 0.754 2.26 1.34 3.265l0.084-0.084 2.093-0.502 1.172 1.172-0.502 2.093-0.084 0.084c1.005 0.67 2.177 1.172 3.349 1.423l1.172-1.758h1.591l1.172 1.758c1.256-0.251 2.344-0.754 3.349-1.423l-0.084-0.084-0.502-2.093 1.172-1.172 2.093 0.502 0.084 0.084c0.67-1.005 1.088-2.093 1.34-3.265h-0.084l-1.842-1.172v-1.591l2.009-1.172zM17.833 22.102c-2.009 0-3.684-1.591-3.684-3.684 0-2.009 1.591-3.684 3.684-3.684 2.009 0 3.684 1.591 3.684 3.684 0 2.093-1.674 3.684-3.684 3.684z" fill="#000000" />
</svg>
