<?xml version="1.0" encoding="utf-8"?>
<!-- Generated by IcoMoon.io -->
<!DOCTYPE svg PUBLIC "-//W3C//DTD SVG 1.1//EN" "http://www.w3.org/Graphics/SVG/1.1/DTD/svg11.dtd">
<svg version="1.1" xmlns="http://www.w3.org/2000/svg" xmlns:xlink="http://www.w3.org/1999/xlink" width="36" height="36" viewBox="0 0 36 36">
<g>
</g>
	<path d="M17.591 17.427c-2.864 0-5.236 4.336-5.236 9.736h10.555c-0.082-5.4-2.455-9.736-5.318-9.736z" fill="#000000" />
	<path d="M21.273 12.6c0 2.033-1.648 3.682-3.682 3.682s-3.682-1.648-3.682-3.682c0-2.033 1.648-3.682 3.682-3.682 2.033 0 3.682 1.648 3.682 3.682z" fill="#000000" />
	<path d="M26.018 17.591c-1.391 0-2.536 1.391-3.191 3.518 0.409 0.982 0.736 2.045 0.9 3.273h5.891c0-3.764-1.636-6.791-3.6-6.791z" fill="#000000" />
	<path d="M28.8 13.745c0 1.401-1.136 2.536-2.536 2.536-1.401 0-2.536-1.136-2.536-2.536 0-1.401 1.136-2.536 2.536-2.536 1.401 0 2.536 1.136 2.536 2.536z" fill="#000000" />
	<path d="M9.164 17.591c1.391 0 2.536 1.391 3.191 3.518-0.409 0.982-0.736 2.045-0.9 3.273h-5.891c0-3.764 1.555-6.791 3.6-6.791z" fill="#000000" />
	<path d="M11.455 13.745c0 1.401-1.136 2.536-2.536 2.536s-2.536-1.136-2.536-2.536c0-1.401 1.136-2.536 2.536-2.536 1.401 0 2.536 1.136 2.536 2.536z" fill="#000000" />
</svg>
