<?xml version="1.0" encoding="utf-8"?>
<!-- Generated by IcoMoon.io -->
<!DOCTYPE svg PUBLIC "-//W3C//DTD SVG 1.1//EN" "http://www.w3.org/Graphics/SVG/1.1/DTD/svg11.dtd">
<svg version="1.1" xmlns="http://www.w3.org/2000/svg" xmlns:xlink="http://www.w3.org/1999/xlink" width="36" height="36" viewBox="0 0 36 36">
<g>
</g>
	<path d="M24.218 24.627c-0.982 0.736-2.045 1.145-3.273 1.145-3.109 0-5.727-2.7-6.3-6.218h6.3c0.573 0 0.982-0.327 0.982-0.655 0-0.409-0.409-0.655-0.982-0.655h-6.382c0-0.082 0-0.164 0-0.164 0-0.245 0-0.491 0-0.818h6.382c0.573 0 0.982-0.327 0.982-0.655 0-0.409-0.409-0.655-0.982-0.655h-6.136c0.736-3.273 3.273-5.645 6.218-5.645 1.064 0 2.045 0.327 2.945 0.9 0.164-0.164 0.245-0.327 0.409-0.409 0.164-0.164 0.409-0.409 0.573-0.573-1.145-0.9-2.536-1.391-4.009-1.391-3.682 0-6.709 3.027-7.527 7.2h-1.555c-0.573 0-0.982 0.327-0.982 0.655 0 0.409 0.409 0.655 0.982 0.655h1.391c0 0.245 0 0.491 0 0.818 0 0.082 0 0.164 0 0.164h-1.391c-0.573 0-0.982 0.327-0.982 0.655 0 0.409 0.409 0.655 0.982 0.655h1.473c0.573 4.418 3.764 7.773 7.609 7.773 1.636 0 3.109-0.655 4.336-1.636-0.409-0.491-0.736-0.818-1.064-1.145z" fill="#000000" />
</svg>
