<?xml version="1.0" encoding="utf-8"?>
<!-- Generated by IcoMoon.io -->
<!DOCTYPE svg PUBLIC "-//W3C//DTD SVG 1.1//EN" "http://www.w3.org/Graphics/SVG/1.1/DTD/svg11.dtd">
<svg version="1.1" xmlns="http://www.w3.org/2000/svg" xmlns:xlink="http://www.w3.org/1999/xlink" width="36" height="36" viewBox="0 0 36 36">
<g>
</g>
	<path d="M24.53 14.149c0 0.502-0.419 0.921-0.921 0.921h-6.446c-0.502 0-0.921-0.419-0.921-0.921v0c0-0.502 0.419-0.921 0.921-0.921h6.446c0.586 0 0.921 0.419 0.921 0.921v0z" fill="#000000" />
	<path d="M20.344 6.865c-4.019 0-7.284 3.265-7.284 7.284 0 1.256 0.335 2.512 0.921 3.516 0.167 0.335 0.419 0.67 0.67 1.005 0 0 0 0 0 0-2.177 2.177-8.623 8.623-8.623 8.623-0.335 0.335-0.335 0.921 0 1.256 0.335 0.335 0.921 0.335 1.256 0 0 0 6.53-6.53 8.623-8.707 1.256 0.921 2.763 1.507 4.437 1.507 4.019 0 7.284-3.265 7.284-7.284s-3.181-7.2-7.284-7.2zM20.344 19.674c-3.014 0-5.442-2.428-5.442-5.442s2.428-5.442 5.442-5.442c3.014 0 5.442 2.428 5.442 5.442 0 3.014-2.428 5.442-5.442 5.442z" fill="#000000" />
</svg>
