<?xml version="1.0" encoding="utf-8"?>
<!-- Generated by IcoMoon.io -->
<!DOCTYPE svg PUBLIC "-//W3C//DTD SVG 1.1//EN" "http://www.w3.org/Graphics/SVG/1.1/DTD/svg11.dtd">
<svg version="1.1" xmlns="http://www.w3.org/2000/svg" xmlns:xlink="http://www.w3.org/1999/xlink" width="37" height="36" viewBox="0 0 37 36">
<g>
</g>
	<path d="M16.326 6.614h-1.256l-0.921 3.349-0.921-3.349h-1.34c0.251 0.837 0.586 1.591 0.837 2.428 0.419 1.172 0.67 2.093 0.754 2.679v3.516h1.256v-3.516l1.591-5.107zM19.758 13.144v-2.26c0-0.67-0.084-1.172-0.335-1.507-0.335-0.419-0.754-0.67-1.34-0.67-0.586 0-1.005 0.251-1.34 0.67-0.251 0.335-0.335 0.837-0.335 1.507v2.26c0 0.67 0.084 1.172 0.335 1.507 0.335 0.419 0.754 0.67 1.34 0.67 0.586 0 1.005-0.167 1.34-0.67 0.167-0.335 0.335-0.837 0.335-1.507zM18.586 13.312c0 0.586-0.167 0.921-0.586 0.921s-0.586-0.335-0.586-0.921v-2.679c0-0.586 0.167-0.921 0.586-0.921s0.586 0.335 0.586 0.921v2.679zM24.028 15.154v-6.363h-1.172v4.94c-0.251 0.335-0.502 0.502-0.754 0.502-0.167 0-0.251-0.084-0.251-0.251 0-0.084 0-0.167 0-0.419v-4.688h-1.172v5.023c0 0.502 0 0.754 0.084 0.921 0.084 0.335 0.419 0.502 0.754 0.502 0.419 0 0.837-0.251 1.34-0.754v0.67h1.172z" fill="#000000" />
	<path d="M27.46 18.502c-0.251-1.005-1.088-1.758-2.009-1.842-2.344-0.251-4.772-0.251-7.116-0.251-2.344 0-4.772 0-7.116 0.251-1.005 0.084-1.842 0.837-2.093 1.842-0.335 1.423-0.335 3.014-0.335 4.521 0 1.507 0 3.098 0.335 4.521 0.251 1.005 1.088 1.758 2.093 1.842 2.344 0.251 4.772 0.251 7.116 0.251 2.344 0 4.772 0 7.116-0.251 1.005-0.084 1.842-0.837 2.009-1.842 0.335-1.423 0.335-3.014 0.335-4.521 0-1.591 0-3.098-0.335-4.521zM14.233 19.758h-1.34v7.284h-1.34v-7.284h-1.34v-1.172h4.019v1.172zM17.665 27.042h-1.172v-0.67c-0.419 0.502-0.921 0.754-1.34 0.754-0.335 0-0.586-0.167-0.754-0.502-0.084-0.167-0.084-0.502-0.084-0.921v-5.023h1.172v4.688c0 0.251 0 0.419 0 0.419 0 0.167 0.084 0.251 0.251 0.251 0.251 0 0.502-0.167 0.754-0.502v-4.772h1.172v6.279zM22.019 25.2c0 0.586 0 1.005-0.084 1.256-0.167 0.502-0.419 0.67-0.921 0.67-0.419 0-0.837-0.251-1.172-0.67v0.586h-1.172v-8.54h1.172v2.763c0.335-0.419 0.754-0.67 1.172-0.67s0.754 0.251 0.921 0.754c0.084 0.251 0.084 0.67 0.084 1.256v2.595zM26.372 24.112h-2.26v1.088c0 0.586 0.167 0.837 0.586 0.837 0.251 0 0.419-0.167 0.502-0.419 0-0.084 0-0.335 0-0.754h1.172v0.167c0 0.335 0 0.586 0 0.754-0.084 0.251-0.084 0.502-0.251 0.67-0.335 0.419-0.754 0.67-1.423 0.67-0.586 0-1.088-0.251-1.423-0.67-0.251-0.335-0.335-0.837-0.335-1.507v-2.177c0-0.67 0.084-1.172 0.335-1.507 0.335-0.419 0.837-0.67 1.34-0.67 0.586 0 1.005 0.251 1.34 0.67 0.251 0.335 0.335 0.837 0.335 1.507v1.34z" fill="#000000" />
</svg>
