<?xml version="1.0" encoding="utf-8"?>
<!-- Generated by IcoMoon.io -->
<!DOCTYPE svg PUBLIC "-//W3C//DTD SVG 1.1//EN" "http://www.w3.org/Graphics/SVG/1.1/DTD/svg11.dtd">
<svg version="1.1" xmlns="http://www.w3.org/2000/svg" xmlns:xlink="http://www.w3.org/1999/xlink" width="35" height="36" viewBox="0 0 35 36">
<g>
</g>
	<path d="M16.2 21.191c-0.491 2.536-1.064 4.991-2.864 6.3-0.573-3.845 0.818-6.791 1.391-9.9-1.064-1.8 0.164-5.4 2.373-4.5 2.782 1.064-2.373 6.627 1.064 7.364 3.6 0.736 5.073-6.218 2.864-8.509-3.273-3.273-9.409-0.082-8.673 4.664 0.164 1.145 1.391 1.473 0.491 3.109-2.045-0.491-2.7-2.127-2.618-4.255 0.164-3.6 3.191-6.055 6.3-6.382 3.927-0.409 7.609 1.473 8.1 5.073 0.573 4.173-1.718 8.673-5.973 8.345-1.145-0.245-1.555-0.736-2.455-1.309z" fill="#000000" />
</svg>
