<?xml version="1.0" encoding="utf-8"?>
<!-- Generated by IcoMoon.io -->
<!DOCTYPE svg PUBLIC "-//W3C//DTD SVG 1.1//EN" "http://www.w3.org/Graphics/SVG/1.1/DTD/svg11.dtd">
<svg version="1.1" xmlns="http://www.w3.org/2000/svg" xmlns:xlink="http://www.w3.org/1999/xlink" width="35" height="36" viewBox="0 0 35 36">
<g>
</g>
	<path d="M21.845 10.473h7.773v2.209h-7.773v-2.209z" fill="#000000" />
	<path d="M32.236 19.391c-0.164-1.064-0.491-1.964-1.064-2.782-0.573-0.9-1.391-1.555-2.291-1.964-0.9-0.409-1.964-0.655-3.109-0.655-1.964 0-3.518 0.655-4.745 1.882-1.227 1.227-1.8 3.027-1.8 5.318 0 2.455 0.655 4.255 2.045 5.318 1.391 1.064 2.945 1.636 4.745 1.636 2.127 0 3.845-0.655 4.991-1.964 0.736-0.818 1.227-1.636 1.309-2.455h-3.6c-0.245 0.409-0.409 0.736-0.736 0.9-0.491 0.409-1.145 0.573-1.964 0.573-0.736 0-1.391-0.164-1.964-0.491-0.9-0.573-1.309-1.473-1.391-2.782h9.736c0-1.064-0.082-1.964-0.164-2.536zM22.745 19.718c0.164-0.9 0.409-1.555 0.9-2.045s1.227-0.736 2.045-0.736c0.818 0 1.473 0.245 2.045 0.736 0.573 0.491 0.9 1.145 0.9 2.127h-5.891z" fill="#000000" />
	<path d="M15.218 18c0.573-0.327 1.064-0.655 1.391-1.064 0.573-0.655 0.818-1.555 0.818-2.7 0-1.064-0.245-1.964-0.818-2.782-0.9-1.227-2.455-1.882-4.664-1.964h-8.755v18.082h8.1c0.9 0 1.8-0.082 2.536-0.245 0.818-0.164 1.473-0.491 2.045-0.9 0.491-0.409 0.9-0.818 1.309-1.391 0.573-0.818 0.818-1.8 0.818-2.864 0-1.064-0.245-1.882-0.736-2.618-0.491-0.655-1.145-1.145-2.045-1.555zM6.791 12.845h3.927c0.9 0 1.555 0.082 2.127 0.245 0.655 0.245 0.982 0.818 0.982 1.636 0 0.736-0.245 1.309-0.736 1.555-0.491 0.327-1.145 0.409-1.882 0.409h-4.418v-3.845zM13.009 24.3c-0.409 0.245-1.064 0.327-1.8 0.327h-4.418v-4.827h4.418c0.736 0 1.391 0.082 1.8 0.327 0.736 0.327 1.145 0.982 1.145 1.964 0 1.064-0.409 1.8-1.145 2.209z" fill="#000000" />
</svg>
