<?xml version="1.0" encoding="utf-8"?>
<!-- Generated by IcoMoon.io -->
<!DOCTYPE svg PUBLIC "-//W3C//DTD SVG 1.1//EN" "http://www.w3.org/Graphics/SVG/1.1/DTD/svg11.dtd">
<svg version="1.1" xmlns="http://www.w3.org/2000/svg" xmlns:xlink="http://www.w3.org/1999/xlink" width="35" height="36" viewBox="0 0 35 36">
<g>
</g>
	<path d="M6.873 13.5l0.818 1.145c0 0 1.8-1.391 2.373-0.736 0.573 0.736 2.864 9.164 3.6 10.718 0.655 1.391 2.455 3.191 4.418 1.882 1.964-1.309 8.591-6.955 9.736-13.582 1.145-6.627-7.936-5.236-8.918 0.573 2.373-1.473 3.682 0.573 2.455 2.864-1.227 2.291-2.373 3.845-2.945 3.845-0.573 0-1.064-1.555-1.718-4.255-0.655-2.782-0.655-7.855-3.6-7.282-2.618 0.573-6.218 4.827-6.218 4.827z" fill="#000000" />
</svg>
