<?xml version="1.0" encoding="utf-8"?>
<!-- Generated by IcoMoon.io -->
<!DOCTYPE svg PUBLIC "-//W3C//DTD SVG 1.1//EN" "http://www.w3.org/Graphics/SVG/1.1/DTD/svg11.dtd">
<svg version="1.1" xmlns="http://www.w3.org/2000/svg" xmlns:xlink="http://www.w3.org/1999/xlink" width="35" height="36" viewBox="0 0 35 36">
<g>
</g>
	<path d="M26.182 18.573c-0.491 0-0.818 0.409-0.818 0.818h1.636c0-0.409-0.409-0.818-0.818-0.818z" fill="#000000" />
	<path d="M25.364 19.391v4.418c0 1.473-1.145 2.618-2.618 2.618h-11.455c-1.473 0-2.618-1.145-2.618-2.618v-9.736c0-1.473 1.145-2.618 2.618-2.618h4.745c0.082 0 0.082 0 0.164 0 0.491 0 0.818-0.409 0.818-0.818 0-0.491-0.409-0.818-0.818-0.818h-5.727c-1.964 0-3.518 1.555-3.518 3.518v11.291c0 1.964 1.555 3.518 3.518 3.518h13.009c1.964 0 3.518-1.555 3.518-3.518v-5.155h-1.636z" fill="#000000" />
	<path d="M27.655 15.3l-2.618-2.618 2.618-2.618c0.409-0.409 0.409-1.064 0-1.391-0.409-0.409-1.064-0.409-1.391 0l-2.618 2.618-2.618-2.618c-0.409-0.409-1.064-0.409-1.391 0-0.409 0.409-0.409 1.064 0 1.391l2.618 2.618-2.618 2.618c-0.409 0.409-0.409 1.064 0 1.391 0.409 0.409 1.064 0.409 1.391 0l2.618-2.618 2.618 2.618c0.409 0.409 1.064 0.409 1.391 0 0.409-0.327 0.409-0.982 0-1.391z" fill="#000000" />
</svg>
