<?xml version="1.0" encoding="utf-8"?>
<!-- Generated by IcoMoon.io -->
<!DOCTYPE svg PUBLIC "-//W3C//DTD SVG 1.1//EN" "http://www.w3.org/Graphics/SVG/1.1/DTD/svg11.dtd">
<svg version="1.1" xmlns="http://www.w3.org/2000/svg" xmlns:xlink="http://www.w3.org/1999/xlink" width="36" height="36" viewBox="0 0 36 36">
<g>
</g>
	<path d="M28.465 9.46h-21.265c-0.921 0-1.674 0.67-1.674 1.507v12.056h24.53v-12.056c0.084-0.837-0.67-1.507-1.591-1.507zM28.465 20.177c0 0.67-0.67 1.172-1.423 1.172h-18.335c-0.754 0-1.423-0.502-1.423-1.172v-7.87c0-0.67 0.67-1.172 1.423-1.172h18.335c0.754 0 1.423 0.502 1.423 1.172v7.87z" fill="#000000" />
	<path d="M33.321 25.367c0 0.586-0.419 1.005-1.005 1.005h-28.884c-0.586 0-1.005-0.419-1.005-1.005v0c0-0.586 0.419-1.005 1.005-1.005h28.884c0.502 0 1.005 0.502 1.005 1.005v0z" fill="#000000" />
</svg>
