<?xml version="1.0" encoding="utf-8"?>
<!-- Generated by IcoMoon.io -->
<!DOCTYPE svg PUBLIC "-//W3C//DTD SVG 1.1//EN" "http://www.w3.org/Graphics/SVG/1.1/DTD/svg11.dtd">
<svg version="1.1" xmlns="http://www.w3.org/2000/svg" xmlns:xlink="http://www.w3.org/1999/xlink" width="37" height="36" viewBox="0 0 37 36">
<g>
</g>
	<path d="M20.344 13.228c-0.502 0.084-1.088 0.084-1.674 0.167-0.921 0.084-1.842 0.251-2.512 0.586-1.423 0.586-2.428 1.842-2.428 3.684 0 2.344 1.507 3.516 3.349 3.516 0.67 0 1.172-0.084 1.591-0.167 0.754-0.251 1.34-0.67 2.093-1.423 0.419 0.586 0.586 0.837 1.256 1.507 0.167 0.084 0.419 0.084 0.586 0 0.502-0.419 1.256-1.088 1.758-1.507 0.167-0.167 0.167-0.419 0-0.586-0.419-0.586-0.837-1.005-0.837-2.093v-3.516c0-1.507 0.084-2.846-1.005-3.851-0.921-0.837-2.344-1.172-3.433-1.172-0.167 0-0.335 0-0.502 0-2.009 0.084-4.102 1.005-4.605 3.433-0.084 0.335 0.167 0.419 0.335 0.502l2.177 0.251c0.251 0 0.335-0.251 0.419-0.419 0.167-0.837 0.921-1.256 1.674-1.34 0 0 0.084 0 0.167 0 0.502 0 1.005 0.167 1.256 0.586 0.335 0.502 0.251 1.088 0.251 1.674v0.167zM20.344 15.572c0 0.921 0 1.591-0.419 2.428-0.251 0.586-0.754 0.921-1.256 1.005-0.084 0-0.167 0-0.335 0-0.837 0-1.34-0.67-1.34-1.674 0-1.256 0.754-1.842 1.674-2.093 0.502-0.084 1.088-0.167 1.674-0.167v0.502zM27.544 26.54c0.921-0.837 1.34-2.26 1.423-3.014v-0.167c0-0.167-0.084-0.335-0.084-0.335-0.167-0.251-1.591-0.419-2.846-0.084-0.335 0.084-0.67 0.251-0.921 0.419-0.251 0.167-0.167 0.335 0.084 0.335 0.251-0.084 0.502-0.084 0.837-0.084 0.754-0.084 1.591-0.084 1.842 0.167 0.335 0.335-0.335 1.926-0.586 2.595-0.084 0.251 0.084 0.335 0.251 0.167zM7.954 23.526c2.763 2.512 6.363 4.019 10.465 4.019 2.512 0 5.442-0.67 7.619-2.009 0.335-0.167 0.586-0.335 0.837-0.586 0.419-0.251 0.084-0.67-0.335-0.502-0.167 0.084-0.335 0.167-0.502 0.251-2.428 0.921-5.023 1.423-7.451 1.423-3.767 0-7.451-1.005-10.381-2.763-0.251-0.335-0.419 0-0.251 0.167z" fill="#000000" />
</svg>
