<?xml version="1.0" encoding="utf-8"?>
<!-- Generated by IcoMoon.io -->
<!DOCTYPE svg PUBLIC "-//W3C//DTD SVG 1.1//EN" "http://www.w3.org/Graphics/SVG/1.1/DTD/svg11.dtd">
<svg version="1.1" xmlns="http://www.w3.org/2000/svg" xmlns:xlink="http://www.w3.org/1999/xlink" width="36" height="36" viewBox="0 0 36 36">
<g>
</g>
	<path d="M17.833 8.54c-5.274 0-9.544 4.27-9.544 9.544 0 2.428 0.921 4.605 2.344 6.279 1.507-1.507 3.516-2.344 5.86-2.26 3.014 0.084 5.358 1.507 6.698 3.851 2.512-1.758 4.102-4.605 4.102-7.87 0.084-5.274-4.186-9.544-9.46-9.544zM22.521 21.516c-0.167 0.251-0.502 0.335-0.837 0.167-2.177-1.34-5.023-1.674-8.288-0.921-0.335 0.084-0.67-0.167-0.67-0.419-0.084-0.335 0.167-0.67 0.419-0.67 3.6-0.837 6.698-0.502 9.126 1.005 0.335 0.167 0.419 0.502 0.251 0.837zM23.693 18.754c-0.251 0.335-0.67 0.419-1.005 0.251-2.512-1.591-6.363-2.009-9.377-1.088-0.419 0.084-0.837-0.084-0.921-0.502-0.084-0.419 0.084-0.754 0.502-0.921 3.433-1.005 7.702-0.502 10.549 1.256 0.335 0.251 0.419 0.67 0.251 1.005zM23.777 15.991c-3.014-1.758-8.037-1.926-10.884-1.088-0.502 0.167-0.921-0.084-1.088-0.586-0.167-0.419 0.084-0.921 0.586-1.088 3.349-1.005 8.874-0.837 12.307 1.256 0.419 0.251 0.586 0.754 0.335 1.172-0.251 0.419-0.837 0.586-1.256 0.335zM16.493 24.949c-1.34 0-2.428 0.502-3.265 1.423 1.34 0.754 2.93 1.172 4.605 1.172 0.837 0 1.591-0.084 2.344-0.251-0.67-1.423-1.926-2.26-3.684-2.344z" fill="#000000" />
</svg>
