<?xml version="1.0" encoding="utf-8"?>
<!-- Generator: Adobe Illustrator 15.1.0, SVG Export Plug-In  -->
<!DOCTYPE svg PUBLIC "-//W3C//DTD SVG 1.1//EN" "http://www.w3.org/Graphics/SVG/1.1/DTD/svg11.dtd" [
	<!ENTITY ns_flows "http://ns.adobe.com/Flows/1.0/">
]>
<svg version="1.1"
	 xmlns="http://www.w3.org/2000/svg" xmlns:xlink="http://www.w3.org/1999/xlink" xmlns:a="http://ns.adobe.com/AdobeSVGViewerExtensions/3.0/"
	 x="0px" y="0px" width="200px" height="100px" viewBox="-13.287 -7.388 200 100"
	 overflow="visible" enable-background="new -13.287 -7.388 200 100" xml:space="preserve">
<defs>
</defs>
<path fill="#FFFFFF" d="M33.959,57.237v16.92c0,6-4.8,11.16-10.8,11.279H10.68C4.8,85.317,0,80.157,0,74.157v-16.92h4.92v16.92
	c0,3.6,2.4,7.68,6,7.68h12.119c3.6,0,6.12-4.08,6.12-7.68v-16.92c0-4.68-2.04-6.238-6-9.119c-4.44-3.359-9.72-7.2-14.64-10.56
	C3.12,33.958,1.2,30.599,1.2,25.799V11.28C1.2,5.28,6,0,12,0h9.84h0.12c6,0.12,10.8,5.28,10.8,11.28v16.919h-4.92V11.28
	c0-3.6-2.4-7.68-6-7.68H12c-3.6,0-6,4.08-6,7.68v13.319c0,5.88,2.28,7.2,6.12,9.84c3.48,2.399,11.52,8.279,15.479,10.919
	C33.839,49.679,33.959,54.118,33.959,57.237z"/>
<path fill="#FFFFFF" d="M79.438,0.36v73.797c0,6-4.919,11.279-10.919,11.279H57.6c-6,0-10.919-5.279-10.919-11.279V0.36H51.6v73.797
	c0,3.6,2.4,7.68,6,7.68h10.919c3.6,0,6-4.08,6-7.68V0.36H79.438z"/>
<path fill="#FFFFFF" d="M121.318,26.999V11.28c0-3.6-2.399-7.68-6-7.68h-10.919c-3.6,0-6,4.08-6,7.68v62.877
	c0,3.6,2.4,7.199,6,7.199h10.919c3.601,0,6-3.6,6-7.199V56.038h4.92v18.119c0,5.879-4.68,11.279-10.439,11.279h-11.399
	c-6,0-10.92-5.279-10.92-11.279V11.28c0-6,4.92-11.28,10.92-11.28h10.919c6,0,10.92,5.28,10.92,11.28v15.719H121.318z"/>
<path fill="#FFFFFF" d="M172.438,11.28v62.877c0,6-4.92,11.279-10.92,11.279h-12.119c-6,0-10.92-5.279-10.92-11.279V11.28
	c0-6,4.92-11.28,10.92-11.28h12.119C167.519,0,172.438,5.28,172.438,11.28z M167.639,74.157V11.28c0-3.6-2.521-7.68-6.12-7.68
	h-12.119c-3.6,0-6,4.08-6,7.68v62.877c0,3.6,2.4,7.68,6,7.68h12.119C165.118,81.837,167.639,77.757,167.639,74.157z"/>
</svg>
